STARTFONT 2.3
FONT -FontForge-Syncopate-Book-R-Normal--36-360-72-72-P-270-ISO10646-1
SIZE 36 72 72  4
FONTBOUNDINGBOX 66 41 -7 -8
COMMENT "Generated by fontforge, http://fontforge.sourceforge.net"
COMMENT "Copyright (c) 2010 by Brian J. Bonislawsky DBA Astigmatic (AOETI). All rights reserved. Available under the Apache 2.0 licence.http://www.apache.org/licenses/LICENSE-2.0.html"
STARTPROPERTIES 40
FOUNDRY "FontForge"
FAMILY_NAME "Syncopate"
WEIGHT_NAME "Book"
SLANT "R"
SETWIDTH_NAME "Normal"
ADD_STYLE_NAME ""
PIXEL_SIZE 36
POINT_SIZE 360
RESOLUTION_X 72
RESOLUTION_Y 72
SPACING "P"
AVERAGE_WIDTH 270
CHARSET_REGISTRY "ISO10646"
CHARSET_ENCODING "1"
FONTNAME_REGISTRY ""
CHARSET_COLLECTIONS "ISO8859-2 ISO8859-9 ISO8859-4 ISO10646-1"
BITS_PER_PIXEL 4
FONT_NAME "Syncopate-Regular"
FACE_NAME "Syncopate Regular"
COPYRIGHT "Copyright (c) 2010 by Brian J. Bonislawsky DBA Astigmatic (AOETI). All rights reserved. Available under the Apache 2.0 licence.http://www.apache.org/licenses/LICENSE-2.0.html"
FONT_VERSION "001.001"
FONT_ASCENT 29
FONT_DESCENT 7
UNDERLINE_POSITION -4
UNDERLINE_THICKNESS 2
X_HEIGHT 23
CAP_HEIGHT 23
RAW_ASCENT 799
RAW_DESCENT 200
NORM_SPACE 14
RELATIVE_WEIGHT 40
RELATIVE_SETWIDTH 70
SUPERSCRIPT_X 0
SUPERSCRIPT_Y 10
SUPERSCRIPT_SIZE 7
SUBSCRIPT_X 0
SUBSCRIPT_Y 10
SUBSCRIPT_SIZE 7
AVG_LOWERCASE_WIDTH 309
AVG_UPPERCASE_WIDTH 294
ENDPROPERTIES
CHARS 370
STARTCHAR space
ENCODING 32
SWIDTH 375 0
DWIDTH 14 0
BBX 1 1 0 0
BITMAP
00
ENDCHAR
STARTCHAR exclam
ENCODING 33
SWIDTH 274 0
DWIDTH 10 0
BBX 4 24 3 0
BITMAP
6FF4
6FF4
6FF4
6FF4
5FF4
5FF3
4FF3
4FF2
3FF1
2FF1
2FF0
1FF0
0FE0
0FD0
0ED0
0DC0
0DB0
0CB0
0000
0000
0000
6FF4
6FF4
6FF4
ENDCHAR
STARTCHAR quotedbl
ENCODING 34
SWIDTH 290 0
DWIDTH 10 0
BBX 9 7 1 17
BITMAP
BFB005FF20
AFB004FF10
9FA003FF10
8F9002FF00
8F8002FE00
7F7001FD00
6F7000FD00
ENDCHAR
STARTCHAR numbersign
ENCODING 35
SWIDTH 701 0
DWIDTH 25 0
BBX 23 24 1 0
BITMAP
000000004F80000003F80000
000000007F50000006F50000
00000000AF1000000AF20000
00000000ED0000000DE00000
00000002FA0000001FA00000
00000005F70000004F700000
00000008F30000008F400000
003FFFFFFFFFFFFFFFFFFF70
003FFFFFFFFFFFFFFFFFFF70
0000002FA0000001FA000000
0000005F60000005F7000000
0000009F30000008F4000000
000000CE0000000BF1000000
000001FB0000000EC0000000
000004F80000003F90000000
000007F40000006F50000000
3FFFFFFFFFFFFFFFFFFF6000
3FFFFFFFFFFFFFFFFFFF6000
00001FB0000000FB00000000
00005F70000004F700000000
00009F30000008F400000000
0000CE0000000CE000000000
0001FA0000001FB000000000
0005F60000004F7000000000
ENDCHAR
STARTCHAR dollar
ENCODING 36
SWIDTH 767 0
DWIDTH 28 0
BBX 23 28 2 -2
BITMAP
00000000003F900000000000
00000000003F900000000000
0000048BDEFFFEC962000000
0005DFFFFFFFFFFFFFC72000
009FFD85313F91247BFFC000
06FF7000003F90000017A000
0DF70000003F900000000000
1FF20000003F900000000000
0FF30000003F900000000000
0CFB0000003F900000000000
03FFC300003F900000000000
004DFFC7203F900000000000
00018EFFFDBF900000000000
00000049DFFFFD9510000000
00000000027FFFFFEA400000
00000000003F926AEFFB2000
00000000003F900016DFE400
00000000003F90000009FE20
00000000003F90000000CF80
00000000003F900000008FA0
00000000003F900000009FA0
00000000003F90000002EF60
0C610000003F9000004DFD00
0FFFB853213F91248CFFD200
0FFFFFFFFFFFFFFFFFE81000
01479BCDEFFFFEDB84000000
00000000003F900000000000
00000000003F900000000000
ENDCHAR
STARTCHAR percent
ENCODING 37
SWIDTH 992 0
DWIDTH 36 0
BBX 32 24 1 0
BITMAP
00005AEFEC71000000000000CF800000
002CFFFFFFFE500000000009FB000000
01DFD62014BFF5000000006FD1000000
09FC10000008FE00000004FE30000000
0EF300000000DF5000002EF500000000
2FE0000000009F700000CF8000000000
2FE0000000009F700009FB0000000000
0EF300000000DF40007FD10000000000
09FC10000008FD0004FE300000000000
01DFD62014BFF4002EF5000000000000
002CFFFFFFFE5001CF80000000000000
00005AEFEC71000AFB00000000000000
000000000000007FD10006BEFEB71000
00000000000004FE2003DFFFFFFFE500
0000000000002EF5002EFD52014BFF40
000000000001CF8000AFB00000009FD0
00000000000AFA0001FF200000000EF4
00000000007FD10003FD000000000AF6
0000000004FE200003FD000000000AF6
000000002EF5000001FF200000000EF4
00000001DF70000000AFB00000009FD0
0000000AFA000000002EFD52014BFF40
0000008FD10000000002CFFFFFFFE400
000005FE20000000000006BEFEB71000
ENDCHAR
STARTCHAR ampersand
ENCODING 38
SWIDTH 926 0
DWIDTH 33 0
BBX 29 24 2 0
BITMAP
000000016ADEFEDA61000000000000
0000007EFFFFFFFFFE500000000000
000008FFB6320025BFF30000000000
00003FF6000000000BFA0000000000
00007FC00000000007FA0000000000
00007FB0000000000CF60000000000
00004FE000000002BFA00000000000
00000DF70000017EF8000000000000
000003FF40017EFC40000000000000
0000007FE59FFC5000000000000000
0000000AFFFB400000000000000000
000003BFFFF5000000000000000000
00019FFA26FF800000000000000000
002CFC30004EFB100000000009F800
01DF90000002DFD3000000000CF500
09FB000000001AFF700000002FE100
1FF200000000006EFB1000008F9000
3FF0000000000002CFE50003FE2000
1FF200000000000008FFA12DF70000
0DFB000000000000003CFDDF900000
04FFB300000000000002DFFE100000
006FFFC74210012358CFFDDFD50000
0002AFFFFFFFFFFFFFFB6007FFA100
00000169CDEFEEDB851000002BFE60
ENDCHAR
STARTCHAR quotesingle
ENCODING 39
SWIDTH 140 0
DWIDTH 5 0
BBX 3 7 1 17
BITMAP
BFB0
AFB0
9FA0
8F90
8F80
7F70
6F70
ENDCHAR
STARTCHAR parenleft
ENCODING 40
SWIDTH 420 0
DWIDTH 15 0
BBX 10 29 2 -2
BITMAP
0000000790
0000009FF4
000008FF60
00005FF600
0002EF8000
000AFC0000
004FF40000
00AFB00000
01FF400000
06FE000000
0AFA000000
0DF7000000
0FF4000000
1FF3000000
1FF3000000
1FF3000000
0FF4000000
0DF7000000
0AFA000000
06FE000000
01FF400000
00AFB00000
004FF40000
000AFC0000
0002EF8000
00006FF600
000008FF60
0000009FF4
0000000790
ENDCHAR
STARTCHAR parenright
ENCODING 41
SWIDTH 420 0
DWIDTH 15 0
BBX 10 29 3 -2
BITMAP
0690000000
2FFB000000
04EFB00000
004FF80000
0006FF4000
0000AFD000
00002FF600
000009FD00
000002FF40
000000CF80
0000008FC0
0000005FF0
0000002FF2
0000001FF3
0000000FF4
0000001FF3
0000002FF2
0000005FF0
0000008FC0
000000CF80
000002FF40
000009FD00
00002FF600
0000AFD000
0006FF4000
004FF80000
04EFB00000
2FFB100000
0690000000
ENDCHAR
STARTCHAR asterisk
ENCODING 42
SWIDTH 503 0
DWIDTH 18 0
BBX 14 14 2 10
BITMAP
000000EF000000
000000DF000000
040000CE000031
7FA200CD0019F9
4CFE70BD05EFD5
005DFCCDBFE600
00006DFFE71000
00007EFFE71000
006DFCCDBFE700
4DFE60BD05DFD6
7FA200CE0019F9
040000CE000031
000000DF000000
000000EF000000
ENDCHAR
STARTCHAR plus
ENCODING 43
SWIDTH 634 0
DWIDTH 23 0
BBX 17 18 3 3
BITMAP
00000008F600000000
00000008F600000000
00000008F600000000
00000008F600000000
00000008F600000000
00000008F600000000
00000008F600000000
00000008F600000000
FFFFFFFFFFFFFFFFC0
FFFFFFFFFFFFFFFFC0
00000008F600000000
00000008F600000000
00000008F600000000
00000008F600000000
00000008F600000000
00000008F600000000
00000008F600000000
00000008F600000000
ENDCHAR
STARTCHAR comma
ENCODING 44
SWIDTH 185 0
DWIDTH 7 0
BBX 6 7 0 -3
BITMAP
00CFF1
00FFB0
03FF60
06FF10
09FC00
0DF700
1FF200
ENDCHAR
STARTCHAR hyphen
ENCODING 45
SWIDTH 540 0
DWIDTH 19 0
BBX 15 2 2 11
BITMAP
2FFFFFFFFFFFFF80
2FFFFFFFFFFFFF80
ENDCHAR
STARTCHAR period
ENCODING 46
SWIDTH 185 0
DWIDTH 7 0
BBX 4 4 1 0
BITMAP
3FFD
3FFD
3FFD
3FFD
ENDCHAR
STARTCHAR slash
ENCODING 47
SWIDTH 500 0
DWIDTH 18 0
BBX 14 26 2 -1
BITMAP
000000000005FC
00000000000CF5
00000000004FD0
0000000000BF60
0000000002FE10
0000000009F700
000000001FE100
000000008F9000
00000001EF2000
00000007FA0000
0000000DF30000
0000006FB00000
000000CF400000
000004FC000000
00000BF5000000
00003FD0000000
0000AF70000000
0002FE10000000
0009F800000000
001EF100000000
007F9000000000
01EF2000000000
06FA0000000000
0DF40000000000
5FC00000000000
CF500000000000
ENDCHAR
STARTCHAR zero
ENCODING 48
SWIDTH 833 0
DWIDTH 30 0
BBX 26 24 2 0
BITMAP
0000000048BEFFEB8400000000
0000006DFFFFFFFFFFD6000000
00002CFFD84210248DFFC20000
0004EFD500000000005DFE4000
003EFB10000000000001BFF300
01DFB0000000000000000BFD10
07FE100000000000000001EF70
0EF60000000000000000006FE0
4FE10000000000000000001EF4
8FA00000000000000000000BF8
AF8000000000000000000008FA
BF7000000000000000000007FB
BF7000000000000000000007FB
AF8000000000000000000008FA
8FA00000000000000000000BF8
4FE10000000000000000001EF4
0EF60000000000000000006FE0
07FE100000000000000001EF70
01DFB0000000000000000BFD10
003EFA10000000000001BFF300
0004EFD500000000005DFE4000
00002CFFD84210148DFFC20000
0000006DFFFFFFFFFFD6000000
0000000048CEFFEC9400000000
ENDCHAR
STARTCHAR one
ENCODING 49
SWIDTH 339 0
DWIDTH 12 0
BBX 8 24 0 0
BITMAP
00038DFE
38DFFFFE
FFFC75FE
C72004FE
000004FE
000004FE
000004FE
000004FE
000004FE
000004FE
000004FE
000004FE
000004FE
000004FE
000004FE
000004FE
000004FE
000004FE
000004FE
000004FE
000004FE
000004FE
000004FE
000004FE
ENDCHAR
STARTCHAR two
ENCODING 50
SWIDTH 728 0
DWIDTH 26 0
BBX 24 24 1 0
BITMAP
0000037BDEFEECA720000000
0016DFFFFFFFFFFFFC500000
06EFFB7421011359EFFB1000
4FE710000000000006EFD100
4810000000000000002DFA00
00000000000000000004FF20
00000000000000000000DF60
00000000000000000000BF80
00000000000000000000DF60
00000000000000000004FF10
0000000000000000001DF800
000000000000000001CFC000
00000000000000002CFC1000
0000000000000004EFB10000
000000000000019FF8000000
0000000000004DFE50000000
00000000002AFFA100000000
0000000007EFD40000000000
00000005DFE8100000000000
000004CFFA20000000000000
0002AFFC4000000000000000
019FFD500000000000000000
5EFFFFFFFFFFFFFFFFFFFFF1
8FFFFFFFFFFFFFFFFFFFFFF1
ENDCHAR
STARTCHAR three
ENCODING 51
SWIDTH 726 0
DWIDTH 26 0
BBX 23 24 1 0
BITMAP
02479BCEEFFEDCA840000000
1FFFFFFFFFFFFFFFFE910000
1FFEB74210011358DFFE3000
1C5100000000000004DFE100
0000000000000000001EF700
00000000000000000009FA00
00000000000000000009F900
0000000000000000001EF400
000000000000000005DF8000
000000000112357BEFD50000
00000008FFFFFFFC94000000
00000008FFFFFFFDA5100000
000000000113458BEFE81000
000000000000000005CFD200
00000000000000000009FD10
00000000000000000000DF60
00000000000000000000AF80
00000000000000000000BF80
00000000000000000001EF50
0000000000000000000BFD00
793000000000000004CFE400
8FFD964210012359DFFD4000
8FFFFFFFFFFFFFFFFE810000
0368BCDEFFFEECA740000000
ENDCHAR
STARTCHAR four
ENCODING 52
SWIDTH 769 0
DWIDTH 28 0
BBX 26 24 1 0
BITMAP
000000000000001BFFF6000000
00000000000000BFEDF6000000
0000000000000BFE2BF6000000
000000000000AFE30BF6000000
00000000000AFE300BF6000000
00000000009FE3000BF6000000
0000000009FE40000BF6000000
000000009FE400000BF6000000
00000008FF4000000BF6000000
0000008FF40000000BF6000000
000008FF500000000BF6000000
00007FF5000000000BF6000000
0007FF50000000000BF6000000
006FF600000000000BF6000000
06FF6000000000000BF6000000
6FF70000000000000BF6000000
EFFFFFFFFFFFFFFFFFFFFFFFF9
EFFFFFFFFFFFFFFFFFFFFFFFF9
00000000000000000BF6000000
00000000000000000BF6000000
00000000000000000BF6000000
00000000000000000BF6000000
00000000000000000BF6000000
00000000000000000BF6000000
ENDCHAR
STARTCHAR five
ENCODING 53
SWIDTH 738 0
DWIDTH 27 0
BBX 23 24 2 0
BITMAP
0DFFFFFFFFFFFFFFFFFF6000
0DFFFFFFFFFFFFFFFFFF6000
0DF400000000000000000000
0DF400000000000000000000
0DF400000000000000000000
0DF400000000000000000000
0DF400000000000000000000
0DF400000000000000000000
0DF400000000000000000000
0DF99BDEEFFEDCA730000000
0DFFFFFFFFFFFFFFFD600000
0DD964210011247AEFFC2000
000000000000000017EFE200
0000000000000000002DFB00
00000000000000000004FF20
00000000000000000000EF50
00000000000000000000CF60
00000000000000000000EF50
00000000000000000004FF20
0000000000000000002EFA00
A61000000000000017EFD100
DFFC86321001247AEFFB1000
28DFFFFFFFFFFFFFFC500000
000269CDEFFEDB9620000000
ENDCHAR
STARTCHAR six
ENCODING 54
SWIDTH 772 0
DWIDTH 28 0
BBX 25 24 2 0
BITMAP
0000000036ACDEFDC851000000
0000005CFFFFFFFFFFFE930000
00002CFFC853100236AEFD0000
0004EFB30000000000005A0000
002EF700000000000000000000
00CF7000000000000000000000
05FC0000000000000000000000
0CF50000000000000000000000
1FF1000048BDEFEDB840000000
5FC0018EFFFFFFFFFFFD600000
7FB08EFFB631011359EFFB1000
9FCDFF92000000000006EFC000
AFFFC2000000000000003EF700
9FF8000000000000000007FD00
8FC0000000000000000001FF30
6FF1000000000000000000DF40
1FF5000000000000000000EF40
0BFC000000000000000001FF20
04FF600000000000000008FC00
009FF5000000000000004FF500
000BFF81000000000017FF9000
00019FFE9631001359EFF80000
000004BFFFFFFFFFFFFB300000
000000027ACEFFEDA720000000
ENDCHAR
STARTCHAR seven
ENCODING 55
SWIDTH 669 0
DWIDTH 24 0
BBX 24 24 0 0
BITMAP
FFFFFFFFFFFFFFFFFFFFFFF1
FFFFFFFFFFFFFFFFFFFFFFD0
00000000000000000005FF30
0000000000000000001DF900
0000000000000000009FD100
000000000000000003FF5000
00000000000000000DFA0000
00000000000000007FE20000
0000000000000002FF600000
000000000000000BFC000000
000000000000006FF2000000
00000000000002EF80000000
0000000000000AFD00000000
0000000000005FF400000000
000000000001DF9000000000
000000000009FE1000000000
00000000004FF50000000000
0000000000DFA00000000000
0000000008FE200000000000
000000003FF6000000000000
00000000CFC0000000000000
00000006FF30000000000000
0000002EF800000000000000
000000AFD000000000000000
ENDCHAR
STARTCHAR eight
ENCODING 56
SWIDTH 793 0
DWIDTH 29 0
BBX 25 24 2 0
BITMAP
00000037ACEEFEECA620000000
00005CFFFFFFFFFFFFFB300000
000AFFD8531101136AEFF60000
008FE600000000000019FF3000
00EF5000000000000000BF9000
02FF00000000000000006FB000
01FF30000000000000009FA000
00AFD200000000000007FF3000
001CFF920000000015CFE40000
00007EFFD952137AEFF9100000
0000016CFFFFFFFFD710000000
0000016BFFFFFFFFFB61000000
0003AFFFC852136AEFFF920000
008FFD6100000000049FFE7000
0BFE6000000000000002AFF800
7FE3000000000000000008FF30
DF70000000000000000000CF80
FF300000000000000000009F90
EF70000000000000000000CF70
AFE3000000000000000008FF20
2EFF8100000000000003BFF700
02CFFFB74210011358DFFE6000
0006CFFFFFFFFFFFFFFE820000
00000269BDEFFEECA840000000
ENDCHAR
STARTCHAR nine
ENCODING 57
SWIDTH 776 0
DWIDTH 28 0
BBX 25 24 1 0
BITMAP
00000026ACEFFDC96200000000
00003BFFFFFFFFFFFFB3000000
0008FFE963100136AFFF800000
009FF71000000000019FFA0000
05FF4000000000000005FF9000
0DF700000000000000007FF300
3FF100000000000000000DFB00
5FD0000000000000000006FF10
5FD0000000000000000001FF50
3FF1000000000000000000EF70
0EF600000000000000001AFF80
08FE2000000000000002CFFF90
00CFE60000000000028FFABF80
001CFFD953110136BFFE60CF70
00007EFFFFFFFFFFFE8100DF40
00000048BDEFEEB9500001FF10
0000000000000000000006FB00
000000000000000000000DF400
000000000000000000008FB000
00000000000000000008FE2000
004A30000000000003BFE30000
004FFD8531001358CFFB200000
0005BFFFFFFFFFFFFC50000000
00000169CEFEDCA62000000000
ENDCHAR
STARTCHAR colon
ENCODING 58
SWIDTH 245 0
DWIDTH 9 0
BBX 4 17 2 0
BITMAP
2FFE
2FFE
2FFE
2FFE
0000
0000
0000
0000
0000
0000
0000
0000
0000
2FFE
2FFE
2FFE
2FFE
ENDCHAR
STARTCHAR semicolon
ENCODING 59
SWIDTH 234 0
DWIDTH 8 0
BBX 5 20 1 -3
BITMAP
02FFE0
02FFE0
02FFE0
02FFE0
000000
000000
000000
000000
000000
000000
000000
000000
000000
01FFB0
04FF60
08FF20
0BFC00
0EF700
2FF300
5FD000
ENDCHAR
STARTCHAR less
ENCODING 60
SWIDTH 634 0
DWIDTH 23 0
BBX 18 18 2 3
BITMAP
00000000000000005A
000000000000016DFD
0000000000017EFFA3
00000000028EFF9200
000000029FFF920000
000003AFFE81000000
0004BFFE8100000000
05CFFE710000000000
4FFD60000000000000
4FFD60000000000000
05CFFE710000000000
0004BFFE7100000000
000003AFFE81000000
000000029FFE920000
00000000028EFF9200
0000000000017EFFA3
000000000000016DFD
00000000000000006A
ENDCHAR
STARTCHAR equal
ENCODING 61
SWIDTH 634 0
DWIDTH 23 0
BBX 17 9 3 8
BITMAP
FFFFFFFFFFFFFFFFC0
FFFFFFFFFFFFFFFFC0
000000000000000000
000000000000000000
000000000000000000
000000000000000000
000000000000000000
FFFFFFFFFFFFFFFFC0
FFFFFFFFFFFFFFFFC0
ENDCHAR
STARTCHAR greater
ENCODING 62
SWIDTH 634 0
DWIDTH 23 0
BBX 18 18 3 3
BITMAP
B40000000000000000
FFC500000000000000
4BFFD6100000000000
003AFFE71000000000
00003AFFE820000000
00000029FFF9200000
0000000029EFFA3000
000000000018EFFB40
00000000000017EFF2
00000000000017EFF2
000000000018EFFB40
0000000029EFFA3000
00000029FFF9200000
00003AFFE820000000
003AFFE71000000000
4BFFD6100000000000
FFC500000000000000
B40000000000000000
ENDCHAR
STARTCHAR question
ENCODING 63
SWIDTH 568 0
DWIDTH 20 0
BBX 16 24 2 0
BITMAP
159BDEFFEB840000
DFFFFFFFFFFFC300
DFD84201259FFE40
A40000000002CFE2
0000000000001EF8
00000000000008FC
00000000000005FE
00000000000006FE
0000000000000AFB
0000000000005FF4
000000000007FF90
0000000004CFF800
00000037DFFD4000
0003ADFFFC500000
0006FFC830000000
0006FC0000000000
0006FC0000000000
0006FC0000000000
0000000000000000
0000000000000000
0000000000000000
0006FF4000000000
0006FF4000000000
0006FF4000000000
ENDCHAR
STARTCHAR at
ENCODING 64
SWIDTH 1016 0
DWIDTH 37 0
BBX 32 25 2 0
BITMAP
00000000000269CEEFEDC95200000000
0000000016CFFFFFFFFFFFFFB5000000
00000006EFFEA641101246AEFFC30000
000002BFFC500000000000005DFF6000
00003EFE5000000000000000008FF700
0003EFC100000000000000000006FF30
001DFB10000004ADEFD93BF60000AFC0
009FD1000003CFFFFFFFFFF300002FF4
02FF5000003EFE731138EFF100000BF8
09FC000001EFB10000004FD0000008FB
0DF7000008FD100000005FB0000006FC
1FF300000DF7000000008F80000007FC
3FF200001FF300000000AF60000009FA
4FF100003FF200000000DF3000001EF6
3FF300002FF300000001FF1000008FE1
1FF500000DFA0000001BFF100006FF70
0CFA000006FFA31027DFFFA324AFFA00
06FF2000009FFFFFFFF86FFFFFFF8000
01DFB0000004ADFEC82005CFED930000
004FF900000000000000000000000000
0007FFA2000000000000000000000000
00006FFE7200000000000006C2000000
000003CFFFB8521101247AEFF9000000
00000005BFFFFFFFFFFFFFFC50000000
000000000258BDEFFEDB962000000000
ENDCHAR
STARTCHAR A
ENCODING 65
SWIDTH 812 0
DWIDTH 29 0
BBX 29 24 0 0
BITMAP
0000000000000DFF30000000000000
0000000000006FFFB0000000000000
000000000001EF9FF4000000000000
000000000007FE1AFC000000000000
00000000001EF702FF500000000000
00000000008FD0009FC00000000000
0000000002EF60002FF50000000000
0000000009FD000009FD0000000000
000000002FF6000002FF6000000000
00000000AFD00000008FE100000000
00000003FF500000001EF700000000
0000000BFC0000000008FE10000000
0000003FF50000000001EF80000000
000000BFC000000000008FE1000000
000004FF4000000000001EF9000000
00000CFC00000000000007FF200000
00005FFFFFFFFFFFFFFFFFFF900000
0000DFFFFFFFFFFFFFFFFFFFF20000
0006FF30000000000000000DFA0000
000DF9000000000000000005FF3000
007FE2000000000000000000BFB000
01EF800000000000000000003FF400
07FE100000000000000000000AFC00
1EF60000000000000000000002FF50
ENDCHAR
STARTCHAR B
ENCODING 66
SWIDTH 836 0
DWIDTH 30 0
BBX 24 24 4 0
BITMAP
EFFFFFFFFFFFFFEEC9500000
EFFFFFFFFFFFFFFFFFFE5000
EF4000000000001248DFF400
EF40000000000000000AFC00
EF400000000000000001FF10
EF400000000000000000DF30
EF400000000000000000DF30
EF400000000000000001FF10
EF40000000000000001BFA00
EF4000000000001248EFB100
EFFFFFFFFFFFFFFFFEA40000
EFFFFFFFFFFFFFFFFFEB7100
EF4000000000001136AFFD30
EF400000000000000002CFE1
EF4000000000000000001EF8
EF40000000000000000008FC
EF40000000000000000005FE
EF40000000000000000005FF
EF40000000000000000007FD
EF4000000000000000000CFA
EF4000000000000000008FF4
EF40000000000001247DFF90
EFFFFFFFFFFFFFFFFFFFE700
EFFFFFFFFFFFFFFEDB950000
ENDCHAR
STARTCHAR C
ENCODING 67
SWIDTH 869 0
DWIDTH 31 0
BBX 27 24 2 0
BITMAP
000000000369CDEFFEDB97400000
00000017DFFFFFFFFFFFFFFFB620
000006EFFEA7421102348BEFFFC0
0001BFFB5000000000000016CFC0
001CFE50000000000000000004A0
00AFE30000000000000000000000
04FF400000000000000000000000
0BFA000000000000000000000000
2FF4000000000000000000000000
5FE0000000000000000000000000
8FC0000000000000000000000000
9FA0000000000000000000000000
9FA0000000000000000000000000
8FC0000000000000000000000000
5FE0000000000000000000000000
2FF4000000000000000000000000
0BFA000000000000000000000000
04FF400000000000000000000000
00AFE30000000000000000000000
001CFE50000000000000000004A0
0001BFFB4000000000000015BFC0
000006EFFE97421001347BEFFFC0
00000017DFFFFFFFFFFFFFFFB620
00000000036ACDEFFEDC97410000
ENDCHAR
STARTCHAR D
ENCODING 68
SWIDTH 910 0
DWIDTH 33 0
BBX 27 24 4 0
BITMAP
EFFFFFFFFFFFFEDCA84000000000
EFFFFFFFFFFFFFFFFFFE81000000
EF4000000000012358DFFE500000
EF400000000000000004CFF60000
EF40000000000000000009FF4000
EF40000000000000000000AFD000
EF400000000000000000001EF700
EF4000000000000000000009FC00
EF4000000000000000000004FF10
EF4000000000000000000001FF40
EF4000000000000000000000EF50
EF4000000000000000000000DF60
EF4000000000000000000000DF60
EF4000000000000000000000FF50
EF4000000000000000000001FF30
EF4000000000000000000005FF10
EF4000000000000000000009FC00
EF400000000000000000002EF700
EF40000000000000000000BFE100
EF4000000000000000000AFF5000
EF400000000000000004CFF70000
EF4000000000011358DFFE600000
EFFFFFFFFFFFFFFFFFFE81000000
EFFFFFFFFFFFFEDCB84000000000
ENDCHAR
STARTCHAR E
ENCODING 69
SWIDTH 754 0
DWIDTH 27 0
BBX 21 24 4 0
BITMAP
EFFFFFFFFFFFFFFFFFFF30
EFFFFFFFFFFFFFFFFFFF30
EF70000000000000000000
EF70000000000000000000
EF70000000000000000000
EF70000000000000000000
EF70000000000000000000
EF70000000000000000000
EF70000000000000000000
EF70000000000000000000
EFFFFFFFFFFFFFFFFFF400
EFFFFFFFFFFFFFFFFFF400
EF70000000000000000000
EF70000000000000000000
EF70000000000000000000
EF70000000000000000000
EF70000000000000000000
EF70000000000000000000
EF70000000000000000000
EF70000000000000000000
EF70000000000000000000
EF70000000000000000000
EFFFFFFFFFFFFFFFFFFF70
EFFFFFFFFFFFFFFFFFFF70
ENDCHAR
STARTCHAR F
ENCODING 70
SWIDTH 687 0
DWIDTH 25 0
BBX 20 24 4 0
BITMAP
EFFFFFFFFFFFFFFFFFF3
EFFFFFFFFFFFFFFFFFF3
EF400000000000000000
EF400000000000000000
EF400000000000000000
EF400000000000000000
EF400000000000000000
EF400000000000000000
EF400000000000000000
EF400000000000000000
EFFFFFFFFFFFFFFFFF50
EFFFFFFFFFFFFFFFFF50
EF400000000000000000
EF400000000000000000
EF400000000000000000
EF400000000000000000
EF400000000000000000
EF400000000000000000
EF400000000000000000
EF400000000000000000
EF400000000000000000
EF400000000000000000
EF400000000000000000
EF400000000000000000
ENDCHAR
STARTCHAR G
ENCODING 71
SWIDTH 910 0
DWIDTH 33 0
BBX 28 24 2 0
BITMAP
000000000158BDEFFEEDA8520000
00000006CFFFFFFFFFFFFFFFD840
000005DFFFB85321012369DFFFF4
0001AFFD61000000000000039EF4
000BFF7000000000000000000293
009FE40000000000000000000000
04FF500000000000000000000000
0BFB000000000000000000000000
2FF4000000000000000000000000
5FE0000000000000000000000000
8FC0000000000000000000000000
9FA0000000000000000000000000
9FA0000000000003FFFFFFFFFFFC
8FC0000000000003FFFFFFFFFFFC
6FE00000000000000000000006FC
2FF50000000000000000000006FC
0CFC0000000000000000000006FC
04FF6000000000000000000006FC
009FF600000000000000000006FC
001BFF81000000000000000006FC
0000AFFE710000000000000006FC
000005DFFFB853210012357ACFFC
00000006BFFFFFFFFFFFFFFFFD94
000000000258BDEEFEEDCA852000
ENDCHAR
STARTCHAR H
ENCODING 72
SWIDTH 949 0
DWIDTH 34 0
BBX 27 24 4 0
BITMAP
EF4000000000000000000002FF10
EF4000000000000000000002FF10
EF4000000000000000000002FF10
EF4000000000000000000002FF10
EF4000000000000000000002FF10
EF4000000000000000000002FF10
EF4000000000000000000002FF10
EF4000000000000000000002FF10
EF4000000000000000000002FF10
EF4000000000000000000002FF10
EFFFFFFFFFFFFFFFFFFFFFFFFF10
EFFFFFFFFFFFFFFFFFFFFFFFFF10
EF4000000000000000000002FF10
EF4000000000000000000002FF10
EF4000000000000000000002FF10
EF4000000000000000000002FF10
EF4000000000000000000002FF10
EF4000000000000000000002FF10
EF4000000000000000000002FF10
EF4000000000000000000002FF10
EF4000000000000000000002FF10
EF4000000000000000000002FF10
EF4000000000000000000002FF10
EF4000000000000000000002FF10
ENDCHAR
STARTCHAR I
ENCODING 73
SWIDTH 287 0
DWIDTH 10 0
BBX 3 24 4 0
BITMAP
EF40
EF40
EF40
EF40
EF40
EF40
EF40
EF40
EF40
EF40
EF40
EF40
EF40
EF40
EF40
EF40
EF40
EF40
EF40
EF40
EF40
EF40
EF40
EF40
ENDCHAR
STARTCHAR J
ENCODING 74
SWIDTH 590 0
DWIDTH 21 0
BBX 18 24 0 0
BITMAP
000000000000000DF5
000000000000000DF5
000000000000000DF5
000000000000000DF5
000000000000000DF5
000000000000000DF5
000000000000000DF5
000000000000000DF5
000000000000000DF5
000000000000000DF5
000000000000000DF5
000000000000000DF5
000000000000000DF5
000000000000000DF5
000000000000000DF5
000000000000000DF5
000000000000000EF4
000000000000001FF3
000000000000006FE0
00000000000001DF90
0000000000002CFE10
DA7431000149EFE300
FFFFFFFFFFFFFB2000
258ACEEFEDB8300000
ENDCHAR
STARTCHAR K
ENCODING 75
SWIDTH 806 0
DWIDTH 29 0
BBX 25 24 4 0
BITMAP
EF400000000000000008FF8000
EF4000000000000004DFC30000
EF400000000000019FF7000000
EF4000000000006EFC20000000
EF40000000002BFE6000000000
EF4000000007FFB20000000000
EF40000004DFE6000000000000
EF4000019FFA10000000000000
EF40005EFE5000000000000000
EF402BFFA10000000000000000
EF57EFD4000000000000000000
EFDFFE10000000000000000000
EF59FFD4000000000000000000
EF404DFF810000000000000000
EF40019FFD4000000000000000
EF400004DFF910000000000000
EF40000019FFD4000000000000
EF400000004DFF910000000000
EF40000000019FFD4000000000
EF400000000004DFF910000000
EF40000000000019FFD4000000
EF400000000000004DFF910000
EF40000000000000019FFD4000
EF400000000000000004DFF910
ENDCHAR
STARTCHAR L
ENCODING 76
SWIDTH 701 0
DWIDTH 25 0
BBX 20 24 4 0
BITMAP
EF400000000000000000
EF400000000000000000
EF400000000000000000
EF400000000000000000
EF400000000000000000
EF400000000000000000
EF400000000000000000
EF400000000000000000
EF400000000000000000
EF400000000000000000
EF400000000000000000
EF400000000000000000
EF400000000000000000
EF400000000000000000
EF400000000000000000
EF400000000000000000
EF400000000000000000
EF400000000000000000
EF400000000000000000
EF400000000000000000
EF400000000000000000
EF400000000000000000
EFFFFFFFFFFFFFFFFFFE
EFFFFFFFFFFFFFFFFFFE
ENDCHAR
STARTCHAR M
ENCODING 77
SWIDTH 1139 0
DWIDTH 41 0
BBX 33 24 4 0
BITMAP
EFB000000000000000000000000000BFE0
EFF600000000000000000000000006FFE0
EFFE2000000000000000000000001EFFE0
EFEFA00000000000000000000000AFEFE0
EF6EF50000000000000000000005FF7FE0
EF47FE100000000000000000001DF84FE0
EF40CFA00000000000000000009FD04FE0
EF403FF5000000000000000004FF404FE0
EF4008FD10000000000000000DF9004FE0
EF4000CF90000000000000008FD1004FE0
EF40003FF400000000000003FF40004FE0
EF400008FD1000000000000CF900004FE0
EF400001DF8000000000007FE100004FE0
EF4000004FF30000000002FF5000004FE0
EF40000009FD000000000BFA0000004FE0
EF40000001EF800000006FE10000004FE0
EF400000005FF3000002EF600000004FE0
EF400000000AFC00000AFB000000004FE0
EF4000000001EF70005FE2000000004FE0
EF40000000006FF201EF60000000004FE0
EF40000000000BFB09FC00000000004FE0
EF400000000002EFAFF200000000004FE0
EF4000000000006FFF7000000000004FE0
EF4000000000000CFC0000000000004FE0
ENDCHAR
STARTCHAR N
ENCODING 78
SWIDTH 936 0
DWIDTH 34 0
BBX 26 24 4 0
BITMAP
EFD200000000000000000008FA
EFFD20000000000000000008FA
EFFFD2000000000000000008FA
EF7EFD100000000000000008FA
EF43EFD10000000000000008FA
EF403EFD1000000000000008FA
EF4003EFD100000000000008FA
EF40003EFC10000000000008FA
EF400003EFC1000000000008FA
EF4000003EFC100000000008FA
EF40000003EFC10000000008FA
EF400000003EFC1000000008FA
EF4000000003EFC100000008FA
EF40000000004EFC10000008FA
EF400000000004EFC1000008FA
EF4000000000004EFC100008FA
EF40000000000004EFC10008FA
EF400000000000004EFB1008FA
EF4000000000000004EFB108FA
EF40000000000000004EFB18FA
EF400000000000000004EFB9FA
EF4000000000000000004FFFFA
EF40000000000000000004FFFA
EF400000000000000000004FFA
ENDCHAR
STARTCHAR O
ENCODING 79
SWIDTH 983 0
DWIDTH 35 0
BBX 31 24 2 0
BITMAP
00000000037ACEEFEEDB851000000000
00000028DFFFFFFFFFFFFFFB50000000
000008FFFD96321011257BFFFB300000
0002CFFA4000000000000017EFF50000
001DFE4000000000000000001AFF6000
00BFE2000000000000000000009FE200
05FF40000000000000000000000CFB00
0CFA000000000000000000000003FF40
2FF4000000000000000000000000CF90
6FE00000000000000000000000008FC0
8FC00000000000000000000000005FE0
9FA00000000000000000000000004FF0
9FA00000000000000000000000004FF0
8FC00000000000000000000000005FE0
6FE00000000000000000000000008FC0
2FF4000000000000000000000000CF90
0CF9000000000000000000000003FF40
05FF30000000000000000000000CFB00
00AFD2000000000000000000009FE200
001DFE4000000000000000001AFF6000
0001CFFA3000000000000016EFF50000
000018FFFD96321011247BFFFC300000
00000028DFFFFFFFFFFFFFFB50000000
000000000379CDEFEEDB851000000000
ENDCHAR
STARTCHAR P
ENCODING 80
SWIDTH 818 0
DWIDTH 29 0
BBX 24 24 4 0
BITMAP
EFFFFFFFFFFFFFEDB9500000
EFFFFFFFFFFFFFFFFFFE7000
EF4000000000011247CFFB10
EF400000000000000005EF90
EF4000000000000000006FF1
EF4000000000000000000EF6
EF4000000000000000000BF8
EF4000000000000000000AF9
EF4000000000000000000BF8
EF4000000000000000000EF6
EF4000000000000000006FF1
EF400000000000000005FF80
EF4000000000000136BFFB10
EFFFFFFFFFFFFFFFFFFE7000
EFFFFFFFFFFFFFEDB9510000
EF4000000000000000000000
EF4000000000000000000000
EF4000000000000000000000
EF4000000000000000000000
EF4000000000000000000000
EF4000000000000000000000
EF4000000000000000000000
EF4000000000000000000000
EF4000000000000000000000
ENDCHAR
STARTCHAR Q
ENCODING 81
SWIDTH 983 0
DWIDTH 35 0
BBX 34 24 2 0
BITMAP
00000000037ACEEFEEDB85100000000000
00000028DFFFFFFFFFFFFFFB5000000000
000008FFFD96321011257BFFFB30000000
0002CFFA4000000000000017EFF5000000
001DFE4000000000000000001AFF600000
00BFE2000000000000000000009FE20000
05FF40000000000000000000000CFB0000
0CFA000000000000000000000003FF4000
2FF4000000000000000000000000CF9000
6FE00000000000000000000000008FC000
8FC00000000000000000000000005FE000
9FA00000000000000000000000004FF000
9FA00000000000000000000000004FF000
8FC00000000000000000000000006FE000
6FE00000000000000000000000008FC000
2FF4000000000000000000000000CF9000
0CF9000000000000000000000003FF4000
05FF30000000000000A81000000CFB0000
00AFD2000000000002FFE820008FF20000
001DFE4000000000005CFFFB5AFF500000
0001CFFA30000000000039EFFFF8000000
000018FFFD96321001247AEFFFFFEB7520
00000028DFFFFFFFFFFFFFFB427BFFFFE1
000000000379CDEFFEDB95100000148C80
ENDCHAR
STARTCHAR R
ENCODING 82
SWIDTH 833 0
DWIDTH 30 0
BBX 25 24 4 0
BITMAP
EFFFFFFFFFFFFEDB9510000000
EFFFFFFFFFFFFFFFFFE8100000
EF400000000012357CFFC10000
EF40000000000000005EF90000
EF400000000000000006FF1000
EF400000000000000001FF5000
EF400000000000000000DF6000
EF400000000000000000DF6000
EF400000000000000000EF5000
EF400000000000000005FF1000
EF40000000000000004EFA0000
EF400000000012357CFFD10000
EFFFFFFFFFFFFFFFFFF9100000
EFFFFFFFFFFFFEFFC610000000
EF4000000000006FE200000000
EF4000000000000AFD10000000
EF40000000000001CFA0000000
EF400000000000002EF7000000
EF4000000000000005FF400000
EF40000000000000008FE20000
EF40000000000000000BFD1000
EF400000000000000002EFA000
EF4000000000000000004FF700
EF40000000000000000007FF40
ENDCHAR
STARTCHAR S
ENCODING 83
SWIDTH 787 0
DWIDTH 28 0
BBX 24 24 2 0
BITMAP
00000269BDEFFEECB9753000
0004CFFFFFFFFFFFFFFFF900
008FFEA63210012369DFF900
06FF91000000000000028800
0DF900000000000000000000
1FF400000000000000000000
0FF400000000000000000000
0BFC10000000000000000000
02EFD5000000000000000000
003CFFD84000000000000000
00006CFFFEB7300000000000
00000027BFFFFEB730000000
000000000047BEFFFD820000
0000000000000037CFFF9100
0000000000000000028EFD30
00000000000000000002CFD1
000000000000000000001EF6
000000000000000000000BF8
000000000000000000000DF8
000000000000000000005FF4
0B610000000000000007FFB0
0EFFC864211001246AEFFB10
0EFFFFFFFFFFFFFFFFFC6000
01368ACDEEFFFEDB96200000
ENDCHAR
STARTCHAR T
ENCODING 84
SWIDTH 708 0
DWIDTH 26 0
BBX 25 24 0 0
BITMAP
5FFFFFFFFFFFFFFFFFFFFFFFD0
5FFFFFFFFFFFFFFFFFFFFFFFD0
000000000005FD000000000000
000000000005FD000000000000
000000000005FD000000000000
000000000005FD000000000000
000000000005FD000000000000
000000000005FD000000000000
000000000005FD000000000000
000000000005FD000000000000
000000000005FD000000000000
000000000005FD000000000000
000000000005FD000000000000
000000000005FD000000000000
000000000005FD000000000000
000000000005FD000000000000
000000000005FD000000000000
000000000005FD000000000000
000000000005FD000000000000
000000000005FD000000000000
000000000005FD000000000000
000000000005FD000000000000
000000000005FD000000000000
000000000005FD000000000000
ENDCHAR
STARTCHAR U
ENCODING 85
SWIDTH 891 0
DWIDTH 32 0
BBX 26 24 3 0
BITMAP
2FF10000000000000000000FF4
2FF10000000000000000000FF4
2FF10000000000000000000FF4
2FF10000000000000000000FF4
2FF10000000000000000000FF4
2FF10000000000000000000FF4
2FF10000000000000000000FF4
2FF10000000000000000000FF4
2FF10000000000000000000FF4
2FF10000000000000000000FF4
2FF10000000000000000000FF4
2FF10000000000000000000FF4
2FF10000000000000000000FF4
2FF10000000000000000000FF4
2FF10000000000000000000FF4
2FF10000000000000000000FF4
2FF10000000000000000000FF3
0FF40000000000000000003FF1
0BFB000000000000000000AFC0
04FF900000000000000008FF50
008FFC40000000000003BFF900
0007FFFD8521001258CFFF8000
00003AFFFFFFFFFFFFFFB30000
000000159BDEFFEDB961000000
ENDCHAR
STARTCHAR V
ENCODING 86
SWIDTH 817 0
DWIDTH 29 0
BBX 28 24 1 0
BITMAP
CFA0000000000000000000003FF3
4FF300000000000000000000BFB0
0CFA00000000000000000003FF30
04FF3000000000000000000BFB00
00CFA000000000000000003FF300
004FF30000000000000000BFA000
000BFA0000000000000004FF3000
0004FF300000000000000BFA0000
0000BFA00000000000004FF30000
00004FF3000000000000BFA00000
00000BFB000000000004FF200000
000004FF30000000000BFA000000
000000BFB0000000004FF2000000
0000004FF300000000BFA0000000
0000000BFB00000004FF20000000
00000004FF3000000BF900000000
00000000BFB000004FF200000000
000000004FF30000BF9000000000
000000000BFB0004FF2000000000
0000000003FF300CF90000000000
0000000000BFB04FF20000000000
00000000003FF4CF900000000000
00000000000BFDFF200000000000
000000000003FFF8000000000000
ENDCHAR
STARTCHAR W
ENCODING 87
SWIDTH 1266 0
DWIDTH 46 0
BBX 44 24 1 0
BITMAP
7FE10000000000000000DFF700000000000000006FF1
1FF60000000000000004FFFD0000000000000000CFA0
0AFC000000000000000AFDFF3000000000000003FF40
04FF300000000000001FF5CF9000000000000009FC00
00DF900000000000006FE06FE10000000000001EF600
006FE1000000000000CF801EF60000000000006FE100
001EF6000000000003FF2009FC000000000000CF9000
0009FC000000000009FC0003FF300000000003FF3000
0003FF30000000001EF60000CF800000000009FC0000
0000CF90000000006FE100006FE0000000001EF60000
00006FE100000000BF9000001FF5000000006FE10000
00001EF600000002FF3000000AFB00000000CF900000
000009FC00000008FC00000004FF20000003FF300000
000003FF3000000EF600000000DF70000009FC000000
000000CF9000005FF1000000007FD000001EF6000000
0000006FE10000AFA0000000001FF400006FE1000000
0000001EF60001FF40000000000AFA0000CF90000000
00000009FC0007FD000000000004FF1003FF20000000
00000002FF300DF7000000000000DF6009FB00000000
00000000BF904FF10000000000008FC01EF500000000
000000005FE19FA00000000000002FF36FE000000000
000000000EF7EF500000000000000BF9CF8000000000
0000000008FFFD0000000000000005FFFF2000000000
0000000002FFF80000000000000000EFFB0000000000
ENDCHAR
STARTCHAR X
ENCODING 88
SWIDTH 821 0
DWIDTH 30 0
BBX 27 24 1 0
BITMAP
05FF7000000000000000001CFD10
005FF60000000000000001BFD200
0006FF600000000000000BFD2000
00007FF5000000000000AFE20000
000007FF40000000000AFE300000
0000008FF4000000009FE3000000
00000008FE30000009FE30000000
000000009FE300008FF400000000
0000000009FE3008FF4000000000
0000000000AFE27FF50000000000
00000000000AFEFF500000000000
000000000000CFF7000000000000
000000000005FFFD200000000000
00000000005FF8CFD10000000000
0000000004FF801DFC1000000000
000000004FF80002DFC100000000
00000003EF9000002DFC10000000
0000003EF900000002DFB0000000
000003EFA0000000002EFB000000
00002EFA000000000003EFA00000
0002DFB00000000000003EFA0000
002DFB1000000000000003EF9000
01DFC100000000000000004EF800
1CFC10000000000000000004FF80
ENDCHAR
STARTCHAR Y
ENCODING 89
SWIDTH 763 0
DWIDTH 27 0
BBX 25 24 1 0
BITMAP
5FF5000000000000000001CFB0
07FE30000000000000000AFD10
00AFD1000000000000008FE300
001CFB00000000000005FF5000
0002EF9000000000003EF70000
00003FF60000000001DFA00000
000006FF400000000BFC100000
0000008FE20000009FE2000000
0000000BFC100006FF30000000
00000001DFA0004FF600000000
000000002EF802EF9000000000
0000000004FF6CFB0000000000
00000000007FFFD10000000000
00000000000AFE200000000000
000000000005FD000000000000
000000000005FD000000000000
000000000005FD000000000000
000000000005FD000000000000
000000000005FD000000000000
000000000005FD000000000000
000000000005FD000000000000
000000000005FD000000000000
000000000005FD000000000000
000000000005FD000000000000
ENDCHAR
STARTCHAR Z
ENCODING 90
SWIDTH 728 0
DWIDTH 26 0
BBX 22 24 2 0
BITMAP
0EFFFFFFFFFFFFFFFFFFF8
0EFFFFFFFFFFFFFFFFFFF3
000000000000000005FF50
00000000000000003FF700
0000000000000002EF9000
000000000000001DFB0000
00000000000000CFC10000
0000000000000AFD200000
0000000000008FE3000000
000000000006FF40000000
00000000004FF600000000
0000000003EF8000000000
000000002DFA0000000000
00000001CFC00000000000
0000000BFD100000000000
0000009FE2000000000000
000007FF40000000000000
00005FF500000000000000
0003EF7000000000000000
002EF90000000000000000
01DFB00000000000000000
0BFD100000000000000000
6FFFFFFFFFFFFFFFFFFFFD
6FFFFFFFFFFFFFFFFFFFFD
ENDCHAR
STARTCHAR bracketleft
ENCODING 91
SWIDTH 409 0
DWIDTH 15 0
BBX 9 28 4 -2
BITMAP
7FFFFFFFE0
7FFFFFFFE0
7FB0000000
7FB0000000
7FB0000000
7FB0000000
7FB0000000
7FB0000000
7FB0000000
7FB0000000
7FB0000000
7FB0000000
7FB0000000
7FB0000000
7FB0000000
7FB0000000
7FB0000000
7FB0000000
7FB0000000
7FB0000000
7FB0000000
7FB0000000
7FB0000000
7FB0000000
7FB0000000
7FB0000000
7FFFFFFFE0
7FFFFFFFE0
ENDCHAR
STARTCHAR backslash
ENCODING 92
SWIDTH 500 0
DWIDTH 18 0
BBX 14 26 2 -1
BITMAP
CF500000000000
5FC00000000000
0DF40000000000
06FA0000000000
01EF2000000000
007F9000000000
001EF100000000
0009F800000000
0002FE10000000
0000AF70000000
00003FD0000000
00000BF5000000
000004FC000000
000000CF400000
0000006FB00000
0000000DF30000
00000007FA0000
00000001EF2000
000000008F9000
000000002FE100
0000000009F700
0000000002FE00
0000000000BF60
00000000004FD0
00000000000CF5
000000000005FC
ENDCHAR
STARTCHAR bracketright
ENCODING 93
SWIDTH 409 0
DWIDTH 15 0
BBX 10 28 1 -2
BITMAP
3FFFFFFFF3
3FFFFFFFF3
0000000FF3
0000000FF3
0000000FF3
0000000FF3
0000000FF3
0000000FF3
0000000FF3
0000000FF3
0000000FF3
0000000FF3
0000000FF3
0000000FF3
0000000FF3
0000000FF3
0000000FF3
0000000FF3
0000000FF3
0000000FF3
0000000FF3
0000000FF3
0000000FF3
0000000FF3
0000000FF3
0000000FF3
3FFFFFFFF3
3FFFFFFFF3
ENDCHAR
STARTCHAR asciicircum
ENCODING 94
SWIDTH 459 0
DWIDTH 17 0
BBX 15 10 1 14
BITMAP
000003FFB0000000
00000CFEF6000000
00006FC4FE100000
0001EF30AF900000
0009FA002EF30000
003FE10007FC0000
00CF700000DF6000
06FD0000005FE100
1EF40000000BF900
9FB000000002FF30
ENDCHAR
STARTCHAR underscore
ENCODING 95
SWIDTH 500 0
DWIDTH 18 0
BBX 18 2 0 -4
BITMAP
FFFFFFFFFFFFFFFFFF
FFFFFFFFFFFFFFFFFF
ENDCHAR
STARTCHAR grave
ENCODING 96
SWIDTH 527 0
DWIDTH 19 0
BBX 9 5 3 20
BITMAP
2C50000000
8FFD600000
05BFFD6100
00028EFE50
0000006C40
ENDCHAR
STARTCHAR a
ENCODING 97
SWIDTH 888 0
DWIDTH 32 0
BBX 27 24 2 0
BITMAP
0002478ABDEEFFEEDB8410000000
008FFFFFFFFFFFFFFFFFF9200000
008FFFC864210011358CFFF60000
007A510000000000000028FF7000
00000000000000000000004FF300
000000000000000000000008FA00
000000000000000000000003FE00
000000000000000000000001FF10
000000000000000000000001FF20
0000000000000135689ACDEFFF20
00000000269BEFFFFFFFFFFFFF20
0000049DFFFFFECA87643212FF20
0005CFFFEA74100000000001FF20
00AFFE830000000000000001FF20
0AFF70000000000000000001FF20
4FF400000000000000000001FF20
AFA000000000000000000001FF20
BF7000000000000000000001FF20
AFA000000000000000000001FF20
7FF30000000000000000004CFF20
1EFE50000000000000048EFFFF20
03EFFD84210012468BEFFE94FF20
002AFFFFFFFFFFFFFFE95101FF20
000026ACEFFEDCA853000001FF20
ENDCHAR
STARTCHAR b
ENCODING 98
SWIDTH 836 0
DWIDTH 30 0
BBX 24 24 4 0
BITMAP
EFFFFFFFFFFFFFEEC9500000
EFFFFFFFFFFFFFFFFFFE5000
EF4000000000001248DFF400
EF40000000000000000AFC00
EF400000000000000001FF10
EF400000000000000000DF30
EF400000000000000000DF30
EF400000000000000001FF10
EF40000000000000001BFA00
EF4000000000001248EFB100
EFFFFFFFFFFFFFFFFEA40000
EFFFFFFFFFFFFFFFFFEB7100
EF4000000000001136AFFD30
EF400000000000000002CFE1
EF4000000000000000001EF8
EF40000000000000000008FC
EF40000000000000000005FE
EF40000000000000000005FF
EF40000000000000000007FD
EF4000000000000000000CFA
EF4000000000000000008FF4
EF40000000000001247DFF90
EFFFFFFFFFFFFFFFFFFFE700
EFFFFFFFFFFFFFFEDB950000
ENDCHAR
STARTCHAR c
ENCODING 99
SWIDTH 869 0
DWIDTH 31 0
BBX 27 24 2 0
BITMAP
000000000369CDEFFEDB97400000
00000017DFFFFFFFFFFFFFFFB620
000006EFFEA7421102348BEFFFC0
0001BFFB5000000000000016CFC0
001CFE50000000000000000004A0
00AFE30000000000000000000000
04FF400000000000000000000000
0BFA000000000000000000000000
2FF4000000000000000000000000
5FE0000000000000000000000000
8FC0000000000000000000000000
9FA0000000000000000000000000
9FA0000000000000000000000000
8FC0000000000000000000000000
5FE0000000000000000000000000
2FF4000000000000000000000000
0BFA000000000000000000000000
04FF400000000000000000000000
00AFE30000000000000000000000
001CFE50000000000000000004A0
0001BFFB4000000000000015BFC0
000006EFFE97421001347BEFFFC0
00000017DFFFFFFFFFFFFFFFB620
00000000036ACDEFFEDC97410000
ENDCHAR
STARTCHAR d
ENCODING 100
SWIDTH 910 0
DWIDTH 33 0
BBX 27 24 4 0
BITMAP
EFFFFFFFFFFFFEDCA84000000000
EFFFFFFFFFFFFFFFFFFE81000000
EF4000000000012358DFFE500000
EF400000000000000004CFF60000
EF40000000000000000009FF4000
EF40000000000000000000AFD000
EF400000000000000000001EF700
EF4000000000000000000009FC00
EF4000000000000000000004FF10
EF4000000000000000000001FF40
EF4000000000000000000000EF50
EF4000000000000000000000DF60
EF4000000000000000000000DF60
EF4000000000000000000000FF50
EF4000000000000000000001FF30
EF4000000000000000000005FF10
EF4000000000000000000009FC00
EF400000000000000000002EF700
EF40000000000000000000BFE100
EF4000000000000000000AFF5000
EF400000000000000004CFF70000
EF4000000000011358DFFE600000
EFFFFFFFFFFFFFFFFFFE81000000
EFFFFFFFFFFFFEDCB84000000000
ENDCHAR
STARTCHAR e
ENCODING 101
SWIDTH 910 0
DWIDTH 33 0
BBX 29 24 2 0
BITMAP
00000000048BDEFEDC952000000000
00000028EFFFFFFFFFFFFA30000000
000006EFFC842101237AFFF9000000
0001BFFB40000000000018FFC10000
000BFF60000000000000003DFB0000
008FF4000000000000000002DF8000
03FF600000000000000000003FE100
0BFC000000000000000000000AF800
1FF50000000000000000000004FC00
5FE00000000000000000000000FF10
8FB00000000000000000000000DF30
9FFFFFFFFFFFFFFFFFFFFFFFFFFF50
9FFFFFFFFFFFFFFFFFFFFFFFFFFF60
8FB000000000000000000000000000
6FE000000000000000000000000000
2FF400000000000000000000000000
0CFA00000000000000000000000000
04FF50000000000000000000000000
009FE3000000000000000000000000
001BFE600000000000000000000000
0000BFFC5100000000000000496000
000006EFFEA75211012358BEFF6000
00000017CFFFFFFFFFFFFFFFFF6000
000000000369CDEFFFEDCB97520000
ENDCHAR
STARTCHAR f
ENCODING 102
SWIDTH 817 0
DWIDTH 29 0
BBX 24 24 4 0
BITMAP
00000279CDEFFFFFFFFFFFF4
0004CFFFFFFFFFFFFFFFFFF4
00AFFFB74211000000000000
09FFA2000000000000000000
3FF800000000000000000000
9FD000000000000000000000
CF8000000000000000000000
EF5000000000000000000000
EF4000000000000000000000
EF4000000000000000000000
EF4000000000000000000000
EFFFFFFFFFFFFFFFFFFFFFD0
EFFFFFFFFFFFFFFFFFFFFFD0
EF4000000000000000000000
EF4000000000000000000000
EF4000000000000000000000
EF4000000000000000000000
EF4000000000000000000000
EF4000000000000000000000
EF4000000000000000000000
EF4000000000000000000000
EF4000000000000000000000
EF4000000000000000000000
EF4000000000000000000000
ENDCHAR
STARTCHAR g
ENCODING 103
SWIDTH 910 0
DWIDTH 33 0
BBX 28 24 2 0
BITMAP
000000000158BDEFFEEDA8520000
00000006CFFFFFFFFFFFFFFFD840
000005DFFFB85321012369DFFFF4
0001AFFD61000000000000039EF4
000BFF7000000000000000000293
009FE40000000000000000000000
04FF500000000000000000000000
0BFB000000000000000000000000
2FF4000000000000000000000000
5FE0000000000000000000000000
8FC0000000000000000000000000
9FA0000000000000000000000000
9FA0000000000003FFFFFFFFFFFC
8FC0000000000003FFFFFFFFFFFC
6FE00000000000000000000006FC
2FF50000000000000000000006FC
0CFC0000000000000000000006FC
04FF6000000000000000000006FC
009FF600000000000000000006FC
001BFF81000000000000000006FC
0000AFFE710000000000000006FC
000005DFFFB853210012357ACFFC
00000006BFFFFFFFFFFFFFFFFD94
000000000258BDEEFEEDCA852000
ENDCHAR
STARTCHAR h
ENCODING 104
SWIDTH 949 0
DWIDTH 34 0
BBX 27 24 4 0
BITMAP
EF4000000000000000000002FF10
EF4000000000000000000002FF10
EF4000000000000000000002FF10
EF4000000000000000000002FF10
EF4000000000000000000002FF10
EF4000000000000000000002FF10
EF4000000000000000000002FF10
EF4000000000000000000002FF10
EF4000000000000000000002FF10
EF4000000000000000000002FF10
EFFFFFFFFFFFFFFFFFFFFFFFFF10
EFFFFFFFFFFFFFFFFFFFFFFFFF10
EF4000000000000000000002FF10
EF4000000000000000000002FF10
EF4000000000000000000002FF10
EF4000000000000000000002FF10
EF4000000000000000000002FF10
EF4000000000000000000002FF10
EF4000000000000000000002FF10
EF4000000000000000000002FF10
EF4000000000000000000002FF10
EF4000000000000000000002FF10
EF4000000000000000000002FF10
EF4000000000000000000002FF10
ENDCHAR
STARTCHAR i
ENCODING 105
SWIDTH 287 0
DWIDTH 10 0
BBX 3 24 4 0
BITMAP
EF40
EF40
EF40
EF40
EF40
EF40
EF40
EF40
EF40
EF40
EF40
EF40
EF40
EF40
EF40
EF40
EF40
EF40
EF40
EF40
EF40
EF40
EF40
EF40
ENDCHAR
STARTCHAR j
ENCODING 106
SWIDTH 590 0
DWIDTH 21 0
BBX 18 24 0 0
BITMAP
000000000000000DF5
000000000000000DF5
000000000000000DF5
000000000000000DF5
000000000000000DF5
000000000000000DF5
000000000000000DF5
000000000000000DF5
000000000000000DF5
000000000000000DF5
000000000000000DF5
000000000000000DF5
000000000000000DF5
000000000000000DF5
000000000000000DF5
000000000000000DF5
000000000000000EF4
000000000000001FF3
000000000000006FE0
00000000000001DF90
0000000000002CFE10
DA7431000149EFE300
FFFFFFFFFFFFFB2000
258ACEEFEDB8300000
ENDCHAR
STARTCHAR k
ENCODING 107
SWIDTH 867 0
DWIDTH 31 0
BBX 25 24 4 0
BITMAP
EF4000000000000000000DF600
EF4000000000000000001FF300
EF4000000000000000006FE000
EF400000000000000000DF8000
EF400000000000000007FF2000
EF40000000000000003FF70000
EF4000000000000003EFA00000
EF400000000000006EFB100000
EF4000000000002BFF80000000
EF40000000004AFFD400000000
EF40001246AEFFC50000000000
EFFFFFFFFFFF93000000000000
EFFFFFFFFFFFFC840000000000
EF4000012469DFFFD600000000
EF4000000000028DFFD4000000
EF400000000000006EFF700000
EF4000000000000001AFF90000
EF400000000000000007FF7000
EF4000000000000000008FF300
EF4000000000000000000CFB00
EF40000000000000000004FF30
EF40000000000000000000DF80
EF400000000000000000008FB0
EF400000000000000000006FE0
ENDCHAR
STARTCHAR l
ENCODING 108
SWIDTH 709 0
DWIDTH 26 0
BBX 22 24 4 0
BITMAP
EF40000000000000000000
EF40000000000000000000
EF40000000000000000000
EF40000000000000000000
EF40000000000000000000
EF40000000000000000000
EF40000000000000000000
EF40000000000000000000
EF40000000000000000000
EF40000000000000000000
EF40000000000000000000
EF40000000000000000000
EF40000000000000000000
EF40000000000000000000
EF40000000000000000000
EF40000000000000000000
EF40000000000000000000
DF50000000000000000000
BF80000000000000000000
8FD0000000000000000000
2FFA100000000000000000
07FFD84210000000000000
006EFFFFFFFFFFFFFFFFF3
000159CDEFFFFFFFFFFFF3
ENDCHAR
STARTCHAR m
ENCODING 109
SWIDTH 1246 0
DWIDTH 45 0
BBX 37 24 4 0
BITMAP
EF4000028CEFEC710000000038BEFED9400000
EF4003BFFFFFFFFE6000004CFFFFFFFFFB1000
EF408FFC731025BFF7001AFFD8310148EFD100
EF6CFD5000000007FF43DFD4000000002DFA00
EFFFA10000000000AFEFF8000000000003FF30
EFF70000000000003FFE50000000000000BF90
EF800000000000000EF7000000000000007FC0
EF400000000000000CF7000000000000005FD0
EF400000000000000BF7000000000000004FE0
EF400000000000000BF7000000000000004FE0
EF400000000000000BF7000000000000004FE0
EF400000000000000BF7000000000000004FE0
EF400000000000000BF7000000000000004FE0
EF400000000000000BF7000000000000004FE0
EF400000000000000BF7000000000000004FE0
EF400000000000000BF7000000000000004FE0
EF400000000000000BF7000000000000004FE0
EF400000000000000BF7000000000000004FE0
EF400000000000000BF7000000000000004FE0
EF400000000000000BF7000000000000004FE0
EF400000000000000BF7000000000000004FE0
EF400000000000000BF7000000000000004FE0
EF400000000000000BF7000000000000004FE0
EF400000000000000BF7000000000000004FE0
ENDCHAR
STARTCHAR n
ENCODING 110
SWIDTH 933 0
DWIDTH 34 0
BBX 26 24 4 0
BITMAP
EF4000000027ACEFFEC9400000
EF4000028CFFFFFFFFFFFD5000
EF40029FFFD852100137CFF800
EF419FFE82000000000007FF50
EFAEFD60000000000000009FD0
EFFF8100000000000000001FF4
EFD30000000000000000000CF7
EF400000000000000000000AF9
EF4000000000000000000009FA
EF4000000000000000000008FA
EF4000000000000000000008FA
EF4000000000000000000008FA
EF4000000000000000000008FA
EF4000000000000000000008FA
EF4000000000000000000008FA
EF4000000000000000000008FA
EF4000000000000000000008FA
EF4000000000000000000008FA
EF4000000000000000000008FA
EF4000000000000000000008FA
EF4000000000000000000008FA
EF4000000000000000000008FA
EF4000000000000000000008FA
EF4000000000000000000008FA
ENDCHAR
STARTCHAR o
ENCODING 111
SWIDTH 983 0
DWIDTH 35 0
BBX 31 24 2 0
BITMAP
00000000037ACEEFEEDB851000000000
00000028DFFFFFFFFFFFFFFB50000000
000008FFFD96321011257BFFFB300000
0002CFFA4000000000000017EFF50000
001DFE4000000000000000001AFF6000
00BFE2000000000000000000009FE200
05FF40000000000000000000000CFB00
0CFA000000000000000000000003FF40
2FF4000000000000000000000000CF90
6FE00000000000000000000000008FC0
8FC00000000000000000000000005FE0
9FA00000000000000000000000004FF0
9FA00000000000000000000000004FF0
8FC00000000000000000000000005FE0
6FE00000000000000000000000008FC0
2FF4000000000000000000000000CF90
0CF9000000000000000000000003FF40
05FF30000000000000000000000CFB00
00AFD2000000000000000000009FE200
001DFE4000000000000000001AFF6000
0001CFFA3000000000000016EFF50000
000018FFFD96321011247BFFFC300000
00000028DFFFFFFFFFFFFFFB50000000
000000000379CDEFEEDB851000000000
ENDCHAR
STARTCHAR p
ENCODING 112
SWIDTH 818 0
DWIDTH 29 0
BBX 24 24 4 0
BITMAP
EFFFFFFFFFFFFFEDB9500000
EFFFFFFFFFFFFFFFFFFE7000
EF4000000000011247CFFB10
EF400000000000000005EF90
EF4000000000000000006FF1
EF4000000000000000000EF6
EF4000000000000000000BF8
EF4000000000000000000AF9
EF4000000000000000000BF8
EF4000000000000000000EF6
EF4000000000000000006FF1
EF400000000000000005FF80
EF4000000000000136BFFB10
EFFFFFFFFFFFFFFFFFFE7000
EFFFFFFFFFFFFFEDB9510000
EF4000000000000000000000
EF4000000000000000000000
EF4000000000000000000000
EF4000000000000000000000
EF4000000000000000000000
EF4000000000000000000000
EF4000000000000000000000
EF4000000000000000000000
EF4000000000000000000000
ENDCHAR
STARTCHAR q
ENCODING 113
SWIDTH 983 0
DWIDTH 35 0
BBX 33 24 2 0
BITMAP
00000000037ACEEFEDDB85100000000000
00000028DFFFFFFFFFFFFFFA5000000000
000008FFFD96321011257BFFFB30000000
0002CFFA4000000000000017EFF5000000
001DFE4000000000000000001AFF600000
00BFE2000000000000000000009FE20000
05FF40000000000000000000000CFB0000
0CFA000000000000000000000003FF4000
2FF4000000000000000000000000CF9000
6FE00000000000000000000000008FC000
8FC00000000000000000000000005FE000
9FA00000000000000000000000004FF000
9FA00000000000000000000000004FF000
8FC00000000000000000000000005FE000
6FE00000000000000000000000008FC000
2FF4000000000000000000000000CF9000
0CF9000000000000000000000003FF4000
05FF30000000000000000000000CFB0000
00AFD2000000000000000000009FF20000
001DFE4000000000000000001AFF600000
0001CFFA3000000000000016EFF6000000
000018FFFD96321011247BFFFFFFC96410
00000028DFFFFFFFFFFFFFFB7ADFFFFFD0
000000000379CDEFFEDB8510000147AD70
ENDCHAR
STARTCHAR r
ENCODING 114
SWIDTH 609 0
DWIDTH 22 0
BBX 18 24 4 0
BITMAP
EF400000037ADEFEDB
EF400005CFFFFFFFFE
EF4004DFFC74210136
EF408FFA3000000000
EF5AFD300000000000
EFEFA1000000000000
EFF900000000000000
EF9000000000000000
EF4000000000000000
EF4000000000000000
EF4000000000000000
EF4000000000000000
EF4000000000000000
EF4000000000000000
EF4000000000000000
EF4000000000000000
EF4000000000000000
EF4000000000000000
EF4000000000000000
EF4000000000000000
EF4000000000000000
EF4000000000000000
EF4000000000000000
EF4000000000000000
ENDCHAR
STARTCHAR s
ENCODING 115
SWIDTH 787 0
DWIDTH 28 0
BBX 24 24 2 0
BITMAP
00000269BDEFFEECB9753000
0004CFFFFFFFFFFFFFFFF900
008FFEA63210012369DFF900
06FF91000000000000028800
0DF900000000000000000000
1FF400000000000000000000
0FF400000000000000000000
0BFC10000000000000000000
02EFD5000000000000000000
003CFFD84000000000000000
00006CFFFEB7300000000000
00000027BFFFFEB730000000
000000000047BEFFFD820000
0000000000000037CFFF9100
0000000000000000028EFD30
00000000000000000002CFD1
000000000000000000001EF6
000000000000000000000BF8
000000000000000000000DF8
000000000000000000005FF4
0B610000000000000007FFB0
0EFFC864211001246AEFFB10
0EFFFFFFFFFFFFFFFFFC6000
01368ACDEEFFFEDB96200000
ENDCHAR
STARTCHAR t
ENCODING 116
SWIDTH 708 0
DWIDTH 26 0
BBX 25 24 0 0
BITMAP
5FFFFFFFFFFFFFFFFFFFFFFFD0
5FFFFFFFFFFFFFFFFFFFFFFFD0
000000000005FD000000000000
000000000005FD000000000000
000000000005FD000000000000
000000000005FD000000000000
000000000005FD000000000000
000000000005FD000000000000
000000000005FD000000000000
000000000005FD000000000000
000000000005FD000000000000
000000000005FD000000000000
000000000005FD000000000000
000000000005FD000000000000
000000000005FD000000000000
000000000005FD000000000000
000000000005FD000000000000
000000000005FD000000000000
000000000005FD000000000000
000000000005FD000000000000
000000000005FD000000000000
000000000005FD000000000000
000000000005FD000000000000
000000000005FD000000000000
ENDCHAR
STARTCHAR u
ENCODING 117
SWIDTH 931 0
DWIDTH 34 0
BBX 27 24 3 0
BITMAP
1FF300000000000000000000CF70
1FF300000000000000000000CF70
1FF300000000000000000000CF70
1FF300000000000000000000CF70
1FF300000000000000000000CF70
1FF300000000000000000000CF70
1FF300000000000000000000CF70
1FF300000000000000000000CF70
1FF300000000000000000000CF70
1FF300000000000000000000CF70
1FF300000000000000000000CF70
1FF300000000000000000000CF70
1FF300000000000000000000CF70
1FF300000000000000000000CF70
1FF300000000000000000000CF70
1FF300000000000000000000CF70
0FF400000000000000000000CF70
0DF600000000000000000008FF70
0AFA000000000000000003CFFF70
04FF2000000000000002AFFBDF70
00AFD2000000000015BFFD50CF70
001CFF952101146BFFFD6000CF70
00008EFFFFFFFFFFEA500000CF70
0000016ADEFEEC9510000000CF70
ENDCHAR
STARTCHAR v
ENCODING 118
SWIDTH 817 0
DWIDTH 29 0
BBX 28 24 1 0
BITMAP
CFA0000000000000000000003FF3
4FF300000000000000000000BFB0
0CFA00000000000000000003FF30
04FF3000000000000000000BFB00
00CFA000000000000000003FF300
004FF30000000000000000BFA000
000BFA0000000000000004FF3000
0004FF300000000000000BFA0000
0000BFA00000000000004FF30000
00004FF3000000000000BFA00000
00000BFB000000000004FF200000
000004FF30000000000BFA000000
000000BFB0000000004FF2000000
0000004FF300000000BFA0000000
0000000BFB00000004FF20000000
00000004FF3000000BF900000000
00000000BFB000004FF200000000
000000004FF30000BF9000000000
000000000BFB0004FF2000000000
0000000003FF300CF90000000000
0000000000BFB04FF20000000000
00000000003FF4CF900000000000
00000000000BFDFF200000000000
000000000003FFF8000000000000
ENDCHAR
STARTCHAR w
ENCODING 119
SWIDTH 1266 0
DWIDTH 46 0
BBX 44 24 1 0
BITMAP
7FE10000000000000000DFF700000000000000006FF1
1FF60000000000000004FFFD0000000000000000CFA0
0AFC000000000000000AFDFF3000000000000003FF40
04FF300000000000001FF5CF9000000000000009FC00
00DF900000000000006FE06FE10000000000001EF600
006FE1000000000000CF801EF60000000000006FE100
001EF6000000000003FF2009FC000000000000CF9000
0009FC000000000009FC0003FF300000000003FF3000
0003FF30000000001EF60000CF800000000009FC0000
0000CF90000000006FE100006FE0000000001EF60000
00006FE100000000BF9000001FF5000000006FE10000
00001EF600000002FF3000000AFB00000000CF900000
000009FC00000008FC00000004FF20000003FF300000
000003FF3000000EF600000000DF70000009FC000000
000000CF9000005FF1000000007FD000001EF6000000
0000006FE10000AFA0000000001FF400006FE1000000
0000001EF60001FF40000000000AFA0000CF90000000
00000009FC0007FD000000000004FF1003FF20000000
00000002FF300DF7000000000000DF6009FB00000000
00000000BF904FF10000000000008FC01EF500000000
000000005FE19FA00000000000002FF36FE000000000
000000000EF7EF500000000000000BF9CF8000000000
0000000008FFFD0000000000000005FFFF2000000000
0000000002FFF80000000000000000EFFB0000000000
ENDCHAR
STARTCHAR x
ENCODING 120
SWIDTH 821 0
DWIDTH 30 0
BBX 27 24 1 0
BITMAP
05FF7000000000000000001CFD10
005FF60000000000000001BFD200
0006FF600000000000000BFD2000
00007FF5000000000000AFE20000
000007FF40000000000AFE300000
0000008FF4000000009FE3000000
00000008FE30000009FE30000000
000000009FE300008FF400000000
0000000009FE3008FF4000000000
0000000000AFE27FF50000000000
00000000000AFEFF500000000000
000000000000CFF7000000000000
000000000005FFFD200000000000
00000000005FF8CFD10000000000
0000000004FF801DFC1000000000
000000004FF80002DFC100000000
00000003EF9000002DFC10000000
0000003EF900000002DFB0000000
000003EFA0000000002EFB000000
00002EFA000000000003EFA00000
0002DFB00000000000003EFA0000
002DFB1000000000000003EF9000
01DFC100000000000000004EF800
1CFC10000000000000000004FF80
ENDCHAR
STARTCHAR y
ENCODING 121
SWIDTH 911 0
DWIDTH 33 0
BBX 26 24 3 0
BITMAP
CF7000000000000000000008FB
CF7000000000000000000008FB
CF7000000000000000000008FB
CF7000000000000000000008FB
CF7000000000000000000008FB
BF7000000000000000000008FB
BF8000000000000000000008FB
9FA000000000000000000009FB
7FD00000000000000000005FFB
4FF3000000000000000003EFFB
0DFA00000000000000004EFDFB
05FF7000000000000007FF78FB
009FF9100000000004CFF608FB
0009FFE962101247DFFC3008FB
00005CFFFFFFFFFFFC600008FB
00000038BDEFEDB730000009FA
00000000000000000000000CF9
00000000000000000000004FF5
0000000000000000000002DFD0
000000000000000000004DFF30
A830000000000000003AFFE500
CFFEB853210012369DFFFC2000
CFFFFFFFFFFFFFFFFFFB500000
1468ABCEEFFFEECA8510000000
ENDCHAR
STARTCHAR z
ENCODING 122
SWIDTH 728 0
DWIDTH 26 0
BBX 22 24 2 0
BITMAP
0EFFFFFFFFFFFFFFFFFFF8
0EFFFFFFFFFFFFFFFFFFF3
000000000000000005FF50
00000000000000003FF700
0000000000000002EF9000
000000000000001DFB0000
00000000000000CFC10000
0000000000000AFD200000
0000000000008FE3000000
000000000006FF40000000
00000000004FF600000000
0000000003EF8000000000
000000002DFA0000000000
00000001CFC00000000000
0000000BFD100000000000
0000009FE2000000000000
000007FF40000000000000
00005FF500000000000000
0003EF7000000000000000
002EF90000000000000000
01DFB00000000000000000
0BFD100000000000000000
6FFFFFFFFFFFFFFFFFFFFD
6FFFFFFFFFFFFFFFFFFFFD
ENDCHAR
STARTCHAR braceleft
ENCODING 123
SWIDTH 386 0
DWIDTH 14 0
BBX 12 28 1 -2
BITMAP
0000007CEFF1
00000BFFFFF1
00005FE51000
0000AF800000
0000CF600000
0000DF500000
0000DF500000
0000DF500000
0000EF400000
0000EF300000
0001FF100000
0005FC000000
015DF5000000
EFFD60000000
EFFD50000000
015DF5000000
0005FC000000
0001FF100000
0000EF300000
0000EF400000
0000DF500000
0000DF500000
0000DF500000
0000CF500000
0000AF800000
00005FE51000
00000BFFFFF1
0000007CEFF1
ENDCHAR
STARTCHAR bar
ENCODING 124
SWIDTH 259 0
DWIDTH 9 0
BBX 3 36 3 -8
BITMAP
6FC0
6FC0
6FC0
6FC0
6FC0
6FC0
6FC0
6FC0
6FC0
6FC0
6FC0
6FC0
6FC0
6FC0
6FC0
6FC0
6FC0
6FC0
6FC0
6FC0
6FC0
6FC0
6FC0
6FC0
6FC0
6FC0
6FC0
6FC0
6FC0
6FC0
6FC0
6FC0
6FC0
6FC0
6FC0
6FC0
ENDCHAR
STARTCHAR braceright
ENCODING 125
SWIDTH 386 0
DWIDTH 14 0
BBX 12 28 1 -2
BITMAP
3FFEC6000000
3FFFFF900000
00016FF30000
00000AF80000
000007FB0000
000006FC0000
000006FC0000
000006FC0000
000006FC0000
000005FD0000
000003FE0000
000000EF3000
0000007FD410
00000007EFFC
00000006DFFC
0000005FD410
000000EF3000
000003FE0000
000005FD0000
000006FC0000
000006FC0000
000006FC0000
000006FC0000
000007FB0000
00000AF80000
00016FF30000
3FFFFF900000
3FFEC6000000
ENDCHAR
STARTCHAR asciitilde
ENCODING 126
SWIDTH 634 0
DWIDTH 23 0
BBX 19 4 2 10
BITMAP
005BEEC9400000000720
0AFFFFFFFEA62114BF20
4FA41137BFFFFFFFF900
35000000015ADFEB5000
ENDCHAR
STARTCHAR nonbreakingspace
ENCODING 160
SWIDTH 375 0
DWIDTH 14 0
BBX 1 1 0 0
BITMAP
00
ENDCHAR
STARTCHAR exclamdown
ENCODING 161
SWIDTH 274 0
DWIDTH 10 0
BBX 4 24 3 0
BITMAP
6FF4
6FF4
6FF4
0000
0000
0000
0CB0
0DB0
0DC0
0ED0
0FD0
0FE0
1FF0
2FF0
2FF1
3FF1
4FF2
4FF3
5FF3
5FF4
6FF4
6FF4
6FF4
6FF4
ENDCHAR
STARTCHAR cent
ENCODING 162
SWIDTH 736 0
DWIDTH 27 0
BBX 24 28 1 -2
BITMAP
0000000000006F7000000000
0000000000006F7000000000
0000000000006F7000000000
0000000026ACEFFDCA610000
0000005CFFFFFFFFFFFFA300
00002BFFEA647F71359DFFA2
0003EFE710006F7000004AFB
002EFC2000006F7000000049
00BFD10000006F7000000000
04FF400000006F7000000000
09FC000000006F7000000000
0EF7000000006F7000000000
1FF4000000006F7000000000
2FF3000000006F7000000000
2FF3000000006F7000000000
1FF4000000006F7000000000
0EF7000000006F7000000000
0AFB000000006F7000000000
04FF300000006F7000000000
00BFD10000006F7000000000
002EFC1000006F7000000038
0003EFE600006F7000003AFB
00002CFFEA647F71248CFFA2
0000006CFFFFFFFFFFFFA400
0000000037ACEFFECA620000
0000000000006F7000000000
0000000000006F7000000000
0000000000006F7000000000
ENDCHAR
STARTCHAR sterling
ENCODING 163
SWIDTH 792 0
DWIDTH 29 0
BBX 25 24 2 0
BITMAP
000000000038BDEFEECA851000
000000003CFFFFFFFFFFFFE000
00000005FFE952100148DFE000
0000003FFA100000000004B000
000000BFB00000000000000000
000002FF300000000000000000
000006FE000000000000000000
000008FB000000000000000000
000009F9000000000000000000
00000AF8000000000000000000
00000AF8000000000000000000
CFFFFFFFFFFFFFFFFFF2000000
CFFFFFFFFFFFFFFFFFF2000000
00000AF8000000000000000000
00000AF8000000000000000000
00000AF8000000000000000000
00000AF8000000000000000000
00000BF7000000000000000000
00000EF5000000000000000000
00006FE1000000000000000000
0005FF70000000000000000000
15AFFFEFEEDB97532100146A50
DFFFFFFFFFFFFFFFFFFFFFFF60
CC963100123579BDDEFFFFFF60
ENDCHAR
STARTCHAR currency
ENCODING 164
SWIDTH 560 0
DWIDTH 20 0
BBX 16 17 2 4
BITMAP
0400000000000040
8F700000000005FA
4EF717CEFD815FF6
04EFEFFFFFFEFF60
005FFD5114BFF800
00AFA0000008FC00
01FE10000000BF40
04F8000000005F70
06F6000000003F80
04F8000000005F70
01FD00000000AF40
009F90000006FC00
005FFB41139FF800
04FFDFFFFFFEFF60
4FF706CEEC714FF6
7F700000000004FA
0300000000000030
ENDCHAR
STARTCHAR yen
ENCODING 165
SWIDTH 811 0
DWIDTH 29 0
BBX 25 24 2 0
BITMAP
6FF3000000000000000001DF90
09FE20000000000000000CFB00
00BFC100000000000000AFD100
001DFA00000000000007FE2000
0002EF8000000000005FF40000
00004FF50000000003EF600000
000006FF300000001DF9000000
0000008FE2000000CFB0000000
0000000BFC10000AFD10000000
00000001CFA0007FE200000000
0CFFFFFFFFF805FFFFFFFFFF00
0CFFFFFFFFFF8EFFFFFFFFFF00
00000000007FFFA00000000000
00000000000AFD100000000000
000000000008FB000000000000
0CFFFFFFFFFFFFFFFFFFFFFF00
0CFFFFFFFFFFFFFFFFFFFFFF00
000000000008FB000000000000
000000000008FB000000000000
000000000008FB000000000000
000000000008FB000000000000
000000000008FB000000000000
000000000008FB000000000000
000000000008FB000000000000
ENDCHAR
STARTCHAR brokenbar
ENCODING 166
SWIDTH 259 0
DWIDTH 9 0
BBX 3 31 3 -6
BITMAP
6FC0
6FC0
6FC0
6FC0
6FC0
6FC0
6FC0
6FC0
6FC0
6FC0
6FC0
6FC0
6FC0
0000
0000
0000
0000
0000
6FC0
6FC0
6FC0
6FC0
6FC0
6FC0
6FC0
6FC0
6FC0
6FC0
6FC0
6FC0
6FC0
ENDCHAR
STARTCHAR section
ENCODING 167
SWIDTH 500 0
DWIDTH 18 0
BBX 14 24 2 0
BITMAP
0004ACEFFFFF20
00AFFFFFFFFF20
06FF7200137C20
0BF80000000000
0AF90000000000
04FF7000000000
007FFD60000000
005EFFFE710000
08FE78EFFE7000
4FD10016DFFD30
AF60000006EFE2
CF600000002DFA
AFD100000006FC
3FFD50000006FA
04DFFC50002DF5
0018EFFD77EF90
000018EFFFE600
00000017EFF600
0000000018FF40
00000000009FA0
00000000007FB0
0B95210138FF60
0CFFFFFFFFF900
016ADEFEC94000
ENDCHAR
STARTCHAR dieresis
ENCODING 168
SWIDTH 527 0
DWIDTH 19 0
BBX 11 3 4 20
BITMAP
5FF40004FF50
5FF40004FF50
5FF40004FF50
ENDCHAR
STARTCHAR copyright
ENCODING 169
SWIDTH 770 0
DWIDTH 28 0
BBX 25 24 1 0
BITMAP
0000000028BEFEDA6100000000
0000003BFFFFFFFFFF91000000
000007FFE9421125AFFE400000
00009FE710000000029FF60000
0008FD30039DEFDB7305EF4000
004FE2008FFFFFFFFF004FE100
00CF4008FF9410148D0007F900
05FA003FF5000000000000DF10
0AF200AF800000000000006F60
0ED000EF200000000000001FA0
1F9002FD000000000000000CD0
3F8003FC000000000000000BE0
3F8002FD000000000000000BE0
1F9000EF100000000000000CD0
0EC000AF800000000000001FA0
0AF2003FF40000000000005F60
05F90008FF9310148D0000CF10
00DF30008FFFFFFFFF0006F900
004FD200039DEFEB83004FE100
0008FD30000000000005EF5000
0000AFE710000000029FF60000
000007FFE9420125AFFE500000
0000003BFFFFFFFFFF91000000
0000000038BEFEDA6100000000
ENDCHAR
STARTCHAR ordfeminine
ENCODING 170
SWIDTH 497 0
DWIDTH 18 0
BBX 15 16 1 8
BITMAP
0147BDEFEDC83000
09FFFFFFFFFFF900
09A631001146DF70
0000000000001FC0
00001579BCDEFFE0
006CFFFFFFFFFFE0
1CFFC97532110FE0
AFA2000000000FE0
DF20000000003FE0
BFB41001258DFFE0
3EFFFFFFFFFFBFE0
017BEFFFEC830FE0
0000000000000000
0000000000000000
6FFFFFFFFFFFFFE0
6FFFFFFFFFFFFFE0
ENDCHAR
STARTCHAR guillemotleft
ENCODING 171
SWIDTH 440 0
DWIDTH 16 0
BBX 14 13 1 6
BITMAP
00002B30000880
0001CFA0006FF3
000BFD1004FF60
009FE2003EF800
08FF3002EFA000
5FF5000DFC0000
8FA0001FF20000
5FF5000DFC0000
08FF3002EFA000
009FE2003EF800
000BFD1004FF60
0001CFA0006FF3
00002B30000880
ENDCHAR
STARTCHAR logicalnot
ENCODING 172
SWIDTH 634 0
DWIDTH 23 0
BBX 17 8 3 8
BITMAP
FFFFFFFFFFFFFFFFC0
FFFFFFFFFFFFFFFFC0
000000000000001FC0
000000000000001FC0
000000000000001FC0
000000000000001FC0
000000000000001FC0
000000000000001FC0
ENDCHAR
STARTCHAR uni00AD
ENCODING 173
SWIDTH 540 0
DWIDTH 19 0
BBX 15 2 2 11
BITMAP
2FFFFFFFFFFFFF80
2FFFFFFFFFFFFF80
ENDCHAR
STARTCHAR registered
ENCODING 174
SWIDTH 600 0
DWIDTH 22 0
BBX 18 18 2 6
BITMAP
000005ADFEC8200000
0003DC620149E91000
005F700000002CC100
03F60000000001CB00
0D900BFFFEC5002E60
5F200BD002AF6008E0
AB000BD0001FB002F4
E7000BD0001FA000E8
F5000BD002AF5000C9
F5000BFFFFF50000C9
E7000BD004F50000D8
BB000BD000AD1002F4
6F200BD0002F9008E0
0D900BD00008F32E60
03F60000000001CB00
005F700000002CC100
0003DC620149E91000
000005ADFEC8200000
ENDCHAR
STARTCHAR macron
ENCODING 175
SWIDTH 527 0
DWIDTH 19 0
BBX 11 2 4 21
BITMAP
5FFFFFFFFF50
5FFFFFFFFF50
ENDCHAR
STARTCHAR degree
ENCODING 176
SWIDTH 373 0
DWIDTH 13 0
BBX 10 9 2 15
BITMAP
005CFD8100
07FFFFFD10
2FE513BF80
8F50001EE0
AF20000AF1
8F50000DE0
3FE512AF90
07FFFFFD10
005CFE8100
ENDCHAR
STARTCHAR plusminus
ENCODING 177
SWIDTH 634 0
DWIDTH 23 0
BBX 17 20 3 2
BITMAP
00000008F600000000
00000008F600000000
00000008F600000000
00000008F600000000
00000008F600000000
00000008F600000000
00000008F600000000
FFFFFFFFFFFFFFFFC0
FFFFFFFFFFFFFFFFC0
00000008F600000000
00000008F600000000
00000008F600000000
00000008F600000000
00000008F600000000
00000008F600000000
000000000000000000
000000000000000000
000000000000000000
FFFFFFFFFFFFFFFFC0
FFFFFFFFFFFFFFFFC0
ENDCHAR
STARTCHAR twosuperior
ENCODING 178
SWIDTH 511 0
DWIDTH 18 0
BBX 16 15 1 9
BITMAP
147ACEFFEC950000
8FFFFFFFFFFFE500
8B852101237DFF50
0000000000009FE0
0000000000000EF2
0000000000001FF1
0000000000008F90
000000000008FB00
0000000003CF8000
00000002AFD40000
000002AFD6000000
0003AFD600000000
04BFC50000000000
9FFFFFFFFFFFFFF6
BFFFFFFFFFFFFFF6
ENDCHAR
STARTCHAR threesuperior
ENCODING 179
SWIDTH 512 0
DWIDTH 18 0
BBX 16 16 1 8
BITMAP
048BDEFEDC950000
7FFFFFFFFFFFD300
6A632100147DFE10
000000000001CF60
0000000000008F70
000000000003EF30
0000001247BFF600
00000FFFFFC82000
00000FFFFFEB6100
00000011247CFD20
0000000000006FC0
0000000000000FF1
0000000000007FE0
A9632100137CFF60
BFFFFFFFFFFFE600
159BDEFFECA61000
ENDCHAR
STARTCHAR acute
ENCODING 180
SWIDTH 527 0
DWIDTH 19 0
BBX 9 5 7 20
BITMAP
0000005C20
00006DFF80
006DFFB500
5DFE820000
4C61000000
ENDCHAR
STARTCHAR micro
ENCODING 181
SWIDTH 705 0
DWIDTH 25 0
BBX 21 24 1 -7
BITMAP
00004FE000000000004FE0
00007FB000000000007FB0
0000AF800000000000AF80
0000DF500000000000DF50
0001FF200000000001FF30
0003FE000000000004FF00
0006FB000000000007FC00
0009F800000000000AF900
000CF500000000000DF600
000FF200000000001FF300
003FE000000000006FF100
006FF10000000003FFD000
009FF7000000003EEFC000
00CFEF30000005EC6FC000
00EF5FE71015BFB13FD000
02FF06FFFFFFF9001FF100
05FC003BEFD920000CF600
08F9000000000000000000
0BF6000000000000000000
0EF4000000000000000000
2FF1000000000000000000
5FD0000000000000000000
8FA0000000000000000000
BF70000000000000000000
ENDCHAR
STARTCHAR paragraph
ENCODING 182
SWIDTH 585 0
DWIDTH 21 0
BBX 15 24 2 0
BITMAP
00005ADEFFFFFFC0
003DFFFFFC000CC0
04EFFFFFFC000CC0
1DFFFFFFFC000CC0
6FFFFFFFFC000CC0
AFFFFFFFFC000CC0
CFFFFFFFFC000CC0
CFFFFFFFFC000CC0
AFFFFFFFFC000CC0
6FFFFFFFFC000CC0
1DFFFFFFFC000CC0
04EFFFFFFC000CC0
003DFFFFFC000CC0
00005ADEFC000CC0
00000000CC000CC0
00000000CC000CC0
00000000CC000CC0
00000000CC000CC0
00000000CC000CC0
00000000CC000CC0
00000000CC000CC0
00000000CC000CC0
00000000CC000CC0
00000000CC000CC0
ENDCHAR
STARTCHAR periodcentered
ENCODING 183
SWIDTH 185 0
DWIDTH 7 0
BBX 4 4 1 10
BITMAP
3FFD
3FFD
3FFD
3FFD
ENDCHAR
STARTCHAR cedilla
ENCODING 184
SWIDTH 527 0
DWIDTH 19 0
BBX 9 7 5 -7
BITMAP
0002F70000
0009F10000
001EFEC600
000101AF60
000002AF80
8FFFFFFF40
8FFFFEB400
ENDCHAR
STARTCHAR onesuperior
ENCODING 185
SWIDTH 261 0
DWIDTH 9 0
BBX 7 15 0 9
BITMAP
148CFF20
AFFFFF20
9B73DF20
0000DF20
0000DF20
0000DF20
0000DF20
0000DF20
0000DF20
0000DF20
0000DF20
0000DF20
0000DF20
0000DF20
0000DF20
ENDCHAR
STARTCHAR ordmasculine
ENCODING 186
SWIDTH 520 0
DWIDTH 19 0
BBX 17 16 1 8
BITMAP
00016ADEFEC9400000
006EFFFFFFFFFD3000
08FFA5310236CFF400
4FE40000000007FE10
AF600000000000AF60
DF1000000000005F90
DF1000000000005F90
AF600000000000AF60
4FE40000000006FE10
08FFA5310236CFF400
006EFFFFFFFFFD4000
00016ADEFEC9500000
000000000000000000
000000000000000000
1FFFFFFFFFFFFFFC00
1FFFFFFFFFFFFFFC00
ENDCHAR
STARTCHAR guillemotright
ENCODING 187
SWIDTH 440 0
DWIDTH 16 0
BBX 14 13 1 6
BITMAP
09600004B10000
4FF4000CFB0000
08FE3002EF9000
00AFE2003EF800
000BFD1005FF60
0001DFB0007FF4
00004FF0000CF7
0001DFB0007FF4
000BFD1005FF60
00AFE2003EF800
08FE3002EF9000
4FF4000CFB0000
09600004B10000
ENDCHAR
STARTCHAR onequarter
ENCODING 188
SWIDTH 857 0
DWIDTH 31 0
BBX 30 24 0 0
BITMAP
037BFF7000000000000004FE200000
4FFFFF700000000000002EF4000000
4C848F70000000000001CF70000000
00008F7000000000000AFA00000000
00008F7000000000007FC100000000
00008F700000000004FE2000000000
00008F70000000002EF40000000000
00008F7000000001CF700000000000
00008F700000000AFA000000000000
00008F700000007FC1000000000000
00008F70000004FE20000000000000
00008F7000002EF40000006FFA0000
00008F700001CF70000007FEFA0000
00000000000AFA0000009FB5FA0000
00000000007FC1000009FB14FA0000
0000000004FE200000AFA004FA0000
000000002EF400001BF90004FA0000
00000001DF700001CF800004FA0000
0000000AFA00002CF7000004FA0000
0000007FC100007FFFFFFFFFFFFFF1
000005FE2000008FFFFFFFFFFFFFF1
00002EF40000000000000004FA0000
0001DF700000000000000004FA0000
000BFA000000000000000004FA0000
ENDCHAR
STARTCHAR onehalf
ENCODING 189
SWIDTH 937 0
DWIDTH 34 0
BBX 31 24 0 0
BITMAP
037BFF7000000000000004FE20000000
4FFFFF700000000000002EF400000000
4C848F70000000000001CF7000000000
00008F7000000000000AFA0000000000
00008F7000000000007FC10000000000
00008F700000000004FE200000000000
00008F70000000002EF4000000000000
00008F7000000001CF70000000000000
00008F700000000AFA00000000000000
00008F700000007FC100000000000000
00008F70000004FE2000000000000000
00008F7000002EF400037BDEFEC82000
00008F700001CF70006FFFFFFFFFF700
00000000000AFA00006C8420014AFF50
00000000007FC1000000000000009FB0
0000000004FE20000000000000006FB0
000000002EF40000000000000000AF60
00000001DF700000000000000008FA00
0000000AFA0000000000000002CF9000
0000007FC1000000000000029FD40000
000005FE200000000000029FD6000000
00002EF40000000000029FD600000000
0001DF7000000000006FFFFFFFFFFFD0
000BFA0000000000008FFFFFFFFFFFD0
ENDCHAR
STARTCHAR threequarters
ENCODING 190
SWIDTH 978 0
DWIDTH 35 0
BBX 33 24 1 0
BITMAP
027BDEFEC9500000000000001DF6000000
0EFFFFFFFFFB000000000000BF90000000
0B84210137EF600000000008FC00000000
00000000008F70000000005FD100000000
0000001237ED2000000003EF3000000000
00004FFFFD81000000001DF60000000000
00004FFFFD9200000000BF900000000000
000000136AFF50000008FC000000000000
00000000006FD000005FD1000000000000
00000000001FE00003FF30000000000000
37000000005FA0001DF600000000000000
3FD6210149FC1000BF90000003EFF00000
048CEFFDCA500009FB0000003EEFF00000
000000000000006FD1000004EE3FF00000
00000000000003FF3000005FD20FF00000
0000000000001DF6000006FD200FF00000
000000000000BF9000007FC1000FF00000
000000000009FB000008FC10000FF00000
00000000006FD100009FB100000FF00000
0000000003FF300003FFFFFFFFFFFFFF60
000000001DF6000003FFFFFFFFFFFFFF60
00000000CF90000000000000000FF00000
00000009FB00000000000000000FF00000
0000006FD100000000000000000FF00000
ENDCHAR
STARTCHAR questiondown
ENCODING 191
SWIDTH 568 0
DWIDTH 20 0
BBX 17 24 2 0
BITMAP
0000000000CFE00000
0000000000CFE00000
0000000000CFE00000
000000000000000000
000000000000000000
000000000000000000
00000000004FE00000
00000000004FE00000
00000000004FE00000
000000015AEFE00000
0000029EFFFC700000
00019FFFA510000000
003DFF810000000000
02EFC2000000000000
0CFC10000000000000
3FF300000000000000
6FD000000000000000
7FC000000000000000
5FE100000000000000
1FF700000000000000
09FF60000000001840
00BFFC7310126AFF50
0008FFFFFFFFFFFF50
000016ADEFFECA7300
ENDCHAR
STARTCHAR Agrave
ENCODING 192
SWIDTH 812 0
DWIDTH 29 0
BBX 29 31 0 0
BITMAP
000000000C71000000000000000000
000000005FFE710000000000000000
0000000004AFFE8100000000000000
0000000000017DFE70000000000000
000000000000005B70000000000000
000000000000000000000000000000
000000000000000000000000000000
0000000000000DFF30000000000000
0000000000006FFFB0000000000000
000000000001EF9FF4000000000000
000000000007FE1AFC000000000000
00000000001EF702FF500000000000
00000000008FD0009FC00000000000
0000000002EF60002FF50000000000
0000000009FD000009FD0000000000
000000002FF6000002FF6000000000
00000000AFD00000008FE100000000
00000003FF500000001EF700000000
0000000BFC0000000008FE10000000
0000003FF50000000001EF80000000
000000BFC000000000008FE1000000
000004FF4000000000001EF9000000
00000CFC00000000000007FF200000
00005FFFFFFFFFFFFFFFFFFF900000
0000DFFFFFFFFFFFFFFFFFFFF20000
0006FF30000000000000000DFA0000
000DF9000000000000000005FF3000
007FE2000000000000000000BFB000
01EF800000000000000000003FF400
07FE100000000000000000000AFC00
1EF60000000000000000000002FF50
ENDCHAR
STARTCHAR Aacute
ENCODING 193
SWIDTH 812 0
DWIDTH 29 0
BBX 29 31 0 0
BITMAP
0000000000000000004B4000000000
00000000000000005CFFA000000000
000000000000005CFFC60000000000
0000000000003DFE93000000000000
0000000000002C7100000000000000
000000000000000000000000000000
000000000000000000000000000000
0000000000000DFF30000000000000
0000000000006FFFB0000000000000
000000000001EF9FF4000000000000
000000000007FE1AFC000000000000
00000000001EF702FF500000000000
00000000008FD0009FC00000000000
0000000002EF60002FF50000000000
0000000009FD000009FD0000000000
000000002FF6000002FF6000000000
00000000AFD00000008FE100000000
00000003FF500000001EF700000000
0000000BFC0000000008FE10000000
0000003FF50000000001EF80000000
000000BFC000000000008FE1000000
000004FF4000000000001EF9000000
00000CFC00000000000007FF200000
00005FFFFFFFFFFFFFFFFFFF900000
0000DFFFFFFFFFFFFFFFFFFFF20000
0006FF30000000000000000DFA0000
000DF9000000000000000005FF3000
007FE2000000000000000000BFB000
01EF800000000000000000003FF400
07FE100000000000000000000AFC00
1EF60000000000000000000002FF50
ENDCHAR
STARTCHAR Acircumflex
ENCODING 194
SWIDTH 812 0
DWIDTH 29 0
BBX 29 31 0 0
BITMAP
00000000000005D810000000000000
000000000004CFFFE6000000000000
0000000002BFFC7BFFD50000000000
000000009FFB400029EFC200000000
00000000A92000000017C100000000
000000000000000000000000000000
000000000000000000000000000000
0000000000000DFF30000000000000
0000000000006FFFB0000000000000
000000000001EF9FF4000000000000
000000000007FE1AFC000000000000
00000000001EF702FF500000000000
00000000008FD0009FC00000000000
0000000002EF60002FF50000000000
0000000009FD000009FD0000000000
000000002FF6000002FF6000000000
00000000AFD00000008FE100000000
00000003FF500000001EF700000000
0000000BFC0000000008FE10000000
0000003FF50000000001EF80000000
000000BFC000000000008FE1000000
000004FF4000000000001EF9000000
00000CFC00000000000007FF200000
00005FFFFFFFFFFFFFFFFFFF900000
0000DFFFFFFFFFFFFFFFFFFFF20000
0006FF30000000000000000DFA0000
000DF9000000000000000005FF3000
007FE2000000000000000000BFB000
01EF800000000000000000003FF400
07FE100000000000000000000AFC00
1EF60000000000000000000002FF50
ENDCHAR
STARTCHAR Atilde
ENCODING 195
SWIDTH 812 0
DWIDTH 29 0
BBX 29 30 0 0
BITMAP
0000000001AEE920000DC000000000
000000000CFFFFFA416F9000000000
000000003FB128EFFFFF3000000000
000000007F400017DFD50000000000
000000000000000000000000000000
000000000000000000000000000000
0000000000000DFF30000000000000
0000000000006FFFB0000000000000
000000000001EF9FF4000000000000
000000000007FE1AFC000000000000
00000000001EF702FF500000000000
00000000008FD0009FC00000000000
0000000002EF60002FF50000000000
0000000009FD000009FD0000000000
000000002FF6000002FF6000000000
00000000AFD00000008FE100000000
00000003FF500000001EF700000000
0000000BFC0000000008FE10000000
0000003FF50000000001EF80000000
000000BFC000000000008FE1000000
000004FF4000000000001EF9000000
00000CFC00000000000007FF200000
00005FFFFFFFFFFFFFFFFFFF900000
0000DFFFFFFFFFFFFFFFFFFFF20000
0006FF30000000000000000DFA0000
000DF9000000000000000005FF3000
007FE2000000000000000000BFB000
01EF800000000000000000003FF400
07FE100000000000000000000AFC00
1EF60000000000000000000002FF50
ENDCHAR
STARTCHAR Adieresis
ENCODING 196
SWIDTH 812 0
DWIDTH 29 0
BBX 29 29 0 0
BITMAP
0000000003FF70001FF70000000000
0000000003FF70001FF70000000000
0000000003FF70001FF70000000000
000000000000000000000000000000
000000000000000000000000000000
0000000000000DFF30000000000000
0000000000006FFFB0000000000000
000000000001EF9FF4000000000000
000000000007FE1AFC000000000000
00000000001EF702FF500000000000
00000000008FD0009FC00000000000
0000000002EF60002FF50000000000
0000000009FD000009FD0000000000
000000002FF6000002FF6000000000
00000000AFD00000008FE100000000
00000003FF500000001EF700000000
0000000BFC0000000008FE10000000
0000003FF50000000001EF80000000
000000BFC000000000008FE1000000
000004FF4000000000001EF9000000
00000CFC00000000000007FF200000
00005FFFFFFFFFFFFFFFFFFF900000
0000DFFFFFFFFFFFFFFFFFFFF20000
0006FF30000000000000000DFA0000
000DF9000000000000000005FF3000
007FE2000000000000000000BFB000
01EF800000000000000000003FF400
07FE100000000000000000000AFC00
1EF60000000000000000000002FF50
ENDCHAR
STARTCHAR Aring
ENCODING 197
SWIDTH 812 0
DWIDTH 29 0
BBX 29 33 0 0
BITMAP
0000000000029DEDB5000000000000
00000000004FFFFFFF800000000000
0000000000BF82015EF10000000000
0000000000EE00000AF40000000000
0000000000CF82015EF10000000000
00000000004FFFFFFF800000000000
0000000000029DFDB5000000000000
000000000000000000000000000000
000000000000000000000000000000
0000000000000DFF30000000000000
0000000000006FFFB0000000000000
000000000001EF9FF4000000000000
000000000007FE1AFC000000000000
00000000001EF702FF500000000000
00000000008FD0009FC00000000000
0000000002EF60002FF50000000000
0000000009FD000009FD0000000000
000000002FF6000002FF6000000000
00000000AFD00000008FE100000000
00000003FF500000001EF700000000
0000000BFC0000000008FE10000000
0000003FF50000000001EF80000000
000000BFC000000000008FE1000000
000004FF4000000000001EF9000000
00000CFC00000000000007FF200000
00005FFFFFFFFFFFFFFFFFFF900000
0000DFFFFFFFFFFFFFFFFFFFF20000
0006FF30000000000000000DFA0000
000DF9000000000000000005FF3000
007FE2000000000000000000BFB000
01EF800000000000000000003FF400
07FE100000000000000000000AFC00
1EF60000000000000000000002FF50
ENDCHAR
STARTCHAR AE
ENCODING 198
SWIDTH 1172 0
DWIDTH 42 0
BBX 40 24 0 0
BITMAP
0000000000000001EFFFFFFFFFFFFFFFFFFFFFF4
000000000000000AFFFFFFFFFFFFFFFFFFFFFFF4
000000000000005FF20DF8000000000000000000
00000000000002EF700DF8000000000000000000
0000000000000BFC000DF8000000000000000000
0000000000006FF3000DF8000000000000000000
000000000002EF80000DF8000000000000000000
00000000000BFD10000DF8000000000000000000
00000000007FF400000DF8000000000000000000
0000000002FF9000000DF8000000000000000000
000000000CFD1000000DFFFFFFFFFFFFFFFFFF50
000000007FF50000000DFFFFFFFFFFFFFFFFFF50
00000003FFA00000000DF8000000000000000000
0000000CFE100000000DF8000000000000000000
0000008FF5000000000DF8000000000000000000
000003FFB0000000000DF8000000000000000000
00001DFFFFFFFFFFFFFFF8000000000000000000
00009FFFFFFFFFFFFFFFF8000000000000000000
0004FFA000000000000DF8000000000000000000
001DFE1000000000000DF8000000000000000000
009FF50000000000000DF8000000000000000000
04FF900000000000000DF8000000000000000000
1EFD100000000000000DFFFFFFFFFFFFFFFFFFF8
AFF4000000000000000DFFFFFFFFFFFFFFFFFFF8
ENDCHAR
STARTCHAR Ccedilla
ENCODING 199
SWIDTH 869 0
DWIDTH 31 0
BBX 27 31 2 -7
BITMAP
000000000369CDEFFEDB97400000
00000017DFFFFFFFFFFFFFFFB620
000006EFFEA7421102348BEFFFC0
0001BFFB5000000000000016CFC0
001CFE50000000000000000004A0
00AFE30000000000000000000000
04FF400000000000000000000000
0BFA000000000000000000000000
2FF4000000000000000000000000
5FE0000000000000000000000000
8FC0000000000000000000000000
9FA0000000000000000000000000
9FA0000000000000000000000000
8FC0000000000000000000000000
5FE0000000000000000000000000
2FF4000000000000000000000000
0BFA000000000000000000000000
04FF400000000000000000000000
00AFE30000000000000000000000
001CFE50000000000000000004A0
0001AFFB4000000000000015BFC0
000006EFFE97421001347BEFFFC0
00000017DFFFFFFFFFFFFFFFB720
000000000269BDFFFEDC97410000
00000000000004F6000000000000
00000000000009F2000000000000
0000000000000DFED80000000000
00000000000001017F8000000000
00000000000000018FB000000000
00000000005FFFFFFF6000000000
00000000005FFFFEB60000000000
ENDCHAR
STARTCHAR Egrave
ENCODING 200
SWIDTH 754 0
DWIDTH 27 0
BBX 21 31 4 0
BITMAP
0000992000000000000000
0002FFF920000000000000
000028EFFA200000000000
00000005CFFA1000000000
00000000039A0000000000
0000000000000000000000
0000000000000000000000
EFFFFFFFFFFFFFFFFFFF30
EFFFFFFFFFFFFFFFFFFF30
EF70000000000000000000
EF70000000000000000000
EF70000000000000000000
EF70000000000000000000
EF70000000000000000000
EF70000000000000000000
EF70000000000000000000
EF70000000000000000000
EFFFFFFFFFFFFFFFFFF400
EFFFFFFFFFFFFFFFFFF400
EF70000000000000000000
EF70000000000000000000
EF70000000000000000000
EF70000000000000000000
EF70000000000000000000
EF70000000000000000000
EF70000000000000000000
EF70000000000000000000
EF70000000000000000000
EF70000000000000000000
EFFFFFFFFFFFFFFFFFFF70
EFFFFFFFFFFFFFFFFFFF70
ENDCHAR
STARTCHAR Eacute
ENCODING 201
SWIDTH 754 0
DWIDTH 27 0
BBX 21 31 4 0
BITMAP
0000000000000298000000
000000000003AFFE100000
0000000003AFFD71000000
00000001BFFB5000000000
00000000B8200000000000
0000000000000000000000
0000000000000000000000
EFFFFFFFFFFFFFFFFFFF30
EFFFFFFFFFFFFFFFFFFF30
EF70000000000000000000
EF70000000000000000000
EF70000000000000000000
EF70000000000000000000
EF70000000000000000000
EF70000000000000000000
EF70000000000000000000
EF70000000000000000000
EFFFFFFFFFFFFFFFFFF400
EFFFFFFFFFFFFFFFFFF400
EF70000000000000000000
EF70000000000000000000
EF70000000000000000000
EF70000000000000000000
EF70000000000000000000
EF70000000000000000000
EF70000000000000000000
EF70000000000000000000
EF70000000000000000000
EF70000000000000000000
EFFFFFFFFFFFFFFFFFFF70
EFFFFFFFFFFFFFFFFFFF70
ENDCHAR
STARTCHAR Ecircumflex
ENCODING 202
SWIDTH 754 0
DWIDTH 27 0
BBX 21 31 4 0
BITMAP
000000003BA20000000000
0000002AFFFF9100000000
000018FFE89EFE71000000
0006EFC600017DFD500000
0007B4000000005B500000
0000000000000000000000
0000000000000000000000
EFFFFFFFFFFFFFFFFFFF30
EFFFFFFFFFFFFFFFFFFF30
EF70000000000000000000
EF70000000000000000000
EF70000000000000000000
EF70000000000000000000
EF70000000000000000000
EF70000000000000000000
EF70000000000000000000
EF70000000000000000000
EFFFFFFFFFFFFFFFFFF400
EFFFFFFFFFFFFFFFFFF400
EF70000000000000000000
EF70000000000000000000
EF70000000000000000000
EF70000000000000000000
EF70000000000000000000
EF70000000000000000000
EF70000000000000000000
EF70000000000000000000
EF70000000000000000000
EF70000000000000000000
EFFFFFFFFFFFFFFFFFFF70
EFFFFFFFFFFFFFFFFFFF70
ENDCHAR
STARTCHAR Edieresis
ENCODING 203
SWIDTH 754 0
DWIDTH 27 0
BBX 21 29 4 0
BITMAP
00000DFB0000CFC0000000
00000DFB0000CFC0000000
00000DFB0000CFC0000000
0000000000000000000000
0000000000000000000000
EFFFFFFFFFFFFFFFFFFF30
EFFFFFFFFFFFFFFFFFFF30
EF70000000000000000000
EF70000000000000000000
EF70000000000000000000
EF70000000000000000000
EF70000000000000000000
EF70000000000000000000
EF70000000000000000000
EF70000000000000000000
EFFFFFFFFFFFFFFFFFF400
EFFFFFFFFFFFFFFFFFF400
EF70000000000000000000
EF70000000000000000000
EF70000000000000000000
EF70000000000000000000
EF70000000000000000000
EF70000000000000000000
EF70000000000000000000
EF70000000000000000000
EF70000000000000000000
EF70000000000000000000
EFFFFFFFFFFFFFFFFFFF70
EFFFFFFFFFFFFFFFFFFF70
ENDCHAR
STARTCHAR Igrave
ENCODING 204
SWIDTH 287 0
DWIDTH 10 0
BBX 9 31 -1 0
BITMAP
6A30000000
DFFB300000
17DFFB4000
0004AFFC20
0000028C10
0000000000
0000000000
00000EF400
00000EF400
00000EF400
00000EF400
00000EF400
00000EF400
00000EF400
00000EF400
00000EF400
00000EF400
00000EF400
00000EF400
00000EF400
00000EF400
00000EF400
00000EF400
00000EF400
00000EF400
00000EF400
00000EF400
00000EF400
00000EF400
00000EF400
00000EF400
ENDCHAR
STARTCHAR Iacute
ENCODING 205
SWIDTH 287 0
DWIDTH 10 0
BBX 9 31 3 0
BITMAP
0000018A00
00018EFF30
029EFE9300
9FFC610000
9A40000000
0000000000
0000000000
0EF4000000
0EF4000000
0EF4000000
0EF4000000
0EF4000000
0EF4000000
0EF4000000
0EF4000000
0EF4000000
0EF4000000
0EF4000000
0EF4000000
0EF4000000
0EF4000000
0EF4000000
0EF4000000
0EF4000000
0EF4000000
0EF4000000
0EF4000000
0EF4000000
0EF4000000
0EF4000000
0EF4000000
ENDCHAR
STARTCHAR Icircumflex
ENCODING 206
SWIDTH 287 0
DWIDTH 10 0
BBX 14 31 -2 0
BITMAP
000002AC400000
00018FFFFB3000
006EFF97DFF910
4DFE710005CFE7
3C6000000003A8
00000000000000
00000000000000
000000EF400000
000000EF400000
000000EF400000
000000EF400000
000000EF400000
000000EF400000
000000EF400000
000000EF400000
000000EF400000
000000EF400000
000000EF400000
000000EF400000
000000EF400000
000000EF400000
000000EF400000
000000EF400000
000000EF400000
000000EF400000
000000EF400000
000000EF400000
000000EF400000
000000EF400000
000000EF400000
000000EF400000
ENDCHAR
STARTCHAR Idieresis
ENCODING 207
SWIDTH 287 0
DWIDTH 10 0
BBX 10 29 0 0
BITMAP
AFE00009FF
AFE00009FF
AFE00009FF
0000000000
0000000000
0000EF4000
0000EF4000
0000EF4000
0000EF4000
0000EF4000
0000EF4000
0000EF4000
0000EF4000
0000EF4000
0000EF4000
0000EF4000
0000EF4000
0000EF4000
0000EF4000
0000EF4000
0000EF4000
0000EF4000
0000EF4000
0000EF4000
0000EF4000
0000EF4000
0000EF4000
0000EF4000
0000EF4000
ENDCHAR
STARTCHAR Eth
ENCODING 208
SWIDTH 910 0
DWIDTH 33 0
BBX 31 24 0 0
BITMAP
0000EFFFFFFFFFFEEDCB862000000000
0000EFFFFFFFFFFFFFFFFFFD71000000
0000EF400000000112469DFFFD500000
0000EF400000000000000029FFF70000
0000EF4000000000000000002DFF5000
0000EF40000000000000000001CFE100
0000EF400000000000000000003FF700
0000EF400000000000000000000AFC00
0000EF4000000000000000000005FF10
0000EF4000000000000000000001FF40
0000EF4000000000000000000000FF50
7FFFFFFFFFFFFFFF200000000000DF60
7FFFFFFFFFFFFFFF200000000000DF60
0000EF4000000000000000000000EF50
0000EF4000000000000000000001FF40
0000EF4000000000000000000004FF10
0000EF4000000000000000000009FC00
0000EF400000000000000000001EF600
0000EF40000000000000000000AFE100
0000EF4000000000000000000AFF5000
0000EF400000000000000005DFF70000
0000EF400000000111357AEFFE500000
0000EFFFFFFFFFFFFFFFFFFD71000000
0000EFFFFFFFFFFEEDCB862000000000
ENDCHAR
STARTCHAR Ntilde
ENCODING 209
SWIDTH 936 0
DWIDTH 34 0
BBX 26 30 4 0
BITMAP
000000019EEA30000BF0000000
00000009FFFFFB514FC0000000
0000001FD227EFFFFF50000000
0000004F600016CFD700000000
00000000000000000000000000
00000000000000000000000000
EFD200000000000000000008FA
EFFD20000000000000000008FA
EFFFD2000000000000000008FA
EF7EFD100000000000000008FA
EF43EFD10000000000000008FA
EF403EFD1000000000000008FA
EF4003EFD100000000000008FA
EF40003EFC10000000000008FA
EF400003EFC1000000000008FA
EF4000003EFC100000000008FA
EF40000003EFC10000000008FA
EF400000003EFC1000000008FA
EF4000000003EFC100000008FA
EF40000000004EFC10000008FA
EF400000000004EFC1000008FA
EF4000000000004EFC100008FA
EF40000000000004EFC10008FA
EF400000000000004EFB1008FA
EF4000000000000004EFB108FA
EF40000000000000004EFB18FA
EF400000000000000004EFB9FA
EF4000000000000000004FFFFA
EF40000000000000000004FFFA
EF400000000000000000004FFA
ENDCHAR
STARTCHAR Ograve
ENCODING 210
SWIDTH 983 0
DWIDTH 35 0
BBX 31 31 2 0
BITMAP
0000000000B710000000000000000000
0000000004FFE8100000000000000000
000000000039EFE81000000000000000
00000000000017DFF800000000000000
0000000000000004A800000000000000
00000000000000000000000000000000
00000000000000000000000000000000
00000000037ACEEFEEDB851000000000
00000028DFFFFFFFFFFFFFFB50000000
000008FFFD96321011257BFFFB300000
0002CFFA4000000000000017EFF50000
001DFE4000000000000000001AFF6000
00BFE2000000000000000000009FE200
05FF40000000000000000000000CFB00
0CFA000000000000000000000003FF40
2FF4000000000000000000000000CF90
6FE00000000000000000000000008FC0
8FC00000000000000000000000005FE0
9FA00000000000000000000000004FF0
9FA00000000000000000000000004FF0
8FC00000000000000000000000005FE0
6FE00000000000000000000000008FC0
2FF4000000000000000000000000CF90
0CF9000000000000000000000003FF40
05FF30000000000000000000000CFB00
00AFD2000000000000000000009FE200
001DFE4000000000000000001AFF6000
0001CFFA3000000000000016EFF50000
000018FFFD96321011247BFFFC300000
00000028DFFFFFFFFFFFFFFB50000000
000000000379CDEFEEDB851000000000
ENDCHAR
STARTCHAR Oacute
ENCODING 211
SWIDTH 983 0
DWIDTH 35 0
BBX 31 31 2 0
BITMAP
00000000000000000003B50000000000
000000000000000004BFFC0000000000
0000000000000004CFFC610000000000
00000000000002CFFA40000000000000
00000000000001C71000000000000000
00000000000000000000000000000000
00000000000000000000000000000000
00000000037ACEEFEEDB851000000000
00000028DFFFFFFFFFFFFFFB50000000
000008FFFD96321011257BFFFB300000
0002CFFA4000000000000017EFF50000
001DFE4000000000000000001AFF6000
00BFE2000000000000000000009FE200
05FF40000000000000000000000CFB00
0CFA000000000000000000000003FF40
2FF4000000000000000000000000CF90
6FE00000000000000000000000008FC0
8FC00000000000000000000000005FE0
9FA00000000000000000000000004FF0
9FA00000000000000000000000004FF0
8FC00000000000000000000000005FE0
6FE00000000000000000000000008FC0
2FF4000000000000000000000000CF90
0CF9000000000000000000000003FF40
05FF30000000000000000000000CFB00
00AFD2000000000000000000009FE200
001DFE4000000000000000001AFF6000
0001CFFA3000000000000016EFF50000
000018FFFD96321011247BFFFC300000
00000028DFFFFFFFFFFFFFFB50000000
000000000379CDEFEEDB851000000000
ENDCHAR
STARTCHAR Ocircumflex
ENCODING 212
SWIDTH 983 0
DWIDTH 35 0
BBX 31 31 2 0
BITMAP
000000000000005C9100000000000000
0000000000003BFFFE71000000000000
00000000002AFFD7AFFD600000000000
0000000008FFB500028EFC3000000000
000000000993000000016C2000000000
00000000000000000000000000000000
00000000000000000000000000000000
00000000037ACEEFEEDB851000000000
00000028DFFFFFFFFFFFFFFB50000000
000008FFFD96321011257BFFFB300000
0002CFFA4000000000000017EFF50000
001DFE4000000000000000001AFF6000
00BFE2000000000000000000009FE200
05FF40000000000000000000000CFB00
0CFA000000000000000000000003FF40
2FF4000000000000000000000000CF90
6FE00000000000000000000000008FC0
8FC00000000000000000000000005FE0
9FA00000000000000000000000004FF0
9FA00000000000000000000000004FF0
8FC00000000000000000000000005FE0
6FE00000000000000000000000008FC0
2FF4000000000000000000000000CF90
0CF9000000000000000000000003FF40
05FF30000000000000000000000CFB00
00AFD2000000000000000000009FE200
001DFE4000000000000000001AFF6000
0001CFFA3000000000000016EFF50000
000018FFFD96321011247BFFFC300000
00000028DFFFFFFFFFFFFFFB50000000
000000000379CDEFEEDB851000000000
ENDCHAR
STARTCHAR Otilde
ENCODING 213
SWIDTH 983 0
DWIDTH 35 0
BBX 31 30 2 0
BITMAP
00000000001AEE930000CE0000000000
0000000000AFFFFFB415FB0000000000
0000000002FC228EFFFFF40000000000
0000000005F500017CFD600000000000
00000000000000000000000000000000
00000000000000000000000000000000
00000000037ACEEFEEDB851000000000
00000028DFFFFFFFFFFFFFFB50000000
000008FFFD96321011257BFFFB300000
0002CFFA4000000000000017EFF50000
001DFE4000000000000000001AFF6000
00BFE2000000000000000000009FE200
05FF40000000000000000000000CFB00
0CFA000000000000000000000003FF40
2FF4000000000000000000000000CF90
6FE00000000000000000000000008FC0
8FC00000000000000000000000005FE0
9FA00000000000000000000000004FF0
9FA00000000000000000000000004FF0
8FC00000000000000000000000005FE0
6FE00000000000000000000000008FC0
2FF4000000000000000000000000CF90
0CF9000000000000000000000003FF40
05FF30000000000000000000000CFB00
00AFD2000000000000000000009FE200
001DFE4000000000000000001AFF6000
0001CFFA3000000000000016EFF50000
000018FFFD96321011247BFFFC300000
00000028DFFFFFFFFFFFFFFB50000000
000000000379CDEFEEDB851000000000
ENDCHAR
STARTCHAR Odieresis
ENCODING 214
SWIDTH 983 0
DWIDTH 35 0
BBX 31 29 2 0
BITMAP
00000000001FF80000FF900000000000
00000000001FF80000FF900000000000
00000000001FF80000FF900000000000
00000000000000000000000000000000
00000000000000000000000000000000
00000000037ACEEFEEDB851000000000
00000028DFFFFFFFFFFFFFFB50000000
000008FFFD96321011257BFFFB300000
0002CFFA4000000000000017EFF50000
001DFE4000000000000000001AFF6000
00BFE2000000000000000000009FE200
05FF40000000000000000000000CFB00
0CFA000000000000000000000003FF40
2FF4000000000000000000000000CF90
6FE00000000000000000000000008FC0
8FC00000000000000000000000005FE0
9FA00000000000000000000000004FF0
9FA00000000000000000000000004FF0
8FC00000000000000000000000005FE0
6FE00000000000000000000000008FC0
2FF4000000000000000000000000CF90
0CF9000000000000000000000003FF40
05FF30000000000000000000000CFB00
00AFD2000000000000000000009FE200
001DFE4000000000000000001AFF6000
0001CFFA3000000000000016EFF50000
000018FFFD96321011247BFFFC300000
00000028DFFFFFFFFFFFFFFB50000000
000000000379CDEFEEDB851000000000
ENDCHAR
STARTCHAR multiply
ENCODING 215
SWIDTH 634 0
DWIDTH 23 0
BBX 15 15 4 5
BITMAP
3B10000000002B10
BFB100000002DF80
1CFB1000002DFB00
01CFB10002DFB000
001CFB002DFB0000
0001DFB2DFB00000
00001DFFFB000000
000003FFE1000000
00001CFFFA000000
0001CFC3DFA00000
001CFC102DFA0000
01CFC10002DFA000
1CFC1000002EFA00
BFC100000002EF80
3B10000000002C20
ENDCHAR
STARTCHAR Oslash
ENCODING 216
SWIDTH 983 0
DWIDTH 35 0
BBX 31 30 2 -3
BITMAP
0000000000000000000000000BF70000
0000000000000000000000007FB00000
000000000000000000000002EE200000
00000000037ACEEFFEDB851CF6000000
00000028DFFFFFFFFFFFFFFFC0000000
000008FFFD96321012247CFFFC300000
0002CFFA4000000000001DF8DFF60000
001DFE40000000000000AF8019FF6000
00BFE200000000000007FB00008FF300
05FF400000000000003FE200000BFC00
0CFA00000000000001DF40000003FF30
2FF40000000000000BF800000000CF90
6FE00000000000007FB0000000007FC0
8FC0000000000004FE10000000005FE0
9FA000000000001DF400000000004FF0
9FA00000000000BF7000000000004FF0
8FB00000000007FB0000000000005FE0
6FE0000000004FD10000000000008FC0
2FF300000001EF30000000000000CF90
0CF90000000BF700000000000003FF40
06FF3000008FA00000000000000CFB00
00CFD20004FD100000000000009FE200
002DFD302EF30000000000001AFF6000
0002DFFACF70000000000016EFF50000
000019FFFF96321011247BFFFC300000
0000005FFFFFFFFFFFFFFFFB50000000
000001DF5369CDEFEEDB851000000000
000009FA000000000000000000000000
00004FE1000000000000000000000000
0001DF50000000000000000000000000
ENDCHAR
STARTCHAR Ugrave
ENCODING 217
SWIDTH 891 0
DWIDTH 32 0
BBX 26 31 3 0
BITMAP
00000007A20000000000000000
0000001EFFA300000000000000
000000017DFFB3000000000000
00000000005BFFB10000000000
00000000000028C00000000000
00000000000000000000000000
00000000000000000000000000
2FF10000000000000000000FF4
2FF10000000000000000000FF4
2FF10000000000000000000FF4
2FF10000000000000000000FF4
2FF10000000000000000000FF4
2FF10000000000000000000FF4
2FF10000000000000000000FF4
2FF10000000000000000000FF4
2FF10000000000000000000FF4
2FF10000000000000000000FF4
2FF10000000000000000000FF4
2FF10000000000000000000FF4
2FF10000000000000000000FF4
2FF10000000000000000000FF4
2FF10000000000000000000FF4
2FF10000000000000000000FF4
2FF10000000000000000000FF3
0FF40000000000000000003FF1
0BFB000000000000000000AFC0
04FF900000000000000008FF50
008FFC40000000000003BFF900
0007FFFD8521001258CFFF8000
00003AFFFFFFFFFFFFFFB30000
000000159BDEFFEDB961000000
ENDCHAR
STARTCHAR Uacute
ENCODING 218
SWIDTH 891 0
DWIDTH 32 0
BBX 26 31 3 0
BITMAP
00000000000000002890000000
0000000000000029FFF2000000
00000000000029FFE820000000
00000000000AFFC60000000000
00000000000A93000000000000
00000000000000000000000000
00000000000000000000000000
2FF10000000000000000000FF4
2FF10000000000000000000FF4
2FF10000000000000000000FF4
2FF10000000000000000000FF4
2FF10000000000000000000FF4
2FF10000000000000000000FF4
2FF10000000000000000000FF4
2FF10000000000000000000FF4
2FF10000000000000000000FF4
2FF10000000000000000000FF4
2FF10000000000000000000FF4
2FF10000000000000000000FF4
2FF10000000000000000000FF4
2FF10000000000000000000FF4
2FF10000000000000000000FF4
2FF10000000000000000000FF4
2FF10000000000000000000FF3
0FF40000000000000000003FF1
0BFB000000000000000000AFC0
04FF900000000000000008FF50
008FFC40000000000003BFF900
0007FFFD8521001258CFFF8000
00003AFFFFFFFFFFFFFFB30000
000000159BDEFFEDB961000000
ENDCHAR
STARTCHAR Ucircumflex
ENCODING 219
SWIDTH 891 0
DWIDTH 32 0
BBX 26 31 3 0
BITMAP
000000000002AB300000000000
00000000019FFFFA2000000000
000000017EFE98EFF810000000
0000005DFD710006CFE6000000
0000005B5000000004B7000000
00000000000000000000000000
00000000000000000000000000
2FF10000000000000000000FF4
2FF10000000000000000000FF4
2FF10000000000000000000FF4
2FF10000000000000000000FF4
2FF10000000000000000000FF4
2FF10000000000000000000FF4
2FF10000000000000000000FF4
2FF10000000000000000000FF4
2FF10000000000000000000FF4
2FF10000000000000000000FF4
2FF10000000000000000000FF4
2FF10000000000000000000FF4
2FF10000000000000000000FF4
2FF10000000000000000000FF4
2FF10000000000000000000FF4
2FF10000000000000000000FF4
2FF10000000000000000000FF3
0FF40000000000000000003FF1
0BFB000000000000000000AFC0
04FF900000000000000008FF50
008FFC40000000000003BFF900
0007FFFD8521001258CFFF8000
00003AFFFFFFFFFFFFFFB30000
000000159BDEFFEDB961000000
ENDCHAR
STARTCHAR Udieresis
ENCODING 220
SWIDTH 891 0
DWIDTH 32 0
BBX 26 29 3 0
BITMAP
00000000CFD0000AFD00000000
00000000CFD0000AFD00000000
00000000CFD0000AFD00000000
00000000000000000000000000
00000000000000000000000000
2FF10000000000000000000FF4
2FF10000000000000000000FF4
2FF10000000000000000000FF4
2FF10000000000000000000FF4
2FF10000000000000000000FF4
2FF10000000000000000000FF4
2FF10000000000000000000FF4
2FF10000000000000000000FF4
2FF10000000000000000000FF4
2FF10000000000000000000FF4
2FF10000000000000000000FF4
2FF10000000000000000000FF4
2FF10000000000000000000FF4
2FF10000000000000000000FF4
2FF10000000000000000000FF4
2FF10000000000000000000FF4
2FF10000000000000000000FF3
0FF40000000000000000003FF1
0BFB000000000000000000AFC0
04FF900000000000000008FF50
008FFC40000000000003BFF900
0007FFFD8521001258CFFF8000
00003AFFFFFFFFFFFFFFB30000
000000159BDEFFEDB961000000
ENDCHAR
STARTCHAR Yacute
ENCODING 221
SWIDTH 763 0
DWIDTH 27 0
BBX 25 31 1 0
BITMAP
00000000000000003B50000000
000000000000004BFFC0000000
0000000000004CFFC610000000
00000000002CFFA40000000000
00000000001C71000000000000
00000000000000000000000000
00000000000000000000000000
5FF5000000000000000001CFB0
07FE30000000000000000AFD10
00AFD1000000000000008FE300
001CFB00000000000005FF5000
0002EF9000000000003EF70000
00003FF60000000001DFA00000
000006FF400000000BFC100000
0000008FE20000009FE2000000
0000000BFC100006FF30000000
00000001DFA0004FF600000000
000000002EF802EF9000000000
0000000004FF6CFB0000000000
00000000007FFFD10000000000
00000000000AFE200000000000
000000000005FD000000000000
000000000005FD000000000000
000000000005FD000000000000
000000000005FD000000000000
000000000005FD000000000000
000000000005FD000000000000
000000000005FD000000000000
000000000005FD000000000000
000000000005FD000000000000
000000000005FD000000000000
ENDCHAR
STARTCHAR Thorn
ENCODING 222
SWIDTH 787 0
DWIDTH 28 0
BBX 23 24 4 0
BITMAP
EF4000000000000000000000
EF4000000000000000000000
EF4000000000000000000000
EF4000000000000000000000
EFFFFFFFFFFFEEDA83000000
EFFFFFFFFFFFFFFFFFC40000
EF40000000011246AEFF6000
EF4000000000000002BFF300
EF40000000000000001DFA00
EF400000000000000006FE00
EF400000000000000003FF10
EF400000000000000002FF20
EF400000000000000003FF10
EF400000000000000006FE00
EF40000000000000000DFA00
EF4000000000000001BFF200
EF400000000001258EFF6000
EFFFFFFFFFFFFFFFFFC40000
EFFFFFFFFFFFFEDA83000000
EF4000000000000000000000
EF4000000000000000000000
EF4000000000000000000000
EF4000000000000000000000
EF4000000000000000000000
ENDCHAR
STARTCHAR germandbls
ENCODING 223
SWIDTH 863 0
DWIDTH 31 0
BBX 26 24 3 0
BITMAP
00000037ACDEFEECA730000000
00005CFFFFFFFFFFFFFD710000
001BFFE96311011369EFFD3000
01CFE710000000000006EFE100
09FE20000000000000002EF800
2FF4000000000000000008FC00
7FD0000000000000000007FC00
9F9000000000000000000CF900
AF800000000000000001AFD100
AF8000000000001236AFFD3000
AF800000CFFFFFFFFFFC600000
AF800000CFFFFFFFFFFEB61000
AF8000000000001247AEFFE500
AF8000000000000000016DFF70
AF80000000000000000001AFF3
AF800000000000000000000DFA
AF8000000000000000000007FD
AF8000000000000000000006FE
AF8000000000000000000009FB
AF800000000000000000003FF6
AF8000C610000000000006EFB0
AF8000FFFC8531001359EFFB10
AF8000FFFFFFFFFFFFFFFD6000
AF80002579BDEFFFEDB8300000
ENDCHAR
STARTCHAR agrave
ENCODING 224
SWIDTH 888 0
DWIDTH 32 0
BBX 27 31 2 0
BITMAP
00000000A8100000000000000000
00000003FFE82000000000000000
0000000039EFF920000000000000
000000000016CFF9000000000000
00000000000004A9000000000000
0000000000000000000000000000
0000000000000000000000000000
0002478ABDEEFFEEDB8410000000
008FFFFFFFFFFFFFFFFFF9200000
008FFFC864210011358CFFF60000
007A510000000000000028FF7000
00000000000000000000004FF300
000000000000000000000008FA00
000000000000000000000003FE00
000000000000000000000001FF10
000000000000000000000001FF20
0000000000000135689ACDEFFF20
00000000269BEFFFFFFFFFFFFF20
0000049DFFFFFECA87643212FF20
0005CFFFEA74100000000001FF20
00AFFE830000000000000001FF20
0AFF70000000000000000001FF20
4FF400000000000000000001FF20
AFA000000000000000000001FF20
BF7000000000000000000001FF20
AFA000000000000000000001FF20
7FF30000000000000000004CFF20
1EFE50000000000000048EFFFF20
03EFFD84210012468BEFFE94FF20
002AFFFFFFFFFFFFFFE95101FF20
000026ACEFFEDCA853000001FF20
ENDCHAR
STARTCHAR aacute
ENCODING 225
SWIDTH 888 0
DWIDTH 32 0
BBX 27 31 2 0
BITMAP
000000000000000003A600000000
0000000000000003BFFD00000000
00000000000004BFFD7100000000
000000000002BFFA400000000000
000000000000C820000000000000
0000000000000000000000000000
0000000000000000000000000000
0002478ABDEEFFEEDB8410000000
008FFFFFFFFFFFFFFFFFF9200000
008FFFC864210011358CFFF60000
007A510000000000000028FF7000
00000000000000000000004FF300
000000000000000000000008FA00
000000000000000000000003FE00
000000000000000000000001FF10
000000000000000000000001FF20
0000000000000135689ACDEFFF20
00000000269BEFFFFFFFFFFFFF20
0000049DFFFFFECA87643212FF20
0005CFFFEA74100000000001FF20
00AFFE830000000000000001FF20
0AFF70000000000000000001FF20
4FF400000000000000000001FF20
AFA000000000000000000001FF20
BF7000000000000000000001FF20
AFA000000000000000000001FF20
7FF30000000000000000004CFF20
1EFE50000000000000048EFFFF20
03EFFD84210012468BEFFE94FF20
002AFFFFFFFFFFFFFFE95101FF20
000026ACEFFEDCA853000001FF20
ENDCHAR
STARTCHAR acircumflex
ENCODING 226
SWIDTH 888 0
DWIDTH 32 0
BBX 27 31 2 0
BITMAP
0000000000004C92000000000000
00000000003BFFFE810000000000
0000000029FFD79FFE6000000000
00000007EFC500017EFD40000000
00000008A3000000006C30000000
0000000000000000000000000000
0000000000000000000000000000
0002478ABDEEFFEEDB8410000000
008FFFFFFFFFFFFFFFFFF9200000
008FFFC864210011358CFFF60000
007A510000000000000028FF7000
00000000000000000000004FF300
000000000000000000000008FA00
000000000000000000000003FE00
000000000000000000000001FF10
000000000000000000000001FF20
0000000000000135689ACDEFFF20
00000000269BEFFFFFFFFFFFFF20
0000049DFFFFFECA87643212FF20
0005CFFFEA74100000000001FF20
00AFFE830000000000000001FF20
0AFF70000000000000000001FF20
4FF400000000000000000001FF20
AFA000000000000000000001FF20
BF7000000000000000000001FF20
AFA000000000000000000001FF20
7FF30000000000000000004CFF20
1EFE50000000000000048EFFFF20
03EFFD84210012468BEFFE94FF20
002AFFFFFFFFFFFFFFE95101FF20
000026ACEFFEDCA853000001FF20
ENDCHAR
STARTCHAR atilde
ENCODING 227
SWIDTH 888 0
DWIDTH 32 0
BBX 27 30 2 0
BITMAP
0000000019EEA30000AF00000000
000000009FFFFFB514EC00000000
00000001FD227EFFFFF500000000
00000004F600016CFD7000000000
0000000000000000000000000000
0000000000000000000000000000
0002478ABDEEFFEEDB8410000000
008FFFFFFFFFFFFFFFFFF9200000
008FFFC864210011358CFFF60000
007A510000000000000028FF7000
00000000000000000000004FF300
000000000000000000000008FA00
000000000000000000000003FE00
000000000000000000000001FF10
000000000000000000000001FF20
0000000000000135689ACDEFFF20
00000000269BEFFFFFFFFFFFFF20
0000049DFFFFFECA87643212FF20
0005CFFFEA74100000000001FF20
00AFFE830000000000000001FF20
0AFF70000000000000000001FF20
4FF400000000000000000001FF20
AFA000000000000000000001FF20
BF7000000000000000000001FF20
AFA000000000000000000001FF20
7FF30000000000000000004CFF20
1EFE50000000000000048EFFFF20
03EFFD84210012468BEFFE94FF20
002AFFFFFFFFFFFFFFE95101FF20
000026ACEFFEDCA853000001FF20
ENDCHAR
STARTCHAR adieresis
ENCODING 228
SWIDTH 888 0
DWIDTH 32 0
BBX 27 29 2 0
BITMAP
000000000FF90000EFA000000000
000000000FF90000EFA000000000
000000000FF90000EFA000000000
0000000000000000000000000000
0000000000000000000000000000
0002478ABDEEFFEEDB8410000000
008FFFFFFFFFFFFFFFFFF9200000
008FFFC864210011358CFFF60000
007A510000000000000028FF7000
00000000000000000000004FF300
000000000000000000000008FA00
000000000000000000000003FE00
000000000000000000000001FF10
000000000000000000000001FF20
0000000000000135689ACDEFFF20
00000000269BEFFFFFFFFFFFFF20
0000049DFFFFFECA87643212FF20
0005CFFFEA74100000000001FF20
00AFFE830000000000000001FF20
0AFF70000000000000000001FF20
4FF400000000000000000001FF20
AFA000000000000000000001FF20
BF7000000000000000000001FF20
AFA000000000000000000001FF20
7FF30000000000000000004CFF20
1EFE50000000000000048EFFFF20
03EFFD84210012468BEFFE94FF20
002AFFFFFFFFFFFFFFE95101FF20
000026ACEFFEDCA853000001FF20
ENDCHAR
STARTCHAR aring
ENCODING 229
SWIDTH 888 0
DWIDTH 32 0
BBX 27 33 2 0
BITMAP
000000000018CEEC600000000000
0000000002EFFFFFFA0000000000
0000000009FA2014DF4000000000
000000000BF200007F6000000000
0000000009FA2014DF4000000000
0000000002EFFFFFFA0000000000
000000000018DEEC700000000000
0000000000000000000000000000
0000000000000000000000000000
0002478ABDEEFFEEDB8410000000
008FFFFFFFFFFFFFFFFFF9200000
008FFFC864210011358CFFF60000
007A510000000000000028FF7000
00000000000000000000004FF300
000000000000000000000008FA00
000000000000000000000003FE00
000000000000000000000001FF10
000000000000000000000001FF20
0000000000000135689ACDEFFF20
00000000269BEFFFFFFFFFFFFF20
0000049DFFFFFECA87643212FF20
0005CFFFEA74100000000001FF20
00AFFE830000000000000001FF20
0AFF70000000000000000001FF20
4FF400000000000000000001FF20
AFA000000000000000000001FF20
BF7000000000000000000001FF20
AFA000000000000000000001FF20
7FF30000000000000000004CFF20
1EFE50000000000000048EFFFF20
03EFFD84210012468BEFFE94FF20
002AFFFFFFFFFFFFFFE95101FF20
000026ACEFFEDCA853000001FF20
ENDCHAR
STARTCHAR ae
ENCODING 230
SWIDTH 1551 0
DWIDTH 56 0
BBX 52 24 2 0
BITMAP
0002478ABDEEFFFEDB8510000000000026ACEFFECB7300000000
008FFFFFFFFFFFFFFFFFFA300000005CFFFFFFFFFFFFD7100000
008FFFC864210011358CFFF800003CFFEA632101259DFFD30000
007A510000000000000028FF9005FFE71000000000005CFF6000
00000000000000000000004FF45FFB10000000000000008FF400
000000000000000000000008FCEFA0000000000000000008FE10
000000000000000000000003FFFD00000000000000000000BF80
000000000000000000000001FFF4000000000000000000003FE0
000000000000000000000001FFC0000000000000000000000CF4
0000000000000135689ACDEFFF700000000000000000000008F8
00000000269BEFFFFFFFFFFFFF300000000000000000000006FA
0000049DFFFFFECA97643213FFFFFFFFFFFFFFFFFFFFFFFFFFFC
0005CFFFEA74200000000002FFFFFFFFFFFFFFFFFFFFFFFFFFFD
00AFFE830000000000000001FF30000000000000000000000000
0AFF71000000000000000000EF60000000000000000000000000
4FF400000000000000000000AFB0000000000000000000000000
AFA0000000000000000000004FF2000000000000000000000000
BF80000000000000000000000CFB000000000000000000000000
AFA0000000000000000000018FFF900000000000000000000000
7FF30000000000000000017EFFCFFB2000000000000000000000
1EFE5000000000000015AFFFC505EFE820000000000000026A00
03EFFD84210012358CFFFFA400002BFFFC863210012469DFFD00
002AFFFFFFFFFFFFFFFB71000000004AFFFFFFFFFFFFFFFFFD00
000026ACEFFEDDCA7410000000000000158BDEFFFFEDCA864100
ENDCHAR
STARTCHAR ccedilla
ENCODING 231
SWIDTH 869 0
DWIDTH 31 0
BBX 27 31 2 -7
BITMAP
000000000369CDEFFEDB97400000
00000017DFFFFFFFFFFFFFFFB620
000006EFFEA7421102348BEFFFC0
0001BFFB5000000000000016CFC0
001CFE50000000000000000004A0
00AFE30000000000000000000000
04FF400000000000000000000000
0BFA000000000000000000000000
2FF4000000000000000000000000
5FE0000000000000000000000000
8FC0000000000000000000000000
9FA0000000000000000000000000
9FA0000000000000000000000000
8FC0000000000000000000000000
5FE0000000000000000000000000
2FF4000000000000000000000000
0BFA000000000000000000000000
04FF400000000000000000000000
00AFE30000000000000000000000
001CFE50000000000000000004A0
0001AFFB4000000000000015BFC0
000006EFFE97421001347BEFFFC0
00000017DFFFFFFFFFFFFFFFB720
000000000269BDFFFEDC97410000
00000000000004F6000000000000
00000000000009F2000000000000
0000000000000DFED80000000000
00000000000001017F8000000000
00000000000000018FB000000000
00000000005FFFFFFF6000000000
00000000005FFFFEB60000000000
ENDCHAR
STARTCHAR egrave
ENCODING 232
SWIDTH 910 0
DWIDTH 33 0
BBX 29 31 2 0
BITMAP
000000002C50000000000000000000
000000009FFD600000000000000000
0000000005BFFD6000000000000000
0000000000029EFD50000000000000
000000000000016C40000000000000
000000000000000000000000000000
000000000000000000000000000000
00000000048BDEFEDC952000000000
00000028EFFFFFFFFFFFFA30000000
000006EFFC842101237AFFF9000000
0001BFFB40000000000018FFC10000
000BFF60000000000000003DFB0000
008FF4000000000000000002DF8000
03FF600000000000000000003FE100
0BFC000000000000000000000AF800
1FF50000000000000000000004FC00
5FE00000000000000000000000FF10
8FB00000000000000000000000DF30
9FFFFFFFFFFFFFFFFFFFFFFFFFFF50
9FFFFFFFFFFFFFFFFFFFFFFFFFFF60
8FB000000000000000000000000000
6FE000000000000000000000000000
2FF400000000000000000000000000
0CFA00000000000000000000000000
04FF50000000000000000000000000
009FE3000000000000000000000000
001BFE600000000000000000000000
0000BFFC5100000000000000496000
000006EFFEA75211012358BEFF6000
00000017CFFFFFFFFFFFFFFFFF6000
000000000369CDEFFFEDCB97520000
ENDCHAR
STARTCHAR eacute
ENCODING 233
SWIDTH 910 0
DWIDTH 33 0
BBX 29 31 2 0
BITMAP
0000000000000000006C1000000000
00000000000000006DFF7000000000
000000000000017DFFB40000000000
0000000000005EFE82000000000000
0000000000005C5000000000000000
000000000000000000000000000000
000000000000000000000000000000
00000000048BDEFEDC952000000000
00000028EFFFFFFFFFFFFA30000000
000006EFFC842101237AFFF9000000
0001BFFB40000000000018FFC10000
000BFF60000000000000003DFB0000
008FF4000000000000000002DF8000
03FF600000000000000000003FE100
0BFC000000000000000000000AF800
1FF50000000000000000000004FC00
5FE00000000000000000000000FF10
8FB00000000000000000000000DF30
9FFFFFFFFFFFFFFFFFFFFFFFFFFF50
9FFFFFFFFFFFFFFFFFFFFFFFFFFF60
8FB000000000000000000000000000
6FE000000000000000000000000000
2FF400000000000000000000000000
0CFA00000000000000000000000000
04FF50000000000000000000000000
009FE3000000000000000000000000
001BFE600000000000000000000000
0000BFFC5100000000000000496000
000006EFFEA75211012358BEFF6000
00000017CFFFFFFFFFFFFFFFFF6000
000000000369CDEFFFEDCB97520000
ENDCHAR
STARTCHAR ecircumflex
ENCODING 234
SWIDTH 910 0
DWIDTH 33 0
BBX 29 31 2 0
BITMAP
00000000000017D600000000000000
000000000006DFFFD5000000000000
0000000004CFFB7CFFB30000000000
00000002BFF930003AFFA100000000
00000001C71000000028B000000000
000000000000000000000000000000
000000000000000000000000000000
00000000048BDEFEDC952000000000
00000028EFFFFFFFFFFFFA30000000
000006EFFC842101237AFFF9000000
0001BFFB40000000000018FFC10000
000BFF60000000000000003DFB0000
008FF4000000000000000002DF8000
03FF600000000000000000003FE100
0BFC000000000000000000000AF800
1FF50000000000000000000004FC00
5FE00000000000000000000000FF10
8FB00000000000000000000000DF30
9FFFFFFFFFFFFFFFFFFFFFFFFFFF50
9FFFFFFFFFFFFFFFFFFFFFFFFFFF60
8FB000000000000000000000000000
6FE000000000000000000000000000
2FF400000000000000000000000000
0CFA00000000000000000000000000
04FF50000000000000000000000000
009FE3000000000000000000000000
001BFE600000000000000000000000
0000BFFC5100000000000000496000
000006EFFEA75211012358BEFF6000
00000017CFFFFFFFFFFFFFFFFF6000
000000000369CDEFFFEDCB97520000
ENDCHAR
STARTCHAR edieresis
ENCODING 235
SWIDTH 910 0
DWIDTH 33 0
BBX 29 29 2 0
BITMAP
0000000006FF30005FF40000000000
0000000006FF30005FF40000000000
0000000006FF30005FF40000000000
000000000000000000000000000000
000000000000000000000000000000
00000000048BDEFEDC952000000000
00000028EFFFFFFFFFFFFA30000000
000006EFFC842101237AFFF9000000
0001BFFB40000000000018FFC10000
000BFF60000000000000003DFB0000
008FF4000000000000000002DF8000
03FF600000000000000000003FE100
0BFC000000000000000000000AF800
1FF50000000000000000000004FC00
5FE00000000000000000000000FF10
8FB00000000000000000000000DF30
9FFFFFFFFFFFFFFFFFFFFFFFFFFF50
9FFFFFFFFFFFFFFFFFFFFFFFFFFF60
8FB000000000000000000000000000
6FE000000000000000000000000000
2FF400000000000000000000000000
0CFA00000000000000000000000000
04FF50000000000000000000000000
009FE3000000000000000000000000
001BFE600000000000000000000000
0000BFFC5100000000000000496000
000006EFFEA75211012358BEFF6000
00000017CFFFFFFFFFFFFFFFFF6000
000000000369CDEFFFEDCB97520000
ENDCHAR
STARTCHAR igrave
ENCODING 236
SWIDTH 287 0
DWIDTH 10 0
BBX 9 31 -1 0
BITMAP
6A30000000
DFFB400000
17DFFB4000
0004AFFC20
0000028C10
0000000000
0000000000
00000EF400
00000EF400
00000EF400
00000EF400
00000EF400
00000EF400
00000EF400
00000EF400
00000EF400
00000EF400
00000EF400
00000EF400
00000EF400
00000EF400
00000EF400
00000EF400
00000EF400
00000EF400
00000EF400
00000EF400
00000EF400
00000EF400
00000EF400
00000EF400
ENDCHAR
STARTCHAR iacute
ENCODING 237
SWIDTH 287 0
DWIDTH 10 0
BBX 9 31 3 0
BITMAP
0000017B00
00018EFF30
018EFE9300
8FFD610000
8A40000000
0000000000
0000000000
0EF4000000
0EF4000000
0EF4000000
0EF4000000
0EF4000000
0EF4000000
0EF4000000
0EF4000000
0EF4000000
0EF4000000
0EF4000000
0EF4000000
0EF4000000
0EF4000000
0EF4000000
0EF4000000
0EF4000000
0EF4000000
0EF4000000
0EF4000000
0EF4000000
0EF4000000
0EF4000000
0EF4000000
ENDCHAR
STARTCHAR icircumflex
ENCODING 238
SWIDTH 287 0
DWIDTH 10 0
BBX 14 31 -2 0
BITMAP
0000029C400000
00018EFFFB3000
006EFF97DFF920
4DFE810005CFE8
3C6000000003A8
00000000000000
00000000000000
000000EF400000
000000EF400000
000000EF400000
000000EF400000
000000EF400000
000000EF400000
000000EF400000
000000EF400000
000000EF400000
000000EF400000
000000EF400000
000000EF400000
000000EF400000
000000EF400000
000000EF400000
000000EF400000
000000EF400000
000000EF400000
000000EF400000
000000EF400000
000000EF400000
000000EF400000
000000EF400000
000000EF400000
ENDCHAR
STARTCHAR idieresis
ENCODING 239
SWIDTH 287 0
DWIDTH 10 0
BBX 10 29 0 0
BITMAP
AFF00008FF
AFF00008FF
AFF00008FF
0000000000
0000000000
0000EF4000
0000EF4000
0000EF4000
0000EF4000
0000EF4000
0000EF4000
0000EF4000
0000EF4000
0000EF4000
0000EF4000
0000EF4000
0000EF4000
0000EF4000
0000EF4000
0000EF4000
0000EF4000
0000EF4000
0000EF4000
0000EF4000
0000EF4000
0000EF4000
0000EF4000
0000EF4000
0000EF4000
ENDCHAR
STARTCHAR eth
ENCODING 240
SWIDTH 910 0
DWIDTH 33 0
BBX 31 24 0 0
BITMAP
0000EFFFFFFFFFFEEDCB862000000000
0000EFFFFFFFFFFFFFFFFFFD71000000
0000EF400000000112469DFFFD500000
0000EF400000000000000029FFF70000
0000EF4000000000000000002DFF5000
0000EF40000000000000000001CFE100
0000EF400000000000000000003FF700
0000EF400000000000000000000AFC00
0000EF4000000000000000000005FF10
0000EF4000000000000000000001FF40
0000EF4000000000000000000000FF50
7FFFFFFFFFFFFFFF200000000000DF60
7FFFFFFFFFFFFFFF200000000000DF60
0000EF4000000000000000000000EF50
0000EF4000000000000000000001FF40
0000EF4000000000000000000004FF10
0000EF4000000000000000000009FC00
0000EF400000000000000000001EF600
0000EF40000000000000000000AFE100
0000EF4000000000000000000AFF5000
0000EF400000000000000005DFF70000
0000EF400000000111357AEFFE500000
0000EFFFFFFFFFFFFFFFFFFD71000000
0000EFFFFFFFFFFEEDCB862000000000
ENDCHAR
STARTCHAR ntilde
ENCODING 241
SWIDTH 933 0
DWIDTH 34 0
BBX 26 30 4 0
BITMAP
00000003CFD810001F90000000
0000001EFFFFE9318F60000000
0000006F813AFFFFFE10000000
000000AF100029DFC300000000
00000000000000000000000000
00000000000000000000000000
EF4000000027ACEFFEC9400000
EF4000028CFFFFFFFFFFFD5000
EF40029FFFD852100137CFF800
EF419FFE82000000000007FF50
EFAEFD60000000000000009FD0
EFFF8100000000000000001FF4
EFD30000000000000000000CF7
EF400000000000000000000AF9
EF4000000000000000000009FA
EF4000000000000000000008FA
EF4000000000000000000008FA
EF4000000000000000000008FA
EF4000000000000000000008FA
EF4000000000000000000008FA
EF4000000000000000000008FA
EF4000000000000000000008FA
EF4000000000000000000008FA
EF4000000000000000000008FA
EF4000000000000000000008FA
EF4000000000000000000008FA
EF4000000000000000000008FA
EF4000000000000000000008FA
EF4000000000000000000008FA
EF4000000000000000000008FA
ENDCHAR
STARTCHAR ograve
ENCODING 242
SWIDTH 983 0
DWIDTH 35 0
BBX 31 31 2 0
BITMAP
0000000000B710000000000000000000
0000000004FFE8100000000000000000
000000000039EFE81000000000000000
00000000000017DFF800000000000000
0000000000000004A800000000000000
00000000000000000000000000000000
00000000000000000000000000000000
00000000037ACEEFEEDB851000000000
00000028DFFFFFFFFFFFFFFB50000000
000008FFFD96321011257BFFFB300000
0002CFFA4000000000000017EFF50000
001DFE4000000000000000001AFF6000
00BFE2000000000000000000009FE200
05FF40000000000000000000000CFB00
0CFA000000000000000000000003FF40
2FF4000000000000000000000000CF90
6FE00000000000000000000000008FC0
8FC00000000000000000000000005FE0
9FA00000000000000000000000004FF0
9FA00000000000000000000000004FF0
8FC00000000000000000000000005FE0
6FE00000000000000000000000008FC0
2FF4000000000000000000000000CF90
0CF9000000000000000000000003FF40
05FF30000000000000000000000CFB00
00AFD2000000000000000000009FE200
001DFE4000000000000000001AFF6000
0001CFFA3000000000000016EFF50000
000018FFFD96321011247BFFFC300000
00000028DFFFFFFFFFFFFFFB50000000
000000000379CDEFEEDB851000000000
ENDCHAR
STARTCHAR oacute
ENCODING 243
SWIDTH 983 0
DWIDTH 35 0
BBX 31 31 2 0
BITMAP
00000000000000000003B50000000000
000000000000000004BFFC0000000000
0000000000000004CFFC610000000000
00000000000002CFFA40000000000000
00000000000001C71000000000000000
00000000000000000000000000000000
00000000000000000000000000000000
00000000037ACEEFEEDB851000000000
00000028DFFFFFFFFFFFFFFB50000000
000008FFFD96321011257BFFFB300000
0002CFFA4000000000000017EFF50000
001DFE4000000000000000001AFF6000
00BFE2000000000000000000009FE200
05FF40000000000000000000000CFB00
0CFA000000000000000000000003FF40
2FF4000000000000000000000000CF90
6FE00000000000000000000000008FC0
8FC00000000000000000000000005FE0
9FA00000000000000000000000004FF0
9FA00000000000000000000000004FF0
8FC00000000000000000000000005FE0
6FE00000000000000000000000008FC0
2FF4000000000000000000000000CF90
0CF9000000000000000000000003FF40
05FF30000000000000000000000CFB00
00AFD2000000000000000000009FE200
001DFE4000000000000000001AFF6000
0001CFFA3000000000000016EFF50000
000018FFFD96321011247BFFFC300000
00000028DFFFFFFFFFFFFFFB50000000
000000000379CDEFEEDB851000000000
ENDCHAR
STARTCHAR ocircumflex
ENCODING 244
SWIDTH 983 0
DWIDTH 35 0
BBX 31 31 2 0
BITMAP
000000000000005C9100000000000000
0000000000003BFFFE71000000000000
00000000002AFFD7AFFD600000000000
0000000008FFB500028EFC3000000000
000000000993000000016C2000000000
00000000000000000000000000000000
00000000000000000000000000000000
00000000037ACEEFEEDB851000000000
00000028DFFFFFFFFFFFFFFB50000000
000008FFFD96321011257BFFFB300000
0002CFFA4000000000000017EFF50000
001DFE4000000000000000001AFF6000
00BFE2000000000000000000009FE200
05FF40000000000000000000000CFB00
0CFA000000000000000000000003FF40
2FF4000000000000000000000000CF90
6FE00000000000000000000000008FC0
8FC00000000000000000000000005FE0
9FA00000000000000000000000004FF0
9FA00000000000000000000000004FF0
8FC00000000000000000000000005FE0
6FE00000000000000000000000008FC0
2FF4000000000000000000000000CF90
0CF9000000000000000000000003FF40
05FF30000000000000000000000CFB00
00AFD2000000000000000000009FE200
001DFE4000000000000000001AFF6000
0001CFFA3000000000000016EFF50000
000018FFFD96321011247BFFFC300000
00000028DFFFFFFFFFFFFFFB50000000
000000000379CDEFEEDB851000000000
ENDCHAR
STARTCHAR otilde
ENCODING 245
SWIDTH 983 0
DWIDTH 35 0
BBX 31 30 2 0
BITMAP
00000000001AEE930000CE0000000000
0000000000AFFFFFB415FB0000000000
0000000002FC228EFFFFF40000000000
0000000005F500017CFD600000000000
00000000000000000000000000000000
00000000000000000000000000000000
00000000037ACEEFEEDB851000000000
00000028DFFFFFFFFFFFFFFB50000000
000008FFFD96321011257BFFFB300000
0002CFFA4000000000000017EFF50000
001DFE4000000000000000001AFF6000
00BFE2000000000000000000009FE200
05FF40000000000000000000000CFB00
0CFA000000000000000000000003FF40
2FF4000000000000000000000000CF90
6FE00000000000000000000000008FC0
8FC00000000000000000000000005FE0
9FA00000000000000000000000004FF0
9FA00000000000000000000000004FF0
8FC00000000000000000000000005FE0
6FE00000000000000000000000008FC0
2FF4000000000000000000000000CF90
0CF9000000000000000000000003FF40
05FF30000000000000000000000CFB00
00AFD2000000000000000000009FE200
001DFE4000000000000000001AFF6000
0001CFFA3000000000000016EFF50000
000018FFFD96321011247BFFFC300000
00000028DFFFFFFFFFFFFFFB50000000
000000000379CDEFEEDB851000000000
ENDCHAR
STARTCHAR odieresis
ENCODING 246
SWIDTH 983 0
DWIDTH 35 0
BBX 31 29 2 0
BITMAP
00000000001FF80000FF900000000000
00000000001FF80000FF900000000000
00000000001FF80000FF900000000000
00000000000000000000000000000000
00000000000000000000000000000000
00000000037ACEEFEEDB851000000000
00000028DFFFFFFFFFFFFFFB50000000
000008FFFD96321011257BFFFB300000
0002CFFA4000000000000017EFF50000
001DFE4000000000000000001AFF6000
00BFE2000000000000000000009FE200
05FF40000000000000000000000CFB00
0CFA000000000000000000000003FF40
2FF4000000000000000000000000CF90
6FE00000000000000000000000008FC0
8FC00000000000000000000000005FE0
9FA00000000000000000000000004FF0
9FA00000000000000000000000004FF0
8FC00000000000000000000000005FE0
6FE00000000000000000000000008FC0
2FF4000000000000000000000000CF90
0CF9000000000000000000000003FF40
05FF30000000000000000000000CFB00
00AFD2000000000000000000009FE200
001DFE4000000000000000001AFF6000
0001CFFA3000000000000016EFF50000
000018FFFD96321011247BFFFC300000
00000028DFFFFFFFFFFFFFFB50000000
000000000379CDEFEEDB851000000000
ENDCHAR
STARTCHAR divide
ENCODING 247
SWIDTH 634 0
DWIDTH 23 0
BBX 17 14 3 5
BITMAP
0000000BF800000000
0000000BF800000000
0000000BF800000000
000000000000000000
000000000000000000
000000000000000000
FFFFFFFFFFFFFFFFC0
FFFFFFFFFFFFFFFFC0
000000000000000000
000000000000000000
000000000000000000
0000000BF800000000
0000000BF800000000
0000000BF800000000
ENDCHAR
STARTCHAR oslash
ENCODING 248
SWIDTH 983 0
DWIDTH 35 0
BBX 31 30 2 -3
BITMAP
0000000000000000000000000BF70000
0000000000000000000000007FB00000
000000000000000000000002EE200000
00000000037ACEEFFEDB851CF6000000
00000028DFFFFFFFFFFFFFFFC0000000
000008FFFD96321012247CFFFC300000
0002CFFA4000000000001DF8DFF60000
001DFE40000000000000AF8019FF6000
00BFE200000000000007FB00008FF300
05FF400000000000003FE200000BFC00
0CFA00000000000001DF40000003FF30
2FF40000000000000BF800000000CF90
6FE00000000000007FB0000000007FC0
8FC0000000000004FE10000000005FE0
9FA000000000001DF400000000004FF0
9FA00000000000BF7000000000004FF0
8FB00000000007FB0000000000005FE0
6FE0000000004FD10000000000008FC0
2FF300000001EF30000000000000CF90
0CF90000000BF700000000000003FF40
06FF3000008FA00000000000000CFB00
00CFD20004FD100000000000009FE200
002DFD302EF30000000000001AFF6000
0002DFFACF70000000000016EFF50000
000019FFFF96321011247BFFFC300000
0000005FFFFFFFFFFFFFFFFB50000000
000001DF5369CDEFEEDB851000000000
000009FA000000000000000000000000
00004FE1000000000000000000000000
0001DF50000000000000000000000000
ENDCHAR
STARTCHAR ugrave
ENCODING 249
SWIDTH 931 0
DWIDTH 34 0
BBX 27 31 3 0
BITMAP
00000000B7100000000000000000
00000005FFE71000000000000000
000000003AFFE810000000000000
000000000017DFE8000000000000
00000000000004B7000000000000
0000000000000000000000000000
0000000000000000000000000000
1FF300000000000000000000CF70
1FF300000000000000000000CF70
1FF300000000000000000000CF70
1FF300000000000000000000CF70
1FF300000000000000000000CF70
1FF300000000000000000000CF70
1FF300000000000000000000CF70
1FF300000000000000000000CF70
1FF300000000000000000000CF70
1FF300000000000000000000CF70
1FF300000000000000000000CF70
1FF300000000000000000000CF70
1FF300000000000000000000CF70
1FF300000000000000000000CF70
1FF300000000000000000000CF70
1FF300000000000000000000CF70
0FF400000000000000000000CF70
0DF600000000000000000008FF70
0AFA000000000000000003CFFF70
04FF2000000000000002AFFBDF70
00AFD2000000000015BFFD50CF70
001CFF952101146BFFFD6000CF70
00008EFFFFFFFFFFEA500000CF70
0000016ADEFEEC9510000000CF70
ENDCHAR
STARTCHAR uacute
ENCODING 250
SWIDTH 931 0
DWIDTH 34 0
BBX 27 31 3 0
BITMAP
000000000000000004B400000000
0000000000000004BFFB00000000
00000000000005CFFC6100000000
000000000003CFFA300000000000
000000000001C710000000000000
0000000000000000000000000000
0000000000000000000000000000
1FF300000000000000000000CF70
1FF300000000000000000000CF70
1FF300000000000000000000CF70
1FF300000000000000000000CF70
1FF300000000000000000000CF70
1FF300000000000000000000CF70
1FF300000000000000000000CF70
1FF300000000000000000000CF70
1FF300000000000000000000CF70
1FF300000000000000000000CF70
1FF300000000000000000000CF70
1FF300000000000000000000CF70
1FF300000000000000000000CF70
1FF300000000000000000000CF70
1FF300000000000000000000CF70
1FF300000000000000000000CF70
0FF400000000000000000000CF70
0DF600000000000000000008FF70
0AFA000000000000000003CFFF70
04FF2000000000000002AFFBDF70
00AFD2000000000015BFFD50CF70
001CFF952101146BFFFD6000CF70
00008EFFFFFFFFFFEA500000CF70
0000016ADEFEEC9510000000CF70
ENDCHAR
STARTCHAR ucircumflex
ENCODING 251
SWIDTH 931 0
DWIDTH 34 0
BBX 27 31 3 0
BITMAP
0000000000005D81000000000000
00000000003CFFFE700000000000
000000002AFFD7AFFD5000000000
00000009FFB400028EFC30000000
0000000A93000000016C20000000
0000000000000000000000000000
0000000000000000000000000000
1FF300000000000000000000CF70
1FF300000000000000000000CF70
1FF300000000000000000000CF70
1FF300000000000000000000CF70
1FF300000000000000000000CF70
1FF300000000000000000000CF70
1FF300000000000000000000CF70
1FF300000000000000000000CF70
1FF300000000000000000000CF70
1FF300000000000000000000CF70
1FF300000000000000000000CF70
1FF300000000000000000000CF70
1FF300000000000000000000CF70
1FF300000000000000000000CF70
1FF300000000000000000000CF70
1FF300000000000000000000CF70
0FF400000000000000000000CF70
0DF600000000000000000008FF70
0AFA000000000000000003CFFF70
04FF2000000000000002AFFBDF70
00AFD2000000000015BFFD50CF70
001CFF952101146BFFFD6000CF70
00008EFFFFFFFFFFEA500000CF70
0000016ADEFEEC9510000000CF70
ENDCHAR
STARTCHAR udieresis
ENCODING 252
SWIDTH 931 0
DWIDTH 34 0
BBX 27 29 3 0
BITMAP
000000002FF70001FF8000000000
000000002FF70001FF8000000000
000000002FF70001FF8000000000
0000000000000000000000000000
0000000000000000000000000000
1FF300000000000000000000CF70
1FF300000000000000000000CF70
1FF300000000000000000000CF70
1FF300000000000000000000CF70
1FF300000000000000000000CF70
1FF300000000000000000000CF70
1FF300000000000000000000CF70
1FF300000000000000000000CF70
1FF300000000000000000000CF70
1FF300000000000000000000CF70
1FF300000000000000000000CF70
1FF300000000000000000000CF70
1FF300000000000000000000CF70
1FF300000000000000000000CF70
1FF300000000000000000000CF70
1FF300000000000000000000CF70
0FF400000000000000000000CF70
0DF600000000000000000008FF70
0AFA000000000000000003CFFF70
04FF2000000000000002AFFBDF70
00AFD2000000000015BFFD50CF70
001CFF952101146BFFFD6000CF70
00008EFFFFFFFFFFEA500000CF70
0000016ADEFEEC9510000000CF70
ENDCHAR
STARTCHAR yacute
ENCODING 253
SWIDTH 911 0
DWIDTH 33 0
BBX 26 31 3 0
BITMAP
00000000000000002980000000
000000000000002AFFE1000000
0000000000003AFFD710000000
00000000001BFFB50000000000
00000000000B92000000000000
00000000000000000000000000
00000000000000000000000000
CF7000000000000000000008FB
CF7000000000000000000008FB
CF7000000000000000000008FB
CF7000000000000000000008FB
CF7000000000000000000008FB
BF7000000000000000000008FB
BF8000000000000000000008FB
9FA000000000000000000009FB
7FD00000000000000000005FFB
4FF3000000000000000003EFFB
0DFA00000000000000004EFDFB
05FF7000000000000007FF78FB
009FF9100000000004CFF608FB
0009FFE962101247DFFC3008FB
00005CFFFFFFFFFFFC600008FB
00000038BDEFEDB730000009FA
00000000000000000000000CF9
00000000000000000000004FF5
0000000000000000000002DFD0
000000000000000000004DFF30
A830000000000000003AFFE500
CFFEB853210012369DFFFC2000
CFFFFFFFFFFFFFFFFFFB500000
1468ABCEEFFFEECA8510000000
ENDCHAR
STARTCHAR thorn
ENCODING 254
SWIDTH 787 0
DWIDTH 28 0
BBX 23 24 4 0
BITMAP
EF4000000000000000000000
EF4000000000000000000000
EF4000000000000000000000
EF4000000000000000000000
EFFFFFFFFFFFEEDA83000000
EFFFFFFFFFFFFFFFFFC40000
EF40000000011246AEFF6000
EF4000000000000002BFF300
EF40000000000000001DFA00
EF400000000000000006FE00
EF400000000000000003FF10
EF400000000000000002FF20
EF400000000000000003FF10
EF400000000000000006FE00
EF40000000000000000DFA00
EF4000000000000001BFF200
EF400000000001258EFF6000
EFFFFFFFFFFFFFFFFFC40000
EFFFFFFFFFFFFEDA83000000
EF4000000000000000000000
EF4000000000000000000000
EF4000000000000000000000
EF4000000000000000000000
EF4000000000000000000000
ENDCHAR
STARTCHAR ydieresis
ENCODING 255
SWIDTH 911 0
DWIDTH 33 0
BBX 26 29 3 0
BITMAP
00000000DFB0000CFC00000000
00000000DFB0000CFC00000000
00000000DFB0000CFC00000000
00000000000000000000000000
00000000000000000000000000
CF7000000000000000000008FB
CF7000000000000000000008FB
CF7000000000000000000008FB
CF7000000000000000000008FB
CF7000000000000000000008FB
BF7000000000000000000008FB
BF8000000000000000000008FB
9FA000000000000000000009FB
7FD00000000000000000005FFB
4FF3000000000000000003EFFB
0DFA00000000000000004EFDFB
05FF7000000000000007FF78FB
009FF9100000000004CFF608FB
0009FFE962101247DFFC3008FB
00005CFFFFFFFFFFFC600008FB
00000038BDEFEDB730000009FA
00000000000000000000000CF9
00000000000000000000004FF5
0000000000000000000002DFD0
000000000000000000004DFF30
A830000000000000003AFFE500
CFFEB853210012369DFFFC2000
CFFFFFFFFFFFFFFFFFFB500000
1468ABCEEFFFEECA8510000000
ENDCHAR
STARTCHAR Amacron
ENCODING 256
SWIDTH 812 0
DWIDTH 29 0
BBX 29 29 0 0
BITMAP
0000000003FFFFFFFFF70000000000
0000000003FFFFFFFFF70000000000
000000000000000000000000000000
000000000000000000000000000000
000000000000000000000000000000
0000000000000DFF30000000000000
0000000000006FFFB0000000000000
000000000001EF9FF4000000000000
000000000007FE1AFC000000000000
00000000001EF702FF500000000000
00000000008FD0009FC00000000000
0000000002EF60002FF50000000000
0000000009FD000009FD0000000000
000000002FF6000002FF6000000000
00000000AFD00000008FE100000000
00000003FF500000001EF700000000
0000000BFC0000000008FE10000000
0000003FF50000000001EF80000000
000000BFC000000000008FE1000000
000004FF4000000000001EF9000000
00000CFC00000000000007FF200000
00005FFFFFFFFFFFFFFFFFFF900000
0000DFFFFFFFFFFFFFFFFFFFF20000
0006FF30000000000000000DFA0000
000DF9000000000000000005FF3000
007FE2000000000000000000BFB000
01EF800000000000000000003FF400
07FE100000000000000000000AFC00
1EF60000000000000000000002FF50
ENDCHAR
STARTCHAR amacron
ENCODING 257
SWIDTH 888 0
DWIDTH 32 0
BBX 27 29 2 0
BITMAP
000000000FFFFFFFFFA000000000
000000000FFFFFFFFFA000000000
0000000000000000000000000000
0000000000000000000000000000
0000000000000000000000000000
0002478ABDEEFFEEDB8410000000
008FFFFFFFFFFFFFFFFFF9200000
008FFFC864210011358CFFF60000
007A510000000000000028FF7000
00000000000000000000004FF300
000000000000000000000008FA00
000000000000000000000003FE00
000000000000000000000001FF10
000000000000000000000001FF20
0000000000000135689ACDEFFF20
00000000269BEFFFFFFFFFFFFF20
0000049DFFFFFECA87643212FF20
0005CFFFEA74100000000001FF20
00AFFE830000000000000001FF20
0AFF70000000000000000001FF20
4FF400000000000000000001FF20
AFA000000000000000000001FF20
BF7000000000000000000001FF20
AFA000000000000000000001FF20
7FF30000000000000000004CFF20
1EFE50000000000000048EFFFF20
03EFFD84210012468BEFFE94FF20
002AFFFFFFFFFFFFFFE95101FF20
000026ACEFFEDCA853000001FF20
ENDCHAR
STARTCHAR Abreve
ENCODING 258
SWIDTH 812 0
DWIDTH 29 0
BBX 29 30 0 0
BITMAP
000000003FD10000009F8000000000
000000000BFD61014AFE2000000000
0000000001CFFFFFFFE40000000000
000000000006BEFEC8100000000000
000000000000000000000000000000
000000000000000000000000000000
0000000000000DFF30000000000000
0000000000006FFFB0000000000000
000000000001EF9FF4000000000000
000000000007FE1AFC000000000000
00000000001EF702FF500000000000
00000000008FD0009FC00000000000
0000000002EF60002FF50000000000
0000000009FD000009FD0000000000
000000002FF6000002FF6000000000
00000000AFD00000008FE100000000
00000003FF500000001EF700000000
0000000BFC0000000008FE10000000
0000003FF50000000001EF80000000
000000BFC000000000008FE1000000
000004FF4000000000001EF9000000
00000CFC00000000000007FF200000
00005FFFFFFFFFFFFFFFFFFF900000
0000DFFFFFFFFFFFFFFFFFFFF20000
0006FF30000000000000000DFA0000
000DF9000000000000000005FF3000
007FE2000000000000000000BFB000
01EF800000000000000000003FF400
07FE100000000000000000000AFC00
1EF60000000000000000000002FF50
ENDCHAR
STARTCHAR abreve
ENCODING 259
SWIDTH 888 0
DWIDTH 32 0
BBX 27 30 2 0
BITMAP
00000001FE20000007FB00000000
000000009FE720139FF400000000
000000000AFFFFFFFF6000000000
00000000005AEFED920000000000
0000000000000000000000000000
0000000000000000000000000000
0002478ABDEEFFEEDB8410000000
008FFFFFFFFFFFFFFFFFF9200000
008FFFC864210011358CFFF60000
007A510000000000000028FF7000
00000000000000000000004FF300
000000000000000000000008FA00
000000000000000000000003FE00
000000000000000000000001FF10
000000000000000000000001FF20
0000000000000135689ACDEFFF20
00000000269BEFFFFFFFFFFFFF20
0000049DFFFFFECA87643212FF20
0005CFFFEA74100000000001FF20
00AFFE830000000000000001FF20
0AFF70000000000000000001FF20
4FF400000000000000000001FF20
AFA000000000000000000001FF20
BF7000000000000000000001FF20
AFA000000000000000000001FF20
7FF30000000000000000004CFF20
1EFE50000000000000048EFFFF20
03EFFD84210012468BEFFE94FF20
002AFFFFFFFFFFFFFFE95101FF20
000026ACEFFEDCA853000001FF20
ENDCHAR
STARTCHAR Aogonek
ENCODING 260
SWIDTH 812 0
DWIDTH 29 0
BBX 31 30 0 -6
BITMAP
0000000000000DFF3000000000000000
0000000000006FFFB000000000000000
000000000001EF9FF400000000000000
000000000007FE1AFC00000000000000
00000000001EF702FF50000000000000
00000000008FD0009FC0000000000000
0000000002EF60002FF5000000000000
0000000009FD000009FD000000000000
000000002FF6000002FF600000000000
00000000AFD00000008FE10000000000
00000003FF500000001EF70000000000
0000000BFC0000000008FE1000000000
0000003FF50000000001EF8000000000
000000BFC000000000008FE100000000
000004FF4000000000001EF900000000
00000CFC00000000000007FF20000000
00005FFFFFFFFFFFFFFFFFFF90000000
0000DFFFFFFFFFFFFFFFFFFFF2000000
0006FF30000000000000000DFA000000
000DF9000000000000000005FF300000
007FE2000000000000000000BFB00000
01EF800000000000000000003FF40000
07FE100000000000000000000AFC0000
1EF60000000000000000000002FF5000
0000000000000000000000001AE71000
000000000000000000000001DD100000
000000000000000000000008F5000000
00000000000000000000000BFA200000
000000000000000000000007FFFFFFE0
0000000000000000000000006CEFFFE0
ENDCHAR
STARTCHAR aogonek
ENCODING 261
SWIDTH 888 0
DWIDTH 32 0
BBX 29 30 2 -6
BITMAP
0002478ABDEEFFEEDB841000000000
008FFFFFFFFFFFFFFFFFF920000000
008FFFC864210011358CFFF6000000
007A510000000000000028FF700000
00000000000000000000004FF30000
000000000000000000000008FA0000
000000000000000000000003FE0000
000000000000000000000001FF1000
000000000000000000000001FF2000
0000000000000135689ACDEFFF2000
00000000269BEFFFFFFFFFFFFF2000
0000049DFFFFFECA87643212FF2000
0005CFFFEA74100000000001FF2000
00AFFE830000000000000001FF2000
0AFF70000000000000000001FF2000
4FF400000000000000000001FF2000
AFA000000000000000000001FF2000
BF7000000000000000000001FF2000
AFA000000000000000000003FF2000
7FF30000000000000000028EFF2000
1EFE5000000000000016AFFFFF2000
03EFFD84210012469DFFFE94FF2000
002AFFFFFFFFFFFFFFE95101FF2000
000026ACEFFEDCA853000001FF2000
00000000000000000000003CC40000
0000000000000000000004EA000000
000000000000000000000CF1000000
000000000000000000000FF7100000
000000000000000000000BFFFFFFA0
00000000000000000000018DEFFFA0
ENDCHAR
STARTCHAR Cacute
ENCODING 262
SWIDTH 869 0
DWIDTH 31 0
BBX 27 31 2 0
BITMAP
00000000000000000005C2000000
000000000000000005DFF8000000
0000000000000006DFFB50000000
00000000000004DFE92000000000
00000000000003C6100000000000
0000000000000000000000000000
0000000000000000000000000000
000000000369CDEFFEDB97400000
00000017DFFFFFFFFFFFFFFFB620
000006EFFEA7421102348BEFFFC0
0001BFFB5000000000000016CFC0
001CFE50000000000000000004A0
00AFE30000000000000000000000
04FF400000000000000000000000
0BFA000000000000000000000000
2FF4000000000000000000000000
5FE0000000000000000000000000
8FC0000000000000000000000000
9FA0000000000000000000000000
9FA0000000000000000000000000
8FC0000000000000000000000000
5FE0000000000000000000000000
2FF4000000000000000000000000
0BFA000000000000000000000000
04FF400000000000000000000000
00AFE30000000000000000000000
001CFE50000000000000000004A0
0001BFFB4000000000000015BFC0
000006EFFE97421001347BEFFFC0
00000017DFFFFFFFFFFFFFFFB620
00000000036ACDEFFEDC97410000
ENDCHAR
STARTCHAR cacute
ENCODING 263
SWIDTH 869 0
DWIDTH 31 0
BBX 27 31 2 0
BITMAP
00000000000000000005C2000000
000000000000000005CFF9000000
0000000000000006DFFB50000000
00000000000004DFE92000000000
00000000000003C6100000000000
0000000000000000000000000000
0000000000000000000000000000
000000000369CDEFFEDB97400000
00000017DFFFFFFFFFFFFFFFB620
000006EFFEA7421102348BEFFFC0
0001BFFB5000000000000016CFC0
001CFE50000000000000000004A0
00AFE30000000000000000000000
04FF400000000000000000000000
0BFA000000000000000000000000
2FF4000000000000000000000000
5FE0000000000000000000000000
8FC0000000000000000000000000
9FA0000000000000000000000000
9FA0000000000000000000000000
8FC0000000000000000000000000
5FE0000000000000000000000000
2FF4000000000000000000000000
0BFA000000000000000000000000
04FF400000000000000000000000
00AFE30000000000000000000000
001CFE50000000000000000004A0
0001BFFB4000000000000015BFC0
000006EFFE97421001347BEFFFC0
00000017DFFFFFFFFFFFFFFFB620
00000000036ACDEFFEDC97410000
ENDCHAR
STARTCHAR Ccircumflex
ENCODING 264
SWIDTH 869 0
DWIDTH 31 0
BBX 27 31 2 0
BITMAP
000000000000006D700000000000
0000000000005DFFFD5000000000
00000000003CFFC7BFFC40000000
000000001AFFA300039FFB100000
000000000C82000000017C100000
0000000000000000000000000000
0000000000000000000000000000
000000000369CDEFFEDB97400000
00000017DFFFFFFFFFFFFFFFB620
000006EFFEA7421102348BEFFFC0
0001BFFB5000000000000016CFC0
001CFE50000000000000000004A0
00AFE30000000000000000000000
04FF400000000000000000000000
0BFA000000000000000000000000
2FF4000000000000000000000000
5FE0000000000000000000000000
8FC0000000000000000000000000
9FA0000000000000000000000000
9FA0000000000000000000000000
8FC0000000000000000000000000
5FE0000000000000000000000000
2FF4000000000000000000000000
0BFA000000000000000000000000
04FF400000000000000000000000
00AFE30000000000000000000000
001CFE50000000000000000004A0
0001BFFB4000000000000015BFC0
000006EFFE97421001347BEFFFC0
00000017DFFFFFFFFFFFFFFFB620
00000000036ACDEFFEDC97410000
ENDCHAR
STARTCHAR ccircumflex
ENCODING 265
SWIDTH 869 0
DWIDTH 31 0
BBX 27 31 2 0
BITMAP
000000000000006D710000000000
0000000000005DFFFD6000000000
00000000003BFFC7BFFC40000000
000000001AFFA300039FFB200000
000000000B82000000017C100000
0000000000000000000000000000
0000000000000000000000000000
000000000369CDEFFEDB97400000
00000017DFFFFFFFFFFFFFFFB620
000006EFFEA7421102348BEFFFC0
0001BFFB5000000000000016CFC0
001CFE50000000000000000004A0
00AFE30000000000000000000000
04FF400000000000000000000000
0BFA000000000000000000000000
2FF4000000000000000000000000
5FE0000000000000000000000000
8FC0000000000000000000000000
9FA0000000000000000000000000
9FA0000000000000000000000000
8FC0000000000000000000000000
5FE0000000000000000000000000
2FF4000000000000000000000000
0BFA000000000000000000000000
04FF400000000000000000000000
00AFE30000000000000000000000
001CFE50000000000000000004A0
0001BFFB4000000000000015BFC0
000006EFFE97421001347BEFFFC0
00000017DFFFFFFFFFFFFFFFB620
00000000036ACDEFFEDC97410000
ENDCHAR
STARTCHAR Cdotaccent
ENCODING 266
SWIDTH 869 0
DWIDTH 31 0
BBX 27 29 2 0
BITMAP
00000000000000CFD00000000000
00000000000000CFD00000000000
00000000000000CFD00000000000
0000000000000000000000000000
0000000000000000000000000000
000000000369CDEFFEDB97400000
00000017DFFFFFFFFFFFFFFFB620
000006EFFEA7421102348BEFFFC0
0001BFFB5000000000000016CFC0
001CFE50000000000000000004A0
00AFE30000000000000000000000
04FF400000000000000000000000
0BFA000000000000000000000000
2FF4000000000000000000000000
5FE0000000000000000000000000
8FC0000000000000000000000000
9FA0000000000000000000000000
9FA0000000000000000000000000
8FC0000000000000000000000000
5FE0000000000000000000000000
2FF4000000000000000000000000
0BFA000000000000000000000000
04FF400000000000000000000000
00AFE30000000000000000000000
001CFE50000000000000000004A0
0001BFFB4000000000000015BFC0
000006EFFE97421001347BEFFFC0
00000017DFFFFFFFFFFFFFFFB620
00000000036ACDEFFEDC97410000
ENDCHAR
STARTCHAR cdotaccent
ENCODING 267
SWIDTH 869 0
DWIDTH 31 0
BBX 27 29 2 0
BITMAP
00000000000000CFE00000000000
00000000000000CFE00000000000
00000000000000CFE00000000000
0000000000000000000000000000
0000000000000000000000000000
000000000369CDEFFEDB97400000
00000017DFFFFFFFFFFFFFFFB620
000006EFFEA7421102348BEFFFC0
0001BFFB5000000000000016CFC0
001CFE50000000000000000004A0
00AFE30000000000000000000000
04FF400000000000000000000000
0BFA000000000000000000000000
2FF4000000000000000000000000
5FE0000000000000000000000000
8FC0000000000000000000000000
9FA0000000000000000000000000
9FA0000000000000000000000000
8FC0000000000000000000000000
5FE0000000000000000000000000
2FF4000000000000000000000000
0BFA000000000000000000000000
04FF400000000000000000000000
00AFE30000000000000000000000
001CFE50000000000000000004A0
0001BFFB4000000000000015BFC0
000006EFFE97421001347BEFFFC0
00000017DFFFFFFFFFFFFFFFB620
00000000036ACDEFFEDC97410000
ENDCHAR
STARTCHAR Ccaron
ENCODING 268
SWIDTH 869 0
DWIDTH 31 0
BBX 27 31 2 0
BITMAP
000000000B82000000017C100000
000000001AFFA300039FFB200000
00000000004CFFB6BFFC40000000
0000000000005DFFFD6000000000
000000000000007D700000000000
0000000000000000000000000000
0000000000000000000000000000
000000000369CDEFFEDB97400000
00000017DFFFFFFFFFFFFFFFB620
000006EFFEA7421102348BEFFFC0
0001BFFB5000000000000016CFC0
001CFE50000000000000000004A0
00AFE30000000000000000000000
04FF400000000000000000000000
0BFA000000000000000000000000
2FF4000000000000000000000000
5FE0000000000000000000000000
8FC0000000000000000000000000
9FA0000000000000000000000000
9FA0000000000000000000000000
8FC0000000000000000000000000
5FE0000000000000000000000000
2FF4000000000000000000000000
0BFA000000000000000000000000
04FF400000000000000000000000
00AFE30000000000000000000000
001CFE50000000000000000004A0
0001BFFB4000000000000015BFC0
000006EFFE97421001347BEFFFC0
00000017DFFFFFFFFFFFFFFFB620
00000000036ACDEFFEDC97410000
ENDCHAR
STARTCHAR ccaron
ENCODING 269
SWIDTH 869 0
DWIDTH 31 0
BBX 27 31 2 0
BITMAP
000000000B82000000017C100000
000000001AFFA300029EFB200000
00000000003CFFB6BFFC40000000
0000000000005DFFFD6000000000
000000000000006D710000000000
0000000000000000000000000000
0000000000000000000000000000
000000000369CDEFFEDB97400000
00000017DFFFFFFFFFFFFFFFB620
000006EFFEA7421102348BEFFFC0
0001BFFB5000000000000016CFC0
001CFE50000000000000000004A0
00AFE30000000000000000000000
04FF400000000000000000000000
0BFA000000000000000000000000
2FF4000000000000000000000000
5FE0000000000000000000000000
8FC0000000000000000000000000
9FA0000000000000000000000000
9FA0000000000000000000000000
8FC0000000000000000000000000
5FE0000000000000000000000000
2FF4000000000000000000000000
0BFA000000000000000000000000
04FF400000000000000000000000
00AFE30000000000000000000000
001CFE50000000000000000004A0
0001BFFB4000000000000015BFC0
000006EFFE97421001347BEFFFC0
00000017DFFFFFFFFFFFFFFFB620
00000000036ACDEFFEDC97410000
ENDCHAR
STARTCHAR Dcaron
ENCODING 270
SWIDTH 910 0
DWIDTH 33 0
BBX 27 31 4 0
BITMAP
0008A3000000006C300000000000
0008FFB500017EFD400000000000
00002AFFD79FFE60000000000000
0000003BFFFE8100000000000000
000000004C920000000000000000
0000000000000000000000000000
0000000000000000000000000000
EFFFFFFFFFFFFEDCA84000000000
EFFFFFFFFFFFFFFFFFFE81000000
EF4000000000012358DFFE500000
EF400000000000000004CFF60000
EF40000000000000000009FF4000
EF40000000000000000000AFD000
EF400000000000000000001EF700
EF4000000000000000000009FC00
EF4000000000000000000004FF10
EF4000000000000000000001FF40
EF4000000000000000000000EF50
EF4000000000000000000000DF60
EF4000000000000000000000DF60
EF4000000000000000000000FF50
EF4000000000000000000001FF30
EF4000000000000000000005FF10
EF4000000000000000000009FC00
EF400000000000000000002EF700
EF40000000000000000000BFE100
EF4000000000000000000AFF5000
EF400000000000000004CFF70000
EF4000000000011358DFFE600000
EFFFFFFFFFFFFFFFFFFE81000000
EFFFFFFFFFFFFEDCB84000000000
ENDCHAR
STARTCHAR dcaron
ENCODING 271
SWIDTH 910 0
DWIDTH 33 0
BBX 27 31 4 0
BITMAP
0008A3000000005C300000000000
0007EFC500017DFD400000000000
000029FFD79EFE70000000000000
0000003BFFFF8100000000000000
000000004CA20000000000000000
0000000000000000000000000000
0000000000000000000000000000
EFFFFFFFFFFFFEDCA84000000000
EFFFFFFFFFFFFFFFFFFE81000000
EF4000000000012358DFFE500000
EF400000000000000004CFF60000
EF40000000000000000009FF4000
EF40000000000000000000AFD000
EF400000000000000000001EF700
EF4000000000000000000009FC00
EF4000000000000000000004FF10
EF4000000000000000000001FF40
EF4000000000000000000000EF50
EF4000000000000000000000DF60
EF4000000000000000000000DF60
EF4000000000000000000000FF50
EF4000000000000000000001FF30
EF4000000000000000000005FF10
EF4000000000000000000009FC00
EF400000000000000000002EF700
EF40000000000000000000BFE100
EF4000000000000000000AFF5000
EF400000000000000004CFF70000
EF4000000000011358DFFE600000
EFFFFFFFFFFFFFFFFFFE81000000
EFFFFFFFFFFFFEDCB84000000000
ENDCHAR
STARTCHAR Dcroat
ENCODING 272
SWIDTH 910 0
DWIDTH 33 0
BBX 31 24 0 0
BITMAP
0000EFFFFFFFFFFEEDCB862000000000
0000EFFFFFFFFFFFFFFFFFFD71000000
0000EF400000000112469DFFFD500000
0000EF400000000000000029FFF70000
0000EF4000000000000000002DFF5000
0000EF40000000000000000001CFE100
0000EF400000000000000000003FF700
0000EF400000000000000000000AFC00
0000EF4000000000000000000005FF10
0000EF4000000000000000000001FF40
0000EF4000000000000000000000FF50
7FFFFFFFFFFFFFFF200000000000DF60
7FFFFFFFFFFFFFFF200000000000DF60
0000EF4000000000000000000000EF50
0000EF4000000000000000000001FF40
0000EF4000000000000000000004FF10
0000EF4000000000000000000009FC00
0000EF400000000000000000001EF600
0000EF40000000000000000000AFE100
0000EF4000000000000000000AFF5000
0000EF400000000000000005DFF70000
0000EF400000000111357AEFFE500000
0000EFFFFFFFFFFFFFFFFFFD71000000
0000EFFFFFFFFFFEEDCB862000000000
ENDCHAR
STARTCHAR dcroat
ENCODING 273
SWIDTH 910 0
DWIDTH 33 0
BBX 31 24 0 0
BITMAP
0000EFFFFFFFFFFEEDCB862000000000
0000EFFFFFFFFFFFFFFFFFFD71000000
0000EF400000000112469DFFFD500000
0000EF400000000000000029FFF70000
0000EF4000000000000000002DFF5000
0000EF40000000000000000001CFE100
0000EF400000000000000000003FF700
0000EF400000000000000000000AFC00
0000EF4000000000000000000005FF10
0000EF4000000000000000000001FF40
0000EF4000000000000000000000FF50
7FFFFFFFFFFFFFFF200000000000DF60
7FFFFFFFFFFFFFFF200000000000DF60
0000EF4000000000000000000000EF50
0000EF4000000000000000000001FF40
0000EF4000000000000000000004FF10
0000EF4000000000000000000009FC00
0000EF400000000000000000001EF600
0000EF40000000000000000000AFE100
0000EF4000000000000000000AFF5000
0000EF400000000000000005DFF70000
0000EF400000000111357AEFFE500000
0000EFFFFFFFFFFFFFFFFFFD71000000
0000EFFFFFFFFFFEEDCB862000000000
ENDCHAR
STARTCHAR Emacron
ENCODING 274
SWIDTH 754 0
DWIDTH 27 0
BBX 21 29 4 0
BITMAP
00000DFFFFFFFFC0000000
00000DFFFFFFFFC0000000
0000000000000000000000
0000000000000000000000
0000000000000000000000
EFFFFFFFFFFFFFFFFFFF30
EFFFFFFFFFFFFFFFFFFF30
EF70000000000000000000
EF70000000000000000000
EF70000000000000000000
EF70000000000000000000
EF70000000000000000000
EF70000000000000000000
EF70000000000000000000
EF70000000000000000000
EFFFFFFFFFFFFFFFFFF400
EFFFFFFFFFFFFFFFFFF400
EF70000000000000000000
EF70000000000000000000
EF70000000000000000000
EF70000000000000000000
EF70000000000000000000
EF70000000000000000000
EF70000000000000000000
EF70000000000000000000
EF70000000000000000000
EF70000000000000000000
EFFFFFFFFFFFFFFFFFFF70
EFFFFFFFFFFFFFFFFFFF70
ENDCHAR
STARTCHAR emacron
ENCODING 275
SWIDTH 910 0
DWIDTH 33 0
BBX 29 29 2 0
BITMAP
0000000006FFFFFFFFF40000000000
0000000006FFFFFFFFF40000000000
000000000000000000000000000000
000000000000000000000000000000
000000000000000000000000000000
00000000048BDEFEDC952000000000
00000028EFFFFFFFFFFFFA30000000
000006EFFC842101237AFFF9000000
0001BFFB40000000000018FFC10000
000BFF60000000000000003DFB0000
008FF4000000000000000002DF8000
03FF600000000000000000003FE100
0BFC000000000000000000000AF800
1FF50000000000000000000004FC00
5FE00000000000000000000000FF10
8FB00000000000000000000000DF30
9FFFFFFFFFFFFFFFFFFFFFFFFFFF50
9FFFFFFFFFFFFFFFFFFFFFFFFFFF60
8FB000000000000000000000000000
6FE000000000000000000000000000
2FF400000000000000000000000000
0CFA00000000000000000000000000
04FF50000000000000000000000000
009FE3000000000000000000000000
001BFE600000000000000000000000
0000BFFC5100000000000000496000
000006EFFEA75211012358BEFF6000
00000017CFFFFFFFFFFFFFFFFF6000
000000000369CDEFFFEDCB97520000
ENDCHAR
STARTCHAR Ebreve
ENCODING 276
SWIDTH 754 0
DWIDTH 27 0
BBX 21 30 4 0
BITMAP
0000EF40000005FC000000
00007FE820038FF5000000
000009FFFFFFFF70000000
0000004ADFED9300000000
0000000000000000000000
0000000000000000000000
EFFFFFFFFFFFFFFFFFFF30
EFFFFFFFFFFFFFFFFFFF30
EF70000000000000000000
EF70000000000000000000
EF70000000000000000000
EF70000000000000000000
EF70000000000000000000
EF70000000000000000000
EF70000000000000000000
EF70000000000000000000
EFFFFFFFFFFFFFFFFFF400
EFFFFFFFFFFFFFFFFFF400
EF70000000000000000000
EF70000000000000000000
EF70000000000000000000
EF70000000000000000000
EF70000000000000000000
EF70000000000000000000
EF70000000000000000000
EF70000000000000000000
EF70000000000000000000
EF70000000000000000000
EFFFFFFFFFFFFFFFFFFF70
EFFFFFFFFFFFFFFFFFFF70
ENDCHAR
STARTCHAR ebreve
ENCODING 277
SWIDTH 910 0
DWIDTH 33 0
BBX 29 30 2 0
BITMAP
000000007FB0000001CF5000000000
000000001EFB41015CFC0000000000
0000000003EFFFFFFFD20000000000
000000000017CEFEB6100000000000
000000000000000000000000000000
000000000000000000000000000000
00000000048BDEFEDC952000000000
00000028EFFFFFFFFFFFFA30000000
000006EFFC842101237AFFF9000000
0001BFFB40000000000018FFC10000
000BFF60000000000000003DFB0000
008FF4000000000000000002DF8000
03FF600000000000000000003FE100
0BFC000000000000000000000AF800
1FF50000000000000000000004FC00
5FE00000000000000000000000FF10
8FB00000000000000000000000DF30
9FFFFFFFFFFFFFFFFFFFFFFFFFFF50
9FFFFFFFFFFFFFFFFFFFFFFFFFFF60
8FB000000000000000000000000000
6FE000000000000000000000000000
2FF400000000000000000000000000
0CFA00000000000000000000000000
04FF50000000000000000000000000
009FE3000000000000000000000000
001BFE600000000000000000000000
0000BFFC5100000000000000496000
000006EFFEA75211012358BEFF6000
00000017CFFFFFFFFFFFFFFFFF6000
000000000369CDEFFFEDCB97520000
ENDCHAR
STARTCHAR Edotaccent
ENCODING 278
SWIDTH 754 0
DWIDTH 27 0
BBX 21 29 4 0
BITMAP
000000006FF40000000000
000000006FF40000000000
000000006FF40000000000
0000000000000000000000
0000000000000000000000
EFFFFFFFFFFFFFFFFFFF30
EFFFFFFFFFFFFFFFFFFF30
EF70000000000000000000
EF70000000000000000000
EF70000000000000000000
EF70000000000000000000
EF70000000000000000000
EF70000000000000000000
EF70000000000000000000
EF70000000000000000000
EFFFFFFFFFFFFFFFFFF400
EFFFFFFFFFFFFFFFFFF400
EF70000000000000000000
EF70000000000000000000
EF70000000000000000000
EF70000000000000000000
EF70000000000000000000
EF70000000000000000000
EF70000000000000000000
EF70000000000000000000
EF70000000000000000000
EF70000000000000000000
EFFFFFFFFFFFFFFFFFFF70
EFFFFFFFFFFFFFFFFFFF70
ENDCHAR
STARTCHAR edotaccent
ENCODING 279
SWIDTH 910 0
DWIDTH 33 0
BBX 29 29 2 0
BITMAP
0000000000000EFC00000000000000
0000000000000EFC00000000000000
0000000000000EFC00000000000000
000000000000000000000000000000
000000000000000000000000000000
00000000048BDEFEDC952000000000
00000028EFFFFFFFFFFFFA30000000
000006EFFC842101237AFFF9000000
0001BFFB40000000000018FFC10000
000BFF60000000000000003DFB0000
008FF4000000000000000002DF8000
03FF600000000000000000003FE100
0BFC000000000000000000000AF800
1FF50000000000000000000004FC00
5FE00000000000000000000000FF10
8FB00000000000000000000000DF30
9FFFFFFFFFFFFFFFFFFFFFFFFFFF50
9FFFFFFFFFFFFFFFFFFFFFFFFFFF60
8FB000000000000000000000000000
6FE000000000000000000000000000
2FF400000000000000000000000000
0CFA00000000000000000000000000
04FF50000000000000000000000000
009FE3000000000000000000000000
001BFE600000000000000000000000
0000BFFC5100000000000000496000
000006EFFEA75211012358BEFF6000
00000017CFFFFFFFFFFFFFFFFF6000
000000000369CDEFFFEDCB97520000
ENDCHAR
STARTCHAR Eogonek
ENCODING 280
SWIDTH 754 0
DWIDTH 27 0
BBX 21 30 4 -6
BITMAP
EFFFFFFFFFFFFFFFFFFF30
EFFFFFFFFFFFFFFFFFFF30
EF70000000000000000000
EF70000000000000000000
EF70000000000000000000
EF70000000000000000000
EF70000000000000000000
EF70000000000000000000
EF70000000000000000000
EF70000000000000000000
EFFFFFFFFFFFFFFFFFF400
EFFFFFFFFFFFFFFFFFF400
EF70000000000000000000
EF70000000000000000000
EF70000000000000000000
EF70000000000000000000
EF70000000000000000000
EF70000000000000000000
EF70000000000000000000
EF70000000000000000000
EF70000000000000000000
EF70000000000000000000
EFFFFFFFFFFFFFFFFFFF70
EFFFFFFFFFFFFFFFFFFF70
000000000000005ED73100
00000000000006F9000000
0000000000001FD0000000
0000000000003FE4100000
0000000000001EFFFFFF70
000000000000029DEFFF70
ENDCHAR
STARTCHAR eogonek
ENCODING 281
SWIDTH 910 0
DWIDTH 33 0
BBX 29 30 2 -6
BITMAP
00000000048BDEFEDC952000000000
00000028EFFFFFFFFFFFFA30000000
000006EFFC842101237AFFF9000000
0001BFFB40000000000018FFC10000
000BFF60000000000000003DFB0000
008FF4000000000000000002DF8000
03FF600000000000000000003FE100
0BFC000000000000000000000AF800
1FF50000000000000000000004FC00
5FE00000000000000000000000FF10
8FB00000000000000000000000DF30
9FFFFFFFFFFFFFFFFFFFFFFFFFFF50
9FFFFFFFFFFFFFFFFFFFFFFFFFFF60
8FB000000000000000000000000000
6FE000000000000000000000000000
2FF400000000000000000000000000
0CFA00000000000000000000000000
04FF50000000000000000000000000
009FE3000000000000000000000000
001BFE600000000000000000000000
0000BFFC5100000000000000496000
000006EFFEA75211012358BEFF6000
00000017CFFFFFFFFFFFFFFFFF6000
000000000369CDEFFFEDCBFFD61000
000000000000000000000AF9100000
000000000000000000005FB0000000
00000000000000000000AF50000000
00000000000000000000BFB2000000
000000000000000000005FFFFFFE00
0000000000000000000005BEFFFE00
ENDCHAR
STARTCHAR Ecaron
ENCODING 282
SWIDTH 754 0
DWIDTH 27 0
BBX 21 31 4 0
BITMAP
0007B4000000005B500000
0006EFC600016DFE500000
000018FFE78EFE81000000
0000002AFFFF9100000000
000000003BA20000000000
0000000000000000000000
0000000000000000000000
EFFFFFFFFFFFFFFFFFFF30
EFFFFFFFFFFFFFFFFFFF30
EF70000000000000000000
EF70000000000000000000
EF70000000000000000000
EF70000000000000000000
EF70000000000000000000
EF70000000000000000000
EF70000000000000000000
EF70000000000000000000
EFFFFFFFFFFFFFFFFFF400
EFFFFFFFFFFFFFFFFFF400
EF70000000000000000000
EF70000000000000000000
EF70000000000000000000
EF70000000000000000000
EF70000000000000000000
EF70000000000000000000
EF70000000000000000000
EF70000000000000000000
EF70000000000000000000
EF70000000000000000000
EFFFFFFFFFFFFFFFFFFF70
EFFFFFFFFFFFFFFFFFFF70
ENDCHAR
STARTCHAR ecaron
ENCODING 283
SWIDTH 910 0
DWIDTH 33 0
BBX 29 31 2 0
BITMAP
00000001C71000000028B000000000
00000002BFE920003AFFA100000000
0000000004CFFB6BFFC30000000000
000000000006DFFFD5000000000000
00000000000017D600000000000000
000000000000000000000000000000
000000000000000000000000000000
00000000048BDEFEDC952000000000
00000028EFFFFFFFFFFFFA30000000
000006EFFC842101237AFFF9000000
0001BFFB40000000000018FFC10000
000BFF60000000000000003DFB0000
008FF4000000000000000002DF8000
03FF600000000000000000003FE100
0BFC000000000000000000000AF800
1FF50000000000000000000004FC00
5FE00000000000000000000000FF10
8FB00000000000000000000000DF30
9FFFFFFFFFFFFFFFFFFFFFFFFFFF50
9FFFFFFFFFFFFFFFFFFFFFFFFFFF60
8FB000000000000000000000000000
6FE000000000000000000000000000
2FF400000000000000000000000000
0CFA00000000000000000000000000
04FF50000000000000000000000000
009FE3000000000000000000000000
001BFE600000000000000000000000
0000BFFC5100000000000000496000
000006EFFEA75211012358BEFF6000
00000017CFFFFFFFFFFFFFFFFF6000
000000000369CDEFFFEDCB97520000
ENDCHAR
STARTCHAR Gcircumflex
ENCODING 284
SWIDTH 910 0
DWIDTH 33 0
BBX 28 31 2 0
BITMAP
000000000000004C920000000000
0000000000003BFFFE8100000000
000000000029FFD79FFE60000000
0000000007EFC500018EFD400000
0000000008A3000000006C300000
0000000000000000000000000000
0000000000000000000000000000
000000000158BDEFFEEDA8520000
00000006CFFFFFFFFFFFFFFFD840
000005DFFFB85321012369DFFFF4
0001AFFD61000000000000039EF4
000BFF7000000000000000000293
009FE40000000000000000000000
04FF500000000000000000000000
0BFB000000000000000000000000
2FF4000000000000000000000000
5FE0000000000000000000000000
8FC0000000000000000000000000
9FA0000000000000000000000000
9FA0000000000003FFFFFFFFFFFC
8FC0000000000003FFFFFFFFFFFC
6FE00000000000000000000006FC
2FF50000000000000000000006FC
0CFC0000000000000000000006FC
04FF6000000000000000000006FC
009FF600000000000000000006FC
001BFF81000000000000000006FC
0000AFFE710000000000000006FC
000005DFFFB853210012357ACFFC
00000006BFFFFFFFFFFFFFFFFD94
000000000258BDEEFEEDCA852000
ENDCHAR
STARTCHAR gcircumflex
ENCODING 285
SWIDTH 910 0
DWIDTH 33 0
BBX 28 31 2 0
BITMAP
000000000000004C920000000000
0000000000003BFFFE8100000000
000000000029FFD79FFE60000000
0000000007EFC500018EFD400000
0000000008A3000000006C300000
0000000000000000000000000000
0000000000000000000000000000
000000000158BDEFFEEDA8520000
00000006CFFFFFFFFFFFFFFFD840
000005DFFFB85321012369DFFFF4
0001AFFD61000000000000039EF4
000BFF7000000000000000000293
009FE40000000000000000000000
04FF500000000000000000000000
0BFB000000000000000000000000
2FF4000000000000000000000000
5FE0000000000000000000000000
8FC0000000000000000000000000
9FA0000000000000000000000000
9FA0000000000003FFFFFFFFFFFC
8FC0000000000003FFFFFFFFFFFC
6FE00000000000000000000006FC
2FF50000000000000000000006FC
0CFC0000000000000000000006FC
04FF6000000000000000000006FC
009FF600000000000000000006FC
001BFF81000000000000000006FC
0000AFFE710000000000000006FC
000005DFFFB853210012357ACFFC
00000006BFFFFFFFFFFFFFFFFD94
000000000258BDEEFEEDCA852000
ENDCHAR
STARTCHAR Gbreve
ENCODING 286
SWIDTH 910 0
DWIDTH 33 0
BBX 28 30 2 0
BITMAP
0000000001FE20000007FB000000
00000000009FE720139FF3000000
00000000001AFFFFFFFF60000000
0000000000005AEFED9200000000
0000000000000000000000000000
0000000000000000000000000000
000000000158BDEFFEEDA8520000
00000006CFFFFFFFFFFFFFFFD840
000005DFFFB85321012369DFFFF4
0001AFFD61000000000000039EF4
000BFF7000000000000000000293
009FE40000000000000000000000
04FF500000000000000000000000
0BFB000000000000000000000000
2FF4000000000000000000000000
5FE0000000000000000000000000
8FC0000000000000000000000000
9FA0000000000000000000000000
9FA0000000000003FFFFFFFFFFFC
8FC0000000000003FFFFFFFFFFFC
6FE00000000000000000000006FC
2FF50000000000000000000006FC
0CFC0000000000000000000006FC
04FF6000000000000000000006FC
009FF600000000000000000006FC
001BFF81000000000000000006FC
0000AFFE710000000000000006FC
000005DFFFB853210012357ACFFC
00000006BFFFFFFFFFFFFFFFFD94
000000000258BDEEFEEDCA852000
ENDCHAR
STARTCHAR gbreve
ENCODING 287
SWIDTH 910 0
DWIDTH 33 0
BBX 28 30 2 0
BITMAP
0000000001FE20000007FB000000
00000000009FE720139FF3000000
00000000001AFFFFFFFF60000000
0000000000005AEFED9200000000
0000000000000000000000000000
0000000000000000000000000000
000000000158BDEFFEEDA8520000
00000006CFFFFFFFFFFFFFFFD840
000005DFFFB85321012369DFFFF4
0001AFFD61000000000000039EF4
000BFF7000000000000000000293
009FE40000000000000000000000
04FF500000000000000000000000
0BFB000000000000000000000000
2FF4000000000000000000000000
5FE0000000000000000000000000
8FC0000000000000000000000000
9FA0000000000000000000000000
9FA0000000000003FFFFFFFFFFFC
8FC0000000000003FFFFFFFFFFFC
6FE00000000000000000000006FC
2FF50000000000000000000006FC
0CFC0000000000000000000006FC
04FF6000000000000000000006FC
009FF600000000000000000006FC
001BFF81000000000000000006FC
0000AFFE710000000000000006FC
000005DFFFB853210012357ACFFC
00000006BFFFFFFFFFFFFFFFFD94
000000000258BDEEFEEDCA852000
ENDCHAR
STARTCHAR Gdotaccent
ENCODING 288
SWIDTH 910 0
DWIDTH 33 0
BBX 28 29 2 0
BITMAP
000000000000008FF30000000000
000000000000008FF30000000000
000000000000008FF30000000000
0000000000000000000000000000
0000000000000000000000000000
000000000158BDEFFEEDA8520000
00000006CFFFFFFFFFFFFFFFD840
000005DFFFB85321012369DFFFF4
0001AFFD61000000000000039EF4
000BFF7000000000000000000293
009FE40000000000000000000000
04FF500000000000000000000000
0BFB000000000000000000000000
2FF4000000000000000000000000
5FE0000000000000000000000000
8FC0000000000000000000000000
9FA0000000000000000000000000
9FA0000000000003FFFFFFFFFFFC
8FC0000000000003FFFFFFFFFFFC
6FE00000000000000000000006FC
2FF50000000000000000000006FC
0CFC0000000000000000000006FC
04FF6000000000000000000006FC
009FF600000000000000000006FC
001BFF81000000000000000006FC
0000AFFE710000000000000006FC
000005DFFFB853210012357ACFFC
00000006BFFFFFFFFFFFFFFFFD94
000000000258BDEEFEEDCA852000
ENDCHAR
STARTCHAR gdotaccent
ENCODING 289
SWIDTH 910 0
DWIDTH 33 0
BBX 28 29 2 0
BITMAP
000000000000008FF30000000000
000000000000008FF30000000000
000000000000008FF30000000000
0000000000000000000000000000
0000000000000000000000000000
000000000158BDEFFEEDA8520000
00000006CFFFFFFFFFFFFFFFD840
000005DFFFB85321012369DFFFF4
0001AFFD61000000000000039EF4
000BFF7000000000000000000293
009FE40000000000000000000000
04FF500000000000000000000000
0BFB000000000000000000000000
2FF4000000000000000000000000
5FE0000000000000000000000000
8FC0000000000000000000000000
9FA0000000000000000000000000
9FA0000000000003FFFFFFFFFFFC
8FC0000000000003FFFFFFFFFFFC
6FE00000000000000000000006FC
2FF50000000000000000000006FC
0CFC0000000000000000000006FC
04FF6000000000000000000006FC
009FF600000000000000000006FC
001BFF81000000000000000006FC
0000AFFE710000000000000006FC
000005DFFFB853210012357ACFFC
00000006BFFFFFFFFFFFFFFFFD94
000000000258BDEEFEEDCA852000
ENDCHAR
STARTCHAR Gcommaaccent
ENCODING 290
SWIDTH 910 0
DWIDTH 33 0
BBX 28 32 2 -8
BITMAP
000000000158BDEFFEEDA8520000
00000006CFFFFFFFFFFFFFFFD840
000005DFFFB85321012369DFFFF4
0001AFFD61000000000000039EF4
000BFF7000000000000000000293
009FE40000000000000000000000
04FF500000000000000000000000
0BFB000000000000000000000000
2FF4000000000000000000000000
5FE0000000000000000000000000
8FC0000000000000000000000000
9FA0000000000000000000000000
9FA0000000000003FFFFFFFFFFFC
8FC0000000000003FFFFFFFFFFFC
6FE00000000000000000000006FC
2FF50000000000000000000006FC
0CFC0000000000000000000006FC
04FF6000000000000000000006FC
009FF600000000000000000006FC
001BFF81000000000000000006FC
0000AFFE710000000000000006FC
000005DFFFB853210012357ACFFC
00000006BFFFFFFFFFFFFFFFFD94
000000000258BDEEFEEDCA852000
0000000000000000000000000000
0000000000000000000000000000
0000000000000000000000000000
000000000000000DF90000000000
000000000000000FF50000000000
000000000000002FF10000000000
000000000000004FB00000000000
000000000000006F700000000000
ENDCHAR
STARTCHAR gcommaaccent
ENCODING 291
SWIDTH 910 0
DWIDTH 33 0
BBX 28 32 2 -8
BITMAP
000000000158BDEFFEEDA8520000
00000006CFFFFFFFFFFFFFFFD840
000005DFFFB85321012369DFFFF4
0001AFFD61000000000000039EF4
000BFF7000000000000000000293
009FE40000000000000000000000
04FF500000000000000000000000
0BFB000000000000000000000000
2FF4000000000000000000000000
5FE0000000000000000000000000
8FC0000000000000000000000000
9FA0000000000000000000000000
9FA0000000000003FFFFFFFFFFFC
8FC0000000000003FFFFFFFFFFFC
6FE00000000000000000000006FC
2FF50000000000000000000006FC
0CFC0000000000000000000006FC
04FF6000000000000000000006FC
009FF600000000000000000006FC
001BFF81000000000000000006FC
0000AFFE710000000000000006FC
000005DFFFB853210012357ACFFC
00000006BFFFFFFFFFFFFFFFFD94
000000000258BDEEFEEDCA852000
0000000000000000000000000000
0000000000000000000000000000
0000000000000000000000000000
000000000000000DF90000000000
000000000000000FF50000000000
000000000000002FF10000000000
000000000000004FB00000000000
000000000000006F700000000000
ENDCHAR
STARTCHAR Hcircumflex
ENCODING 292
SWIDTH 949 0
DWIDTH 34 0
BBX 27 31 4 0
BITMAP
000000000002AC30000000000000
00000000019FFFFA200000000000
000000007EFE98EFF91000000000
0000004DFD710006CFE700000000
0000004C5000000004A700000000
0000000000000000000000000000
0000000000000000000000000000
EF4000000000000000000002FF10
EF4000000000000000000002FF10
EF4000000000000000000002FF10
EF4000000000000000000002FF10
EF4000000000000000000002FF10
EF4000000000000000000002FF10
EF4000000000000000000002FF10
EF4000000000000000000002FF10
EF4000000000000000000002FF10
EF4000000000000000000002FF10
EFFFFFFFFFFFFFFFFFFFFFFFFF10
EFFFFFFFFFFFFFFFFFFFFFFFFF10
EF4000000000000000000002FF10
EF4000000000000000000002FF10
EF4000000000000000000002FF10
EF4000000000000000000002FF10
EF4000000000000000000002FF10
EF4000000000000000000002FF10
EF4000000000000000000002FF10
EF4000000000000000000002FF10
EF4000000000000000000002FF10
EF4000000000000000000002FF10
EF4000000000000000000002FF10
EF4000000000000000000002FF10
ENDCHAR
STARTCHAR hcircumflex
ENCODING 293
SWIDTH 949 0
DWIDTH 34 0
BBX 27 31 4 0
BITMAP
000000000002AC30000000000000
00000000019FFFFA200000000000
000000007EFE98EFF91000000000
0000004DFD710006CFE700000000
0000004C5000000004A700000000
0000000000000000000000000000
0000000000000000000000000000
EF4000000000000000000002FF10
EF4000000000000000000002FF10
EF4000000000000000000002FF10
EF4000000000000000000002FF10
EF4000000000000000000002FF10
EF4000000000000000000002FF10
EF4000000000000000000002FF10
EF4000000000000000000002FF10
EF4000000000000000000002FF10
EF4000000000000000000002FF10
EFFFFFFFFFFFFFFFFFFFFFFFFF10
EFFFFFFFFFFFFFFFFFFFFFFFFF10
EF4000000000000000000002FF10
EF4000000000000000000002FF10
EF4000000000000000000002FF10
EF4000000000000000000002FF10
EF4000000000000000000002FF10
EF4000000000000000000002FF10
EF4000000000000000000002FF10
EF4000000000000000000002FF10
EF4000000000000000000002FF10
EF4000000000000000000002FF10
EF4000000000000000000002FF10
EF4000000000000000000002FF10
ENDCHAR
STARTCHAR Hbar
ENCODING 294
SWIDTH 949 0
DWIDTH 34 0
BBX 33 24 1 0
BITMAP
000EF4000000000000000000002FF10000
000EF4000000000000000000002FF10000
000EF4000000000000000000002FF10000
000EF4000000000000000000002FF10000
000EF4000000000000000000002FF10000
FFFFFFFFFFFFFFFFFFFFFFFFFFFFFFFF30
FFFFFFFFFFFFFFFFFFFFFFFFFFFFFFFF30
000EF4000000000000000000002FF10000
000EF4000000000000000000002FF10000
000EF4000000000000000000002FF10000
000EFFFFFFFFFFFFFFFFFFFFFFFFF10000
000EFFFFFFFFFFFFFFFFFFFFFFFFF10000
000EF4000000000000000000002FF10000
000EF4000000000000000000002FF10000
000EF4000000000000000000002FF10000
000EF4000000000000000000002FF10000
000EF4000000000000000000002FF10000
000EF4000000000000000000002FF10000
000EF4000000000000000000002FF10000
000EF4000000000000000000002FF10000
000EF4000000000000000000002FF10000
000EF4000000000000000000002FF10000
000EF4000000000000000000002FF10000
000EF4000000000000000000002FF10000
ENDCHAR
STARTCHAR hbar
ENCODING 295
SWIDTH 949 0
DWIDTH 34 0
BBX 33 24 1 0
BITMAP
000EF4000000000000000000002FF10000
000EF4000000000000000000002FF10000
000EF4000000000000000000002FF10000
000EF4000000000000000000002FF10000
000EF4000000000000000000002FF10000
FFFFFFFFFFFFFFFFFFFFFFFFFFFFFFFF30
FFFFFFFFFFFFFFFFFFFFFFFFFFFFFFFF30
000EF4000000000000000000002FF10000
000EF4000000000000000000002FF10000
000EF4000000000000000000002FF10000
000EFFFFFFFFFFFFFFFFFFFFFFFFF10000
000EFFFFFFFFFFFFFFFFFFFFFFFFF10000
000EF4000000000000000000002FF10000
000EF4000000000000000000002FF10000
000EF4000000000000000000002FF10000
000EF4000000000000000000002FF10000
000EF4000000000000000000002FF10000
000EF4000000000000000000002FF10000
000EF4000000000000000000002FF10000
000EF4000000000000000000002FF10000
000EF4000000000000000000002FF10000
000EF4000000000000000000002FF10000
000EF4000000000000000000002FF10000
000EF4000000000000000000002FF10000
ENDCHAR
STARTCHAR Itilde
ENCODING 296
SWIDTH 287 0
DWIDTH 10 0
BBX 13 30 -1 0
BITMAP
06DFC600005F50
4FFFFFD722CF20
BF515CFFFFFA00
EB00004AEEA100
00000000000000
00000000000000
00000EF4000000
00000EF4000000
00000EF4000000
00000EF4000000
00000EF4000000
00000EF4000000
00000EF4000000
00000EF4000000
00000EF4000000
00000EF4000000
00000EF4000000
00000EF4000000
00000EF4000000
00000EF4000000
00000EF4000000
00000EF4000000
00000EF4000000
00000EF4000000
00000EF4000000
00000EF4000000
00000EF4000000
00000EF4000000
00000EF4000000
00000EF4000000
ENDCHAR
STARTCHAR itilde
ENCODING 297
SWIDTH 287 0
DWIDTH 10 0
BBX 13 30 -1 0
BITMAP
05DFC600005F60
4FFFFFE721BF20
AF515CFFFFFB00
DC00004AEEA100
00000000000000
00000000000000
00000EF4000000
00000EF4000000
00000EF4000000
00000EF4000000
00000EF4000000
00000EF4000000
00000EF4000000
00000EF4000000
00000EF4000000
00000EF4000000
00000EF4000000
00000EF4000000
00000EF4000000
00000EF4000000
00000EF4000000
00000EF4000000
00000EF4000000
00000EF4000000
00000EF4000000
00000EF4000000
00000EF4000000
00000EF4000000
00000EF4000000
00000EF4000000
ENDCHAR
STARTCHAR Imacron
ENCODING 298
SWIDTH 287 0
DWIDTH 10 0
BBX 10 29 0 0
BITMAP
AFFFFFFFFF
AFFFFFFFFF
0000000000
0000000000
0000000000
0000EF4000
0000EF4000
0000EF4000
0000EF4000
0000EF4000
0000EF4000
0000EF4000
0000EF4000
0000EF4000
0000EF4000
0000EF4000
0000EF4000
0000EF4000
0000EF4000
0000EF4000
0000EF4000
0000EF4000
0000EF4000
0000EF4000
0000EF4000
0000EF4000
0000EF4000
0000EF4000
0000EF4000
ENDCHAR
STARTCHAR imacron
ENCODING 299
SWIDTH 287 0
DWIDTH 10 0
BBX 10 29 0 0
BITMAP
AFFFFFFFFF
AFFFFFFFFF
0000000000
0000000000
0000000000
0000EF4000
0000EF4000
0000EF4000
0000EF4000
0000EF4000
0000EF4000
0000EF4000
0000EF4000
0000EF4000
0000EF4000
0000EF4000
0000EF4000
0000EF4000
0000EF4000
0000EF4000
0000EF4000
0000EF4000
0000EF4000
0000EF4000
0000EF4000
0000EF4000
0000EF4000
0000EF4000
0000EF4000
ENDCHAR
STARTCHAR Ibreve
ENCODING 300
SWIDTH 287 0
DWIDTH 10 0
BBX 13 30 -1 0
BITMAP
BF70000002EF10
4FF931026EF900
06FFFFFFFFA000
0029DEFEA40000
00000000000000
00000000000000
00000EF4000000
00000EF4000000
00000EF4000000
00000EF4000000
00000EF4000000
00000EF4000000
00000EF4000000
00000EF4000000
00000EF4000000
00000EF4000000
00000EF4000000
00000EF4000000
00000EF4000000
00000EF4000000
00000EF4000000
00000EF4000000
00000EF4000000
00000EF4000000
00000EF4000000
00000EF4000000
00000EF4000000
00000EF4000000
00000EF4000000
00000EF4000000
ENDCHAR
STARTCHAR ibreve
ENCODING 301
SWIDTH 287 0
DWIDTH 10 0
BBX 13 30 -1 0
BITMAP
AF70000002EF10
3FF931026EF900
06FFFFFFFFA100
0029DEFEA50000
00000000000000
00000000000000
00000EF4000000
00000EF4000000
00000EF4000000
00000EF4000000
00000EF4000000
00000EF4000000
00000EF4000000
00000EF4000000
00000EF4000000
00000EF4000000
00000EF4000000
00000EF4000000
00000EF4000000
00000EF4000000
00000EF4000000
00000EF4000000
00000EF4000000
00000EF4000000
00000EF4000000
00000EF4000000
00000EF4000000
00000EF4000000
00000EF4000000
00000EF4000000
ENDCHAR
STARTCHAR Iogonek
ENCODING 302
SWIDTH 287 0
DWIDTH 10 0
BBX 9 30 0 -6
BITMAP
0000EF4000
0000EF4000
0000EF4000
0000EF4000
0000EF4000
0000EF4000
0000EF4000
0000EF4000
0000EF4000
0000EF4000
0000EF4000
0000EF4000
0000EF4000
0000EF4000
0000EF4000
0000EF4000
0000EF4000
0000EF4000
0000EF4000
0000EF4000
0000EF4000
0000EF4000
0000EF4000
0001EF4000
004DB20000
05F9000000
0EE0000000
2FF5100000
0DFFFFFF80
019DEFFF80
ENDCHAR
STARTCHAR iogonek
ENCODING 303
SWIDTH 287 0
DWIDTH 10 0
BBX 9 30 0 -6
BITMAP
0000EF4000
0000EF4000
0000EF4000
0000EF4000
0000EF4000
0000EF4000
0000EF4000
0000EF4000
0000EF4000
0000EF4000
0000EF4000
0000EF4000
0000EF4000
0000EF4000
0000EF4000
0000EF4000
0000EF4000
0000EF4000
0000EF4000
0000EF4000
0000EF4000
0000EF4000
0000EF4000
0001EF4000
004DB20000
05F9000000
0EE0000000
2FF5100000
0DFFFFFF80
019DEFFF80
ENDCHAR
STARTCHAR Idotaccent
ENCODING 304
SWIDTH 287 0
DWIDTH 10 0
BBX 4 29 3 0
BITMAP
3FF8
3FF8
3FF8
0000
0000
0EF4
0EF4
0EF4
0EF4
0EF4
0EF4
0EF4
0EF4
0EF4
0EF4
0EF4
0EF4
0EF4
0EF4
0EF4
0EF4
0EF4
0EF4
0EF4
0EF4
0EF4
0EF4
0EF4
0EF4
ENDCHAR
STARTCHAR dotlessi
ENCODING 305
SWIDTH 287 0
DWIDTH 10 0
BBX 3 24 4 0
BITMAP
EF40
EF40
EF40
EF40
EF40
EF40
EF40
EF40
EF40
EF40
EF40
EF40
EF40
EF40
EF40
EF40
EF40
EF40
EF40
EF40
EF40
EF40
EF40
EF40
ENDCHAR
STARTCHAR IJ
ENCODING 306
SWIDTH 877 0
DWIDTH 32 0
BBX 24 24 4 0
BITMAP
EF40000000000000000008FA
EF40000000000000000008FA
EF40000000000000000008FA
EF40000000000000000008FA
EF40000000000000000008FA
EF40000000000000000008FA
EF40000000000000000008FA
EF40000000000000000008FA
EF40000000000000000008FA
EF40000000000000000008FA
EF40000000000000000008FA
EF40000000000000000008FA
EF40000000000000000008FA
EF40000000000000000008FA
EF40000000000000000008FA
EF40000000000000000008FA
EF40000000000000000008F9
EF4000000000000000000AF8
EF4000000000000000001EF5
EF4000000000000000009FE0
EF400000000000000009FF60
EF40009B8532100137DFF800
EF4000AFFFFFFFFFFFFD5000
EF4000147ACDEFFEC9500000
ENDCHAR
STARTCHAR ij
ENCODING 307
SWIDTH 877 0
DWIDTH 32 0
BBX 24 24 4 0
BITMAP
EF40000000000000000008FA
EF40000000000000000008FA
EF40000000000000000008FA
EF40000000000000000008FA
EF40000000000000000008FA
EF40000000000000000008FA
EF40000000000000000008FA
EF40000000000000000008FA
EF40000000000000000008FA
EF40000000000000000008FA
EF40000000000000000008FA
EF40000000000000000008FA
EF40000000000000000008FA
EF40000000000000000008FA
EF40000000000000000008FA
EF40000000000000000008FA
EF40000000000000000008F9
EF4000000000000000000AF8
EF4000000000000000001EF5
EF4000000000000000009FE0
EF400000000000000009FF60
EF40009B8532100137DFF800
EF4000AFFFFFFFFFFFFD5000
EF4000147ACDEFFEC9500000
ENDCHAR
STARTCHAR Jcircumflex
ENCODING 308
SWIDTH 590 0
DWIDTH 21 0
BBX 23 31 0 0
BITMAP
0000000000000019C5000000
00000000000017EFFFB30000
000000000006DFFA7DFFA200
0000000003CFE820005BFF80
0000000002C6100000003990
000000000000000000000000
000000000000000000000000
000000000000000DF5000000
000000000000000DF5000000
000000000000000DF5000000
000000000000000DF5000000
000000000000000DF5000000
000000000000000DF5000000
000000000000000DF5000000
000000000000000DF5000000
000000000000000DF5000000
000000000000000DF5000000
000000000000000DF5000000
000000000000000DF5000000
000000000000000DF5000000
000000000000000DF5000000
000000000000000DF5000000
000000000000000DF5000000
000000000000000EF4000000
000000000000001FF3000000
000000000000006FE0000000
00000000000001DF90000000
0000000000002CFE10000000
DA7431000149EFE300000000
FFFFFFFFFFFFFB2000000000
258ACEEFEDB8300000000000
ENDCHAR
STARTCHAR jcircumflex
ENCODING 309
SWIDTH 590 0
DWIDTH 21 0
BBX 23 31 0 0
BITMAP
0000000000000019C5000000
00000000000017EFFFB30000
000000000006DFFA7DFFA200
0000000003CFE820005BFF80
0000000002C6100000003990
000000000000000000000000
000000000000000000000000
000000000000000DF5000000
000000000000000DF5000000
000000000000000DF5000000
000000000000000DF5000000
000000000000000DF5000000
000000000000000DF5000000
000000000000000DF5000000
000000000000000DF5000000
000000000000000DF5000000
000000000000000DF5000000
000000000000000DF5000000
000000000000000DF5000000
000000000000000DF5000000
000000000000000DF5000000
000000000000000DF5000000
000000000000000DF5000000
000000000000000EF4000000
000000000000001FF3000000
000000000000006FE0000000
00000000000001DF90000000
0000000000002CFE10000000
DA7431000149EFE300000000
FFFFFFFFFFFFFB2000000000
258ACEEFEDB8300000000000
ENDCHAR
STARTCHAR Kcommaaccent
ENCODING 310
SWIDTH 806 0
DWIDTH 29 0
BBX 25 32 4 -8
BITMAP
EF400000000000000008FF8000
EF4000000000000004DFC30000
EF400000000000019FF7000000
EF4000000000006EFC20000000
EF40000000002BFE6000000000
EF4000000007FFB20000000000
EF40000004DFE6000000000000
EF4000019FFA10000000000000
EF40005EFE5000000000000000
EF402BFFA10000000000000000
EF57EFD4000000000000000000
EFDFFE10000000000000000000
EF59FFD4000000000000000000
EF404DFF810000000000000000
EF40019FFD4000000000000000
EF400004DFF910000000000000
EF40000019FFD4000000000000
EF400000004DFF910000000000
EF40000000019FFD4000000000
EF400000000004DFF910000000
EF40000000000019FFD4000000
EF400000000000004DFF910000
EF40000000000000019FFD4000
EF400000000000000004DFF910
00000000000000000000000000
00000000000000000000000000
00000000000000000000000000
0000000008FE00000000000000
000000000AFA00000000000000
000000000CF500000000000000
000000000EF100000000000000
000000001FC000000000000000
ENDCHAR
STARTCHAR kcommaaccent
ENCODING 311
SWIDTH 867 0
DWIDTH 31 0
BBX 25 32 4 -8
BITMAP
EF4000000000000000000DF600
EF4000000000000000001FF300
EF4000000000000000006FE000
EF400000000000000000DF8000
EF400000000000000007FF2000
EF40000000000000003FF70000
EF4000000000000003EFA00000
EF400000000000006EFB100000
EF4000000000002BFF80000000
EF40000000004AFFD400000000
EF40001246AEFFC50000000000
EFFFFFFFFFFF93000000000000
EFFFFFFFFFFFFC840000000000
EF4000012469DFFFD600000000
EF4000000000028DFFD4000000
EF400000000000006EFF700000
EF4000000000000001AFF90000
EF400000000000000007FF7000
EF4000000000000000008FF300
EF4000000000000000000CFB00
EF40000000000000000004FF30
EF40000000000000000000DF80
EF400000000000000000008FB0
EF400000000000000000006FE0
00000000000000000000000000
00000000000000000000000000
00000000000000000000000000
00000000006FF1000000000000
00000000008FB0000000000000
0000000000AF70000000000000
0000000000CF30000000000000
0000000000ED00000000000000
ENDCHAR
STARTCHAR kgreenlandic
ENCODING 312
SWIDTH 867 0
DWIDTH 31 0
BBX 25 24 4 0
BITMAP
EF4000000000000000000DF600
EF4000000000000000001FF300
EF4000000000000000006FE000
EF400000000000000000DF8000
EF400000000000000007FF2000
EF40000000000000003FF70000
EF4000000000000003EFA00000
EF400000000000006EFB100000
EF4000000000002BFF80000000
EF40000000004AFFD400000000
EF40001246AEFFC50000000000
EFFFFFFFFFFF93000000000000
EFFFFFFFFFFFFC840000000000
EF4000012469DFFFD600000000
EF4000000000028DFFD4000000
EF400000000000006EFF700000
EF4000000000000001AFF90000
EF400000000000000007FF7000
EF4000000000000000008FF300
EF4000000000000000000CFB00
EF40000000000000000004FF30
EF40000000000000000000DF80
EF400000000000000000008FB0
EF400000000000000000006FE0
ENDCHAR
STARTCHAR Lacute
ENCODING 313
SWIDTH 701 0
DWIDTH 25 0
BBX 21 31 3 0
BITMAP
0000017B00000000000000
00018EFF30000000000000
018EFE9300000000000000
8FFD610000000000000000
8A40000000000000000000
0000000000000000000000
0000000000000000000000
0EF4000000000000000000
0EF4000000000000000000
0EF4000000000000000000
0EF4000000000000000000
0EF4000000000000000000
0EF4000000000000000000
0EF4000000000000000000
0EF4000000000000000000
0EF4000000000000000000
0EF4000000000000000000
0EF4000000000000000000
0EF4000000000000000000
0EF4000000000000000000
0EF4000000000000000000
0EF4000000000000000000
0EF4000000000000000000
0EF4000000000000000000
0EF4000000000000000000
0EF4000000000000000000
0EF4000000000000000000
0EF4000000000000000000
0EF4000000000000000000
0EFFFFFFFFFFFFFFFFFFE0
0EFFFFFFFFFFFFFFFFFFE0
ENDCHAR
STARTCHAR lacute
ENCODING 314
SWIDTH 709 0
DWIDTH 26 0
BBX 23 31 3 0
BITMAP
0000017B0000000000000000
00018EFF3000000000000000
018EFE930000000000000000
8FFD61000000000000000000
8A4000000000000000000000
000000000000000000000000
000000000000000000000000
0EF400000000000000000000
0EF400000000000000000000
0EF400000000000000000000
0EF400000000000000000000
0EF400000000000000000000
0EF400000000000000000000
0EF400000000000000000000
0EF400000000000000000000
0EF400000000000000000000
0EF400000000000000000000
0EF400000000000000000000
0EF400000000000000000000
0EF400000000000000000000
0EF400000000000000000000
0EF400000000000000000000
0EF400000000000000000000
0EF400000000000000000000
0DF500000000000000000000
0BF800000000000000000000
08FD00000000000000000000
02FFA1000000000000000000
007FFD842100000000000000
0006EFFFFFFFFFFFFFFFFF30
0000159CDEFFFFFFFFFFFF30
ENDCHAR
STARTCHAR Lcommaaccent
ENCODING 315
SWIDTH 701 0
DWIDTH 25 0
BBX 20 32 4 -8
BITMAP
EF400000000000000000
EF400000000000000000
EF400000000000000000
EF400000000000000000
EF400000000000000000
EF400000000000000000
EF400000000000000000
EF400000000000000000
EF400000000000000000
EF400000000000000000
EF400000000000000000
EF400000000000000000
EF400000000000000000
EF400000000000000000
EF400000000000000000
EF400000000000000000
EF400000000000000000
EF400000000000000000
EF400000000000000000
EF400000000000000000
EF400000000000000000
EF400000000000000000
EFFFFFFFFFFFFFFFFFFE
EFFFFFFFFFFFFFFFFFFE
00000000000000000000
00000000000000000000
00000000000000000000
000000000DF900000000
000000000FF500000000
000000002FF100000000
000000004FB000000000
000000006F7000000000
ENDCHAR
STARTCHAR lcommaaccent
ENCODING 316
SWIDTH 709 0
DWIDTH 26 0
BBX 22 32 4 -8
BITMAP
EF40000000000000000000
EF40000000000000000000
EF40000000000000000000
EF40000000000000000000
EF40000000000000000000
EF40000000000000000000
EF40000000000000000000
EF40000000000000000000
EF40000000000000000000
EF40000000000000000000
EF40000000000000000000
EF40000000000000000000
EF40000000000000000000
EF40000000000000000000
EF40000000000000000000
EF40000000000000000000
EF40000000000000000000
DF50000000000000000000
BF80000000000000000000
8FD0000000000000000000
2FFA100000000000000000
07FFD84210000000000000
006EFFFFFFFFFFFFFFFFF3
000159CDEFFFFFFFFFFFF3
0000000000000000000000
0000000000000000000000
0000000000000000000000
0000000002FF5000000000
0000000004FF1000000000
0000000006FC0000000000
0000000008F70000000000
000000000AF30000000000
ENDCHAR
STARTCHAR Lcaron
ENCODING 317
SWIDTH 701 0
DWIDTH 25 0
BBX 20 24 4 0
BITMAP
EF40000000006FF10000
EF40000000009FB00000
EF4000000000CF600000
EF4000000000FF100000
EF4000000003FB000000
EF4000000006F7000000
EF400000000000000000
EF400000000000000000
EF400000000000000000
EF400000000000000000
EF400000000000000000
EF400000000000000000
EF400000000000000000
EF400000000000000000
EF400000000000000000
EF400000000000000000
EF400000000000000000
EF400000000000000000
EF400000000000000000
EF400000000000000000
EF400000000000000000
EF400000000000000000
EFFFFFFFFFFFFFFFFFFE
EFFFFFFFFFFFFFFFFFFE
ENDCHAR
STARTCHAR lcaron
ENCODING 318
SWIDTH 709 0
DWIDTH 26 0
BBX 22 24 4 0
BITMAP
EF40000000005FF1000000
EF40000000008FB0000000
EF4000000000BF70000000
EF4000000000EF20000000
EF4000000002FC00000000
EF4000000005F700000000
EF40000000000000000000
EF40000000000000000000
EF40000000000000000000
EF40000000000000000000
EF40000000000000000000
EF40000000000000000000
EF40000000000000000000
EF40000000000000000000
EF40000000000000000000
EF40000000000000000000
EF40000000000000000000
DF50000000000000000000
BF80000000000000000000
8FD0000000000000000000
2FFA100000000000000000
07FFD84210000000000000
006EFFFFFFFFFFFFFFFFF3
000159CDEFFFFFFFFFFFF3
ENDCHAR
STARTCHAR Ldot
ENCODING 319
SWIDTH 701 0
DWIDTH 25 0
BBX 20 24 4 0
BITMAP
EF400000000000000000
EF400000000000000000
EF400000000000000000
EF400000000000000000
EF400000000000000000
EF400000000000000000
EF400000000000000000
EF400000000000000000
EF400000000000000000
EF400000000000000000
EF4000000000CFF40000
EF4000000000CFF40000
EF4000000000CFF40000
EF4000000000CFF40000
EF400000000000000000
EF400000000000000000
EF400000000000000000
EF400000000000000000
EF400000000000000000
EF400000000000000000
EF400000000000000000
EF400000000000000000
EFFFFFFFFFFFFFFFFFFE
EFFFFFFFFFFFFFFFFFFE
ENDCHAR
STARTCHAR ldotaccent
ENCODING 320
SWIDTH 709 0
DWIDTH 26 0
BBX 22 24 4 0
BITMAP
EF40000000000000000000
EF40000000000000000000
EF40000000000000000000
EF40000000000000000000
EF40000000000000000000
EF40000000000000000000
EF40000000000000000000
EF40000000000000000000
EF40000000000000000000
EF40000000000000000000
EF40000000007FF9000000
EF40000000007FF9000000
EF40000000007FF9000000
EF40000000007FF9000000
EF40000000000000000000
EF40000000000000000000
EF40000000000000000000
DF50000000000000000000
BF80000000000000000000
8FD0000000000000000000
2FFA100000000000000000
07FFD84210000000000000
006EFFFFFFFFFFFFFFFFF3
000159CDEFFFFFFFFFFFF3
ENDCHAR
STARTCHAR Lslash
ENCODING 321
SWIDTH 701 0
DWIDTH 25 0
BBX 24 24 0 0
BITMAP
0000EF400000000000000000
0000EF400000000000000000
0000EF400000000000000000
0000EF400000000000000000
0000EF400000000000000000
0000EF400000000000000000
0000EF400000000000000000
0000EF400000000000000000
0000EF400017C10000000000
0000EF4039EFF50000000000
0000EF9CFFE8200000000000
0002EFFFC610000000000000
05BFFFA30000000000000000
BFFDFF400000000000000000
6B40EF400000000000000000
0000EF400000000000000000
0000EF400000000000000000
0000EF400000000000000000
0000EF400000000000000000
0000EF400000000000000000
0000EF400000000000000000
0000EF400000000000000000
0000EFFFFFFFFFFFFFFFFFFE
0000EFFFFFFFFFFFFFFFFFFE
ENDCHAR
STARTCHAR lslash
ENCODING 322
SWIDTH 709 0
DWIDTH 26 0
BBX 26 24 0 0
BITMAP
0000EF40000000000000000000
0000EF40000000000000000000
0000EF40000000000000000000
0000EF40000000000000000000
0000EF40000000000000000000
0000EF40000000000000000000
0000EF40000000000000000000
0000EF40000000000000000000
0000EF400017C1000000000000
0000EF4039EFF5000000000000
0000EF9CFFE820000000000000
0002EFFFC61000000000000000
05BFFFA3000000000000000000
BFFDFF40000000000000000000
6B40EF40000000000000000000
0000EF40000000000000000000
0000EF40000000000000000000
0000DF60000000000000000000
0000BF80000000000000000000
00008FD0000000000000000000
00002FFA100000000000000000
000007FFD84210000000000000
0000006EFFFFFFFFFFFFFFFFF3
0000000159CDEFFFFFFFFFFFF3
ENDCHAR
STARTCHAR Nacute
ENCODING 323
SWIDTH 936 0
DWIDTH 34 0
BBX 26 31 4 0
BITMAP
00000000000000003A60000000
000000000000003BFFD0000000
0000000000004BFFD710000000
00000000002CFFA40000000000
00000000001C82000000000000
00000000000000000000000000
00000000000000000000000000
EFD200000000000000000008FA
EFFD20000000000000000008FA
EFFFD2000000000000000008FA
EF7EFD100000000000000008FA
EF43EFD10000000000000008FA
EF403EFD1000000000000008FA
EF4003EFD100000000000008FA
EF40003EFC10000000000008FA
EF400003EFC1000000000008FA
EF4000003EFC100000000008FA
EF40000003EFC10000000008FA
EF400000003EFC1000000008FA
EF4000000003EFC100000008FA
EF40000000004EFC10000008FA
EF400000000004EFC1000008FA
EF4000000000004EFC100008FA
EF40000000000004EFC10008FA
EF400000000000004EFB1008FA
EF4000000000000004EFB108FA
EF40000000000000004EFB18FA
EF400000000000000004EFB9FA
EF4000000000000000004FFFFA
EF40000000000000000004FFFA
EF400000000000000000004FFA
ENDCHAR
STARTCHAR nacute
ENCODING 324
SWIDTH 933 0
DWIDTH 34 0
BBX 26 31 4 0
BITMAP
00000000000000006C10000000
000000000000006DFF70000000
0000000000017DFFB400000000
00000000005EFE820000000000
00000000005C50000000000000
00000000000000000000000000
00000000000000000000000000
EF4000000027ACEFFEC9400000
EF4000028CFFFFFFFFFFFD5000
EF40029FFFD852100137CFF800
EF419FFE82000000000007FF50
EFAEFD60000000000000009FD0
EFFF8100000000000000001FF4
EFD30000000000000000000CF7
EF400000000000000000000AF9
EF4000000000000000000009FA
EF4000000000000000000008FA
EF4000000000000000000008FA
EF4000000000000000000008FA
EF4000000000000000000008FA
EF4000000000000000000008FA
EF4000000000000000000008FA
EF4000000000000000000008FA
EF4000000000000000000008FA
EF4000000000000000000008FA
EF4000000000000000000008FA
EF4000000000000000000008FA
EF4000000000000000000008FA
EF4000000000000000000008FA
EF4000000000000000000008FA
EF4000000000000000000008FA
ENDCHAR
STARTCHAR Ncommaaccent
ENCODING 325
SWIDTH 936 0
DWIDTH 34 0
BBX 26 32 4 -8
BITMAP
EFD200000000000000000008FA
EFFD20000000000000000008FA
EFFFD2000000000000000008FA
EF7EFD100000000000000008FA
EF43EFD10000000000000008FA
EF403EFD1000000000000008FA
EF4003EFD100000000000008FA
EF40003EFC10000000000008FA
EF400003EFC1000000000008FA
EF4000003EFC100000000008FA
EF40000003EFC10000000008FA
EF400000003EFC1000000008FA
EF4000000003EFC100000008FA
EF40000000004EFC10000008FA
EF400000000004EFC1000008FA
EF4000000000004EFC100008FA
EF40000000000004EFC10008FA
EF400000000000004EFB1008FA
EF4000000000000004EFB108FA
EF40000000000000004EFB18FA
EF400000000000000004EFB9FA
EF4000000000000000004FFFFA
EF40000000000000000004FFFA
EF400000000000000000004FFA
00000000000000000000000000
00000000000000000000000000
00000000000000000000000000
000000000002FF500000000000
000000000004FF100000000000
000000000006FB000000000000
000000000008F7000000000000
00000000000AF2000000000000
ENDCHAR
STARTCHAR ncommaaccent
ENCODING 326
SWIDTH 933 0
DWIDTH 34 0
BBX 26 32 4 -8
BITMAP
EF4000000027ACEFFEC9400000
EF4000028CFFFFFFFFFFFD5000
EF40029FFFD852100137CFF800
EF419FFE82000000000007FF50
EFAEFD60000000000000009FD0
EFFF8100000000000000001FF4
EFD30000000000000000000CF7
EF400000000000000000000AF9
EF4000000000000000000009FA
EF4000000000000000000008FA
EF4000000000000000000008FA
EF4000000000000000000008FA
EF4000000000000000000008FA
EF4000000000000000000008FA
EF4000000000000000000008FA
EF4000000000000000000008FA
EF4000000000000000000008FA
EF4000000000000000000008FA
EF4000000000000000000008FA
EF4000000000000000000008FA
EF4000000000000000000008FA
EF4000000000000000000008FA
EF4000000000000000000008FA
EF4000000000000000000008FA
00000000000000000000000000
00000000000000000000000000
00000000000000000000000000
000000000003FF300000000000
000000000005FE000000000000
000000000008FA000000000000
00000000000AF6000000000000
00000000000CF1000000000000
ENDCHAR
STARTCHAR Ncaron
ENCODING 327
SWIDTH 936 0
DWIDTH 34 0
BBX 26 31 4 0
BITMAP
0000008A3000000005C3000000
0000008FFB500017EFD4000000
00000002AFFD79EFE700000000
0000000003BFFFE81000000000
000000000004C9200000000000
00000000000000000000000000
00000000000000000000000000
EFD200000000000000000008FA
EFFD20000000000000000008FA
EFFFD2000000000000000008FA
EF7EFD100000000000000008FA
EF43EFD10000000000000008FA
EF403EFD1000000000000008FA
EF4003EFD100000000000008FA
EF40003EFC10000000000008FA
EF400003EFC1000000000008FA
EF4000003EFC100000000008FA
EF40000003EFC10000000008FA
EF400000003EFC1000000008FA
EF4000000003EFC100000008FA
EF40000000004EFC10000008FA
EF400000000004EFC1000008FA
EF4000000000004EFC100008FA
EF40000000000004EFC10008FA
EF400000000000004EFB1008FA
EF4000000000000004EFB108FA
EF40000000000000004EFB18FA
EF400000000000000004EFB9FA
EF4000000000000000004FFFFA
EF40000000000000000004FFFA
EF400000000000000000004FFA
ENDCHAR
STARTCHAR ncaron
ENCODING 328
SWIDTH 933 0
DWIDTH 34 0
BBX 26 31 4 0
BITMAP
000001C71000000028B0000000
000002BFE920003AFFA1000000
00000004CFFB6BFFC300000000
0000000006DFFFD50000000000
000000000017D6000000000000
00000000000000000000000000
00000000000000000000000000
EF4000000027ACEFFEC9400000
EF4000028CFFFFFFFFFFFD5000
EF40029FFFD852100137CFF800
EF419FFE82000000000007FF50
EFAEFD60000000000000009FD0
EFFF8100000000000000001FF4
EFD30000000000000000000CF7
EF400000000000000000000AF9
EF4000000000000000000009FA
EF4000000000000000000008FA
EF4000000000000000000008FA
EF4000000000000000000008FA
EF4000000000000000000008FA
EF4000000000000000000008FA
EF4000000000000000000008FA
EF4000000000000000000008FA
EF4000000000000000000008FA
EF4000000000000000000008FA
EF4000000000000000000008FA
EF4000000000000000000008FA
EF4000000000000000000008FA
EF4000000000000000000008FA
EF4000000000000000000008FA
EF4000000000000000000008FA
ENDCHAR
STARTCHAR napostrophe
ENCODING 329
SWIDTH 1025 0
DWIDTH 37 0
BBX 33 24 0 0
BITMAP
0DF80009F90000000159CEEFEDA6100000
1FF30009F9000006BFFFFFFFFFFFE80000
4FE00009F90017EFFEA63110135AFFC100
7F900009F906EFFA4000000000003EFB00
AF400009FCCFF92000000000000004FF40
DE000009FFFB200000000000000000BF90
00000009FF700000000000000000006FD0
00000009F9000000000000000000004FE0
00000009F9000000000000000000003FF0
00000009F9000000000000000000003FF0
00000009F9000000000000000000003FF0
00000009F9000000000000000000003FF0
00000009F9000000000000000000003FF0
00000009F9000000000000000000003FF0
00000009F9000000000000000000003FF0
00000009F9000000000000000000003FF0
00000009F9000000000000000000003FF0
00000009F9000000000000000000003FF0
00000009F9000000000000000000003FF0
00000009F9000000000000000000003FF0
00000009F9000000000000000000003FF0
00000009F9000000000000000000003FF0
00000009F9000000000000000000003FF0
00000009F9000000000000000000003FF0
ENDCHAR
STARTCHAR Eng
ENCODING 330
SWIDTH 936 0
DWIDTH 34 0
BBX 26 24 4 0
BITMAP
EFE400000000000000000008FA
EFFF70000000000000000008FA
EFCFFB100000000000000008FA
EF45EFD40000000000000008FA
EF402CFF7000000000000008FA
EF40009FFB10000000000008FA
EF400005EFD4000000000008FA
EF4000002CFF700000000008FA
EF400000009FFB1000000008FA
EF4000000005EFD400000008FA
EF40000000002CFF70000008FA
EF4000000000009FFB100008FA
EF40000000000005EFD40008FA
EF400000000000002CFF7008FA
EF40000000000000009FFB18FA
EF400000000000000005EFDBFA
EF4000000000000000002CFFF9
EF400000000000000000009FF8
EF400000000000000000001EF5
EF400000000000000000007FF1
EF40000000000000000005FF80
EF40000004C853110024AFFC10
EF40000004FFFFFFFFFFFF9100
EF40000000369CEFFEDB820000
ENDCHAR
STARTCHAR eng
ENCODING 331
SWIDTH 933 0
DWIDTH 34 0
BBX 26 24 4 0
BITMAP
EF4000000027ACEFFEC9500000
EF4000028CFFFFFFFFFFFD5000
EF40029FFFD852100137CFF800
EF419FFE82000000000007FF60
EFAEFD60000000000000008FE0
EFFF8100000000000000001FF4
EFD30000000000000000000BF8
EF400000000000000000000AF9
EF4000000000000000000009FA
EF4000000000000000000008FA
EF4000000000000000000008FA
EF4000000000000000000008FA
EF4000000000000000000008FA
EF4000000000000000000008FA
EF4000000000000000000008FA
EF4000000000000000000008FA
EF4000000000000000000009F9
EF400000000000000000000AF8
EF400000000000000000000DF6
EF400000000000000000005FF1
EF40000000000000000003EF90
EF40000000CA642100149FFC10
EF40000000DFFFFFFFFFFFA100
EF40000000158BDEFFEC830000
ENDCHAR
STARTCHAR Omacron
ENCODING 332
SWIDTH 983 0
DWIDTH 35 0
BBX 31 29 2 0
BITMAP
00000000001FFFFFFFFF900000000000
00000000001FFFFFFFFF900000000000
00000000000000000000000000000000
00000000000000000000000000000000
00000000000000000000000000000000
00000000037ACEEFEEDB851000000000
00000028DFFFFFFFFFFFFFFB50000000
000008FFFD96321011257BFFFB300000
0002CFFA4000000000000017EFF50000
001DFE4000000000000000001AFF6000
00BFE2000000000000000000009FE200
05FF40000000000000000000000CFB00
0CFA000000000000000000000003FF40
2FF4000000000000000000000000CF90
6FE00000000000000000000000008FC0
8FC00000000000000000000000005FE0
9FA00000000000000000000000004FF0
9FA00000000000000000000000004FF0
8FC00000000000000000000000005FE0
6FE00000000000000000000000008FC0
2FF4000000000000000000000000CF90
0CF9000000000000000000000003FF40
05FF30000000000000000000000CFB00
00AFD2000000000000000000009FE200
001DFE4000000000000000001AFF6000
0001CFFA3000000000000016EFF50000
000018FFFD96321011247BFFFC300000
00000028DFFFFFFFFFFFFFFB50000000
000000000379CDEFEEDB851000000000
ENDCHAR
STARTCHAR omacron
ENCODING 333
SWIDTH 983 0
DWIDTH 35 0
BBX 31 29 2 0
BITMAP
00000000001FFFFFFFFF900000000000
00000000001FFFFFFFFF900000000000
00000000000000000000000000000000
00000000000000000000000000000000
00000000000000000000000000000000
00000000037ACEEFEEDB851000000000
00000028DFFFFFFFFFFFFFFB50000000
000008FFFD96321011257BFFFB300000
0002CFFA4000000000000017EFF50000
001DFE4000000000000000001AFF6000
00BFE2000000000000000000009FE200
05FF40000000000000000000000CFB00
0CFA000000000000000000000003FF40
2FF4000000000000000000000000CF90
6FE00000000000000000000000008FC0
8FC00000000000000000000000005FE0
9FA00000000000000000000000004FF0
9FA00000000000000000000000004FF0
8FC00000000000000000000000005FE0
6FE00000000000000000000000008FC0
2FF4000000000000000000000000CF90
0CF9000000000000000000000003FF40
05FF30000000000000000000000CFB00
00AFD2000000000000000000009FE200
001DFE4000000000000000001AFF6000
0001CFFA3000000000000016EFF50000
000018FFFD96321011247BFFFC300000
00000028DFFFFFFFFFFFFFFB50000000
000000000379CDEFEEDB851000000000
ENDCHAR
STARTCHAR Obreve
ENCODING 334
SWIDTH 983 0
DWIDTH 35 0
BBX 31 30 2 0
BITMAP
0000000002FE20000008FA0000000000
0000000000AFD620139FF30000000000
00000000001BFFFFFFFE500000000000
0000000000005BEFEC82000000000000
00000000000000000000000000000000
00000000000000000000000000000000
00000000037ACEEFEEDB851000000000
00000028DFFFFFFFFFFFFFFB50000000
000008FFFD96321011257BFFFB300000
0002CFFA4000000000000017EFF50000
001DFE4000000000000000001AFF6000
00BFE2000000000000000000009FE200
05FF40000000000000000000000CFB00
0CFA000000000000000000000003FF40
2FF4000000000000000000000000CF90
6FE00000000000000000000000008FC0
8FC00000000000000000000000005FE0
9FA00000000000000000000000004FF0
9FA00000000000000000000000004FF0
8FC00000000000000000000000005FE0
6FE00000000000000000000000008FC0
2FF4000000000000000000000000CF90
0CF9000000000000000000000003FF40
05FF30000000000000000000000CFB00
00AFD2000000000000000000009FE200
001DFE4000000000000000001AFF6000
0001CFFA3000000000000016EFF50000
000018FFFD96321011247BFFFC300000
00000028DFFFFFFFFFFFFFFB50000000
000000000379CDEFEEDB851000000000
ENDCHAR
STARTCHAR obreve
ENCODING 335
SWIDTH 983 0
DWIDTH 35 0
BBX 31 30 2 0
BITMAP
0000000002FE20000008FA0000000000
0000000000AFD620139FF30000000000
00000000001BFFFFFFFE500000000000
0000000000005BEFEC82000000000000
00000000000000000000000000000000
00000000000000000000000000000000
00000000037ACEEFEEDB851000000000
00000028DFFFFFFFFFFFFFFB50000000
000008FFFD96321011257BFFFB300000
0002CFFA4000000000000017EFF50000
001DFE4000000000000000001AFF6000
00BFE2000000000000000000009FE200
05FF40000000000000000000000CFB00
0CFA000000000000000000000003FF40
2FF4000000000000000000000000CF90
6FE00000000000000000000000008FC0
8FC00000000000000000000000005FE0
9FA00000000000000000000000004FF0
9FA00000000000000000000000004FF0
8FC00000000000000000000000005FE0
6FE00000000000000000000000008FC0
2FF4000000000000000000000000CF90
0CF9000000000000000000000003FF40
05FF30000000000000000000000CFB00
00AFD2000000000000000000009FE200
001DFE4000000000000000001AFF6000
0001CFFA3000000000000016EFF50000
000018FFFD96321011247BFFFC300000
00000028DFFFFFFFFFFFFFFB50000000
000000000379CDEFEEDB851000000000
ENDCHAR
STARTCHAR Ohungarumlaut
ENCODING 336
SWIDTH 983 0
DWIDTH 35 0
BBX 31 31 2 0
BITMAP
000000000000002B2000195000000000
00000000000004EFB002CFE000000000
0000000000008FF9105EFC2000000000
00000000001CFD4009FE600000000000
000000000009800006A1000000000000
00000000000000000000000000000000
00000000000000000000000000000000
00000000037ACEEFEEDB851000000000
00000028DFFFFFFFFFFFFFFB50000000
000008FFFD96321011257BFFFB300000
0002CFFA4000000000000017EFF50000
001DFE4000000000000000001AFF6000
00BFE2000000000000000000009FE200
05FF40000000000000000000000CFB00
0CFA000000000000000000000003FF40
2FF4000000000000000000000000CF90
6FE00000000000000000000000008FC0
8FC00000000000000000000000005FE0
9FA00000000000000000000000004FF0
9FA00000000000000000000000004FF0
8FC00000000000000000000000005FE0
6FE00000000000000000000000008FC0
2FF4000000000000000000000000CF90
0CF9000000000000000000000003FF40
05FF30000000000000000000000CFB00
00AFD2000000000000000000009FE200
001DFE4000000000000000001AFF6000
0001CFFA3000000000000016EFF50000
000018FFFD96321011247BFFFC300000
00000028DFFFFFFFFFFFFFFB50000000
000000000379CDEFEEDB851000000000
ENDCHAR
STARTCHAR ohungarumlaut
ENCODING 337
SWIDTH 983 0
DWIDTH 35 0
BBX 31 31 2 0
BITMAP
000000000000002B2000195000000000
00000000000004EFB002CFE000000000
0000000000008FF9105EFC2000000000
00000000001CFD4009FE600000000000
000000000009800006A1000000000000
00000000000000000000000000000000
00000000000000000000000000000000
00000000037ACEEFEEDB851000000000
00000028DFFFFFFFFFFFFFFB50000000
000008FFFD96321011257BFFFB300000
0002CFFA4000000000000017EFF50000
001DFE4000000000000000001AFF6000
00BFE2000000000000000000009FE200
05FF40000000000000000000000CFB00
0CFA000000000000000000000003FF40
2FF4000000000000000000000000CF90
6FE00000000000000000000000008FC0
8FC00000000000000000000000005FE0
9FA00000000000000000000000004FF0
9FA00000000000000000000000004FF0
8FC00000000000000000000000005FE0
6FE00000000000000000000000008FC0
2FF4000000000000000000000000CF90
0CF9000000000000000000000003FF40
05FF30000000000000000000000CFB00
00AFD2000000000000000000009FE200
001DFE4000000000000000001AFF6000
0001CFFA3000000000000016EFF50000
000018FFFD96321011247BFFFC300000
00000028DFFFFFFFFFFFFFFB50000000
000000000379CDEFEEDB851000000000
ENDCHAR
STARTCHAR OE
ENCODING 338
SWIDTH 1338 0
DWIDTH 48 0
BBX 44 24 2 0
BITMAP
00000000037ACEEFFFFFFFFFFFFFFFFFFFFFFFFFFFF3
00000017DFFFFFFFFFFFFFFFFFFFFFFFFFFFFFFFFFF3
000007EFFD9632101122458FF7000000000000000000
0001BFFB400000000000000EF7000000000000000000
001CFE50000000000000000EF7000000000000000000
00AFE300000000000000000EF7000000000000000000
04FF5000000000000000000EF7000000000000000000
0BFA0000000000000000000EF7000000000000000000
2FF40000000000000000000EF7000000000000000000
5FE00000000000000000000EF7000000000000000000
8FC00000000000000000000EFFFFFFFFFFFFFFFFFF50
9FA00000000000000000000EFFFFFFFFFFFFFFFFFF50
9FA00000000000000000000EF7000000000000000000
8FC00000000000000000000EF7000000000000000000
6FE00000000000000000000EF7000000000000000000
2FF30000000000000000000EF7000000000000000000
0CF90000000000000000000EF7000000000000000000
05FF3000000000000000000EF7000000000000000000
00AFD200000000000000000EF7000000000000000000
001DFD40000000000000000EF7000000000000000000
0001CFF9300000000000000EF7000000000000000000
000018FFFC8532101122458FF7000000000000000000
00000029EFFFFFFFFFFFFFFFFFFFFFFFFFFFFFFFFFF7
00000000047ACDEFFFFFFFFFFFFFFFFFFFFFFFFFFFF7
ENDCHAR
ENDFONT
